<svg width="22" height="22" myProp="toto" viewBox="0 0 22 22" fill="none" xmlns="http://www.w3.org/2000/svg">
<path d="M11 1.6445L16.75 4.97345V8.59108L19.9 10.4251V17.0296L14.0966 20.3544L11 18.5564L7.90332 20.3544L2.09998 17.0296V10.4251L5.24998 8.59108V4.97345L11 1.6445ZM7.24998 6.12655V9.74092L4.09998 11.5749V15.8704L7.89663 18.0456L11 16.2436L14.1033 18.0456L17.9 15.8704V11.5749L14.75 9.74092V6.12655L11 3.9555L7.24998 6.12655Z" fill="#B0DFF5"/>
<path d="M11 5.24281L16.75 8.59113V15.2089L11 18.5572L5.25 15.2089V8.59113L11 5.24281ZM7.25 9.74088V14.0591L11 16.2428L14.75 14.0591V9.74088L11 7.5572L7.25 9.74088Z" fill="#00AAEB"/>
</svg>