<svg width="51" height="60" viewBox="0 0 51 60" fill="none" xmlns="http://www.w3.org/2000/svg">
<path d="M4 0C1.8 0 0 1.8 0 4V54.4H0.1C0.6 56.1 2.1 57.3 3.9 57.3H7.7V60L11 58.1L14.3 60V57.3H49.7H50.8V55.2H49.7C48.7 55.2 47.8 54.4 47.8 53.3C47.8 52.3 48.6 51.4 49.7 51.4H50.8V49.3V0H4ZM6.7 13.3H4C3.3 13.3 2.7 13.5 2.1 13.8V11.6C2.1 10.6 2.9 9.7 4 9.7H6.8V13.3H6.7ZM4 15.4H6.8V35.6H4C3.3 35.6 2.7 35.8 2.1 36.1V17.3C2.1 16.3 2.9 15.4 4 15.4ZM4 37.7H6.8V41.3H4C3.3 41.3 2.7 41.5 2.1 41.8V39.6C2.1 38.6 2.9 37.7 4 37.7ZM46.3 55.2H14.4V53.3H7.8V55.2H4C3 55.2 2.1 54.4 2.1 53.3C2.1 52.3 2.9 51.4 4 51.4H46.3C46 52 45.8 52.6 45.8 53.3C45.8 54 46 54.6 46.3 55.2ZM4 49.3C3.3 49.3 2.7 49.5 2.1 49.8V45.3C2.1 44.3 2.9 43.4 4 43.4H6.8V47.2H8.9V4.3H6.7V7.6H4C3.3 7.6 2.7 7.8 2.1 8.1V4C2.1 3 2.9 2.1 4 2.1H48.8V49.3H4Z" fill="#0095FA"/>
<path d="M33.8 19.3L27.9 15.9L22 19.3V22.5L19.3 24.1V30.9L25.2 34.3L27.9 32.7L30.6 34.3L36.5 30.9V24.1L33.8 22.5V19.3ZM23.5 23.4L27.9 20.9L32.3 23.4V28.5L27.9 31L23.5 28.5V23.4ZM25.1 32.5L20.7 30V25L21.9 24.3V29.4L26.3 31.9L25.1 32.5ZM35 25V30L30.6 32.5L29.4 31.8L33.8 29.3V24.2L35 25ZM27.9 19.1L23.5 21.6V20.2L27.9 17.7L32.3 20.2V21.6L27.9 19.1Z" fill="#0095FA"/>
<path d="M14.5 4.3H11.6V7.2H14.5V4.3Z" fill="#0095FA"/>
<path d="M46.2 4.3H43.3V7.2H46.2V4.3Z" fill="#0095FA"/>
<path d="M14.5 44.3H11.6V47.2H14.5V44.3Z" fill="#0095FA"/>
<path d="M46.2 44.3H43.3V47.2H46.2V44.3Z" fill="#0095FA"/>
</svg>