<svg width="59" height="60" viewBox="0 0 59 60" fill="none" xmlns="http://www.w3.org/2000/svg">
<path d="M0 0V59.6H58.9V0H0ZM56.7 57.4H2.2V2.2H56.7V57.4Z" fill="#0095FA"/>
<path d="M53.5 5.5H5.39999V54.2H53.5V5.5ZM51.3 52H7.59999V7.7H51.3V52Z" fill="#0095FA"/>
<path d="M36.2 23.5L26.3 37.7L21.5 31.8L12.3 46.3H48.7L36.2 23.5ZM21.7 35.6L26.4 41.4L36 27.7L45 44.1H16.3L21.7 35.6Z" fill="#0095FA"/>
<path d="M22.3 26.7C26 26.7 29 23.7 29 20C29 16.3 26 13.3 22.3 13.3C18.6 13.3 15.6 16.3 15.6 20C15.6 23.7 18.7 26.7 22.3 26.7ZM22.3 15.5C24.8 15.5 26.8 17.5 26.8 20C26.8 22.5 24.8 24.5 22.3 24.5C19.8 24.5 17.8 22.5 17.8 20C17.8 17.5 19.9 15.5 22.3 15.5Z" fill="#0095FA"/>
</svg>