<svg width="59" height="60" viewBox="0 0 59 60" fill="none" xmlns="http://www.w3.org/2000/svg">
<path d="M11.7 7.6H8.7V10.6H11.7V7.6Z" fill="#0095FA"/>
<path d="M22.7 7.6H19.7V10.6H22.7V7.6Z" fill="#0095FA"/>
<path d="M33.7 7.6H30.7V10.6H33.7V7.6Z" fill="#0095FA"/>
<path d="M44.7 7.6H41.7V10.6H44.7V7.6Z" fill="#0095FA"/>
<path d="M11.7 43.4H8.7V46.4H11.7V43.4Z" fill="#0095FA"/>
<path d="M22.7 43.4H19.7V46.4H22.7V43.4Z" fill="#0095FA"/>
<path d="M33.7 43.4H30.7V46.4H33.7V43.4Z" fill="#0095FA"/>
<path d="M44.7 43.4H41.7V46.4H44.7V43.4Z" fill="#0095FA"/>
<path d="M53.3 0H0V53.9H53.3V0ZM51.1 51.7H2.2V2.2H51.1V51.7Z" fill="#0095FA"/>
<path d="M18.6 16.4V37.6L37.4 27L18.6 16.4ZM20.8 20.2L32.9 27L20.8 33.8V20.2Z" fill="#0095FA"/>
<path d="M56.8 5.7V57.4H5.7V59.6H59V5.7H56.8Z" fill="#0095FA"/>
</svg>