<svg width="59" height="60" viewBox="0 0 59 60" fill="none" xmlns="http://www.w3.org/2000/svg">
<path d="M47.8 0H11.1C5 0 0 5 0 11.1V48.5C0 54.6 5 59.6 11.1 59.6H47.8C53.9 59.6 58.9 54.6 58.9 48.5V11.1C58.9 5 53.9 0 47.8 0ZM56.7 48.5C56.7 53.4 52.7 57.4 47.8 57.4H11.1C6.2 57.4 2.2 53.4 2.2 48.5V11.1C2.2 6.2 6.2 2.2 11.1 2.2H47.8C52.7 2.2 56.7 6.2 56.7 11.1V48.5Z" fill="#0095FA"/>
<path d="M46.7 35.1C46.5 34.8 46.3 34.6 45.9 34.6C43.6 34.2 41.9 32.2 41.9 29.9C41.9 27.5 43.6 25.6 45.9 25.2C46.2 25.1 46.5 25 46.7 24.7C46.9 24.4 46.9 24.1 46.8 23.8C46.1 21.7 44.9 19.8 43.5 18.1C43.3 17.9 43 17.7 42.7 17.7C42.4 17.7 42.1 17.8 41.9 18.1C40.4 19.9 37.8 20.4 35.8 19.2C33.8 18 32.9 15.6 33.7 13.4C33.8 13.1 33.8 12.8 33.6 12.5C33.4 12.2 33.2 12 32.8 12C31.7 11.8 30.6 11.7 29.5 11.7C28.4 11.7 27.3 11.8 26.2 12C25.9 12.1 25.6 12.3 25.4 12.5C25.2 12.8 25.2 13.1 25.3 13.4C26.1 15.6 25.2 18.1 23.2 19.2C21.2 20.4 18.6 19.9 17.1 18.1C16.9 17.8 16.6 17.7 16.3 17.7C16 17.7 15.7 17.8 15.5 18.1C14.1 19.8 12.9 21.7 12.2 23.8C12.1 24.1 12.1 24.4 12.3 24.7C12.5 25 12.7 25.2 13.1 25.2C15.4 25.6 17.1 27.6 17.1 29.9C17.1 32.3 15.4 34.2 13.1 34.6C12.8 34.7 12.5 34.8 12.3 35.1C12 35.4 12 35.7 12.1 36C12.8 38.1 14 40 15.4 41.7C15.6 41.9 15.9 42.1 16.2 42.1C16.5 42.1 16.8 42 17 41.7C18.5 39.9 21.1 39.4 23.1 40.6C25.1 41.8 26 44.2 25.2 46.4C25.1 46.7 25.1 47 25.3 47.3C25.5 47.6 25.7 47.8 26.1 47.8C27.2 48 28.3 48.1 29.4 48.1C30.5 48.1 31.6 48 32.7 47.8C33 47.7 33.3 47.5 33.5 47.3C33.7 47 33.7 46.7 33.6 46.4C32.8 44.2 33.7 41.7 35.7 40.6C37.7 39.4 40.3 39.9 41.8 41.7C42 42 42.3 42.1 42.6 42.1C42.9 42.1 43.2 42 43.4 41.7C44.8 40 46 38.1 46.7 36C46.9 35.7 46.9 35.4 46.7 35.1ZM42.6 39.4C40.4 37.6 37.2 37.3 34.6 38.8C32 40.3 30.7 43.2 31.2 46C30 46.1 28.9 46.1 27.7 46C28.2 43.2 26.9 40.3 24.3 38.8C21.7 37.3 18.6 37.6 16.3 39.4C15.6 38.5 15 37.5 14.6 36.4C17.3 35.4 19.1 32.8 19.1 29.8C19.1 26.8 17.3 24.2 14.6 23.2C15.1 22.1 15.6 21.1 16.3 20.2C18.5 22 21.7 22.3 24.3 20.8C26.9 19.3 28.2 16.4 27.7 13.6C28.9 13.5 30 13.5 31.2 13.6C30.7 16.4 32.1 19.3 34.6 20.8C37.2 22.3 40.3 22 42.6 20.2C43.3 21.1 43.9 22.1 44.3 23.2C41.6 24.2 39.8 26.8 39.8 29.8C39.8 32.8 41.6 35.4 44.3 36.4C43.8 37.4 43.3 38.4 42.6 39.4Z" fill="#0095FA"/>
<path d="M29.5 26.1C27.4 26.1 25.8 27.8 25.8 29.8C25.8 31.8 27.5 33.5 29.5 33.5C31.5 33.5 33.2 31.8 33.2 29.8C33.2 27.8 31.5 26.1 29.5 26.1Z" fill="#0095FA"/>
<path d="M10.9 45.3C8.9 45.3 7.2 46.9 7.2 49C7.2 51 8.8 52.7 10.9 52.7C12.9 52.7 14.6 51.1 14.6 49C14.6 46.9 12.9 45.3 10.9 45.3ZM12.1 49.5C12.3 49.9 12.5 50.2 12.7 50.7C12.2 50.6 11.8 50.4 11.5 50.1C11.3 50 11.1 49.8 10.9 49.7C10.7 49.8 10.5 50 10.3 50.1C9.9 50.3 9.6 50.5 9.1 50.7C9.2 50.2 9.4 49.8 9.7 49.5C9.8 49.3 10 49.1 10.1 48.9C10 48.7 9.8 48.5 9.7 48.3C9.5 47.9 9.3 47.6 9.1 47.1C9.6 47.2 10 47.4 10.3 47.7C10.5 47.8 10.7 48 10.9 48.1C11.1 48 11.3 47.8 11.5 47.7C11.9 47.5 12.2 47.3 12.7 47.1C12.6 47.6 12.4 48 12.1 48.3C12 48.5 11.8 48.7 11.7 48.9C11.9 49.1 12 49.3 12.1 49.5Z" fill="#0095FA"/>
<path d="M48 45.3C46 45.3 44.3 46.9 44.3 49C44.3 51 45.9 52.7 48 52.7C50 52.7 51.7 51.1 51.7 49C51.7 46.9 50 45.3 48 45.3ZM49.2 49.5C49.4 49.9 49.6 50.2 49.8 50.7C49.3 50.6 48.9 50.4 48.6 50.1C48.4 50 48.2 49.8 48 49.7C47.8 49.8 47.6 50 47.4 50.1C47 50.3 46.7 50.5 46.2 50.7C46.3 50.2 46.5 49.8 46.8 49.5C46.9 49.3 47.1 49.1 47.2 48.9C47.1 48.7 46.9 48.5 46.8 48.3C46.6 47.9 46.4 47.6 46.2 47.1C46.7 47.2 47.1 47.4 47.4 47.7C47.6 47.8 47.8 48 48 48.1C48.2 48 48.4 47.8 48.6 47.7C49 47.5 49.3 47.3 49.8 47.1C49.7 47.6 49.5 48 49.2 48.3C49.1 48.5 48.9 48.7 48.8 48.9C49 49.1 49.1 49.3 49.2 49.5Z" fill="#0095FA"/>
<path d="M10.9 14.3C12.9 14.3 14.6 12.7 14.6 10.6C14.6 8.59999 13 6.89999 10.9 6.89999C8.9 6.89999 7.2 8.49999 7.2 10.6C7.3 12.7 8.9 14.3 10.9 14.3ZM9.7 10.1C9.5 9.79999 9.3 9.39999 9.1 8.89999C9.6 8.99999 10 9.19999 10.4 9.39999C10.6 9.49999 10.8 9.69999 11 9.79999C11.2 9.69999 11.4 9.49999 11.6 9.39999C12 9.19999 12.3 8.99999 12.8 8.79999C12.7 9.29999 12.5 9.69999 12.2 9.99999C12.1 10.2 11.9 10.4 11.8 10.6C11.9 10.8 12.1 11 12.2 11.2C12.4 11.6 12.6 11.9 12.8 12.4C12.3 12.3 11.9 12.1 11.6 11.8C11.4 11.7 11.2 11.5 11 11.4C10.8 11.5 10.6 11.7 10.4 11.8C10 12 9.7 12.2 9.2 12.4C9.3 11.9 9.5 11.5 9.8 11.2C9.9 11 10.1 10.8 10.2 10.6C10 10.5 9.8 10.3 9.7 10.1Z" fill="#0095FA"/>
<path d="M48 7C46 7 44.3 8.6 44.3 10.7C44.3 12.7 45.9 14.4 48 14.4C50 14.4 51.7 12.8 51.7 10.7C51.7 8.6 50 7 48 7ZM49.2 11.2C49.4 11.6 49.6 11.9 49.8 12.4C49.3 12.3 48.9 12.1 48.6 11.8C48.4 11.7 48.2 11.5 48 11.4C47.8 11.5 47.6 11.7 47.4 11.8C47 12 46.7 12.2 46.2 12.4C46.3 11.9 46.5 11.5 46.8 11.2C46.9 11 47.1 10.8 47.2 10.6C47.1 10.4 46.9 10.2 46.8 10C46.6 9.6 46.4 9.3 46.2 8.8C46.7 8.9 47.1 9.1 47.4 9.4C47.6 9.5 47.8 9.7 48 9.8C48.2 9.7 48.4 9.5 48.6 9.4C49 9.2 49.3 9 49.8 8.8C49.7 9.3 49.5 9.7 49.2 10C49.1 10.2 48.9 10.4 48.8 10.6C49 10.8 49.1 11 49.2 11.2Z" fill="#0095FA"/>
</svg>