<svg
   width="59"
   height="60"
   viewBox="0 0 59 60"
   fill="none"
   xmlns:svg="http://www.w3.org/2000/svg">
  <path
     fill="#0095fa"
     d="m 56.7,48.5 c 0,-12.131492 0,-24.262984 0,-36.394477 C 57.223,7.3582851 53.522305,2.6187708 48.707446,2.2461182 36.509716,2.1391784 24.305691,2.230248 12.105523,2.2 7.3582851,1.6769999 2.6187708,5.377695 2.2461182,10.192554 2.1388922,22.623608 2.2304595,35.060982 2.2,47.494477 1.6769999,52.241715 5.377695,56.981229 10.192554,57.35388 22.446146,57.46083 34.706034,57.36975 46.962064,57.4 51.98822,57.925631 56.844031,53.588885 56.7,48.5 Z M 47.8,0 c 5.74689,-0.10407222 10.890671,4.792976 11.085471,10.531467 0.03387,12.376495 0.0049,24.753793 0.01453,37.130597 0.530829,5.9943 -4.490871,11.76007 -10.531467,11.923407 C 36.225371,59.61928 24.081408,59.590383 11.937936,59.6 5.9436357,60.130829 0.17786605,55.109129 0.01452942,49.068533 -0.01934096,36.692038 0.00966251,24.31474 0,11.937936 -0.53082933,5.9436357 4.4908705,0.17786605 10.531467,0.01452942 22.953941,-0.01928368 35.377217,0.00961995 47.8,0 Z" />
  <path
     fill="#0095fa"
     d="m 32.191877,32.29946 h 4e-6 c 0,-7.293957 0,-14.587914 0,-21.88187 C 32.890269,7.2790565 27.72062,6.1839223 27.00549,9.2730979 26.8816,16.942613 26.98751,24.624986 26.95226,32.29946 24.242922,29.8664 21.533584,27.43334 18.824245,25.00028 c -1.653859,-2.565478 -6.456101,-0.30707 -4.539406,2.510191 5.025229,4.669652 10.202973,9.185813 15.287228,13.796062 4.817586,-4.326366 9.635172,-8.652732 14.452758,-12.979098 3.00314,-1.678803 -0.125272,-5.943542 -2.795207,-4.076536 -3.075627,2.605258 -6.014916,5.378317 -9.037741,8.048561 z" />
  <path
     fill="#0095fa"
     d="m 11.233406,35.626659 c -1.13699,-0.01922 -2.311602,0.730712 -2.5665851,1.878531 -0.1228691,2.618716 -0.018755,5.250133 -0.053226,7.873795 -0.100388,1.690635 -0.1002269,4.030322 2.0918308,4.315921 11.4478,0.11128 22.904924,0.01612 34.35632,0.0478 1.917157,-0.08224 4.726981,0.551063 5.415566,-1.878531 0.12329,-3.065592 0.01844,-6.143949 0.05323,-9.214493 0.698388,-3.138533 -4.471261,-4.233667 -5.186391,-1.144492 -0.12284,2.504842 -0.01879,5.022378 -0.05323,7.532166 -10.479235,0 -20.958471,0 -31.437706,0 0,-1.738188 0,-3.476376 0,-5.214563 0.227485,-1.830397 -0.243408,-4.308667 -2.619809,-4.196134 z" />
</svg>
