<?xml version="1.0" encoding="utf-8"?>
<!-- Generator: Adobe Illustrator 23.1.1, SVG Export Plug-In . SVG Version: 6.00 Build 0)  -->
<svg version="1.1" id="Calque_1" xmlns="http://www.w3.org/2000/svg" xmlns:xlink="http://www.w3.org/1999/xlink" x="0px" y="0px"
	 viewBox="0 0 354 404" style="enable-background:new 0 0 354 404;" xml:space="preserve">
<style type="text/css">
	.st0{fill:#FFFFFF;}
	.st1{fill:#999999;}
</style>
<g id="Calque_3">
	<path class="st0" d="M354,2.04c0-0.04,0-0.08,0-0.11c0-0.02,0-0.05,0-0.07c0-0.02-0.01-0.04-0.01-0.06c0-0.02,0-0.05,0-0.07
		s-0.01-0.05-0.01-0.07c-0.01-0.04-0.02-0.08-0.03-0.12c0-0.01,0-0.03-0.01-0.04c0-0.01,0-0.01,0-0.02s0-0.01-0.01-0.02
		c0-0.01-0.01-0.02-0.01-0.04c-0.01-0.02-0.01-0.05-0.02-0.07c-0.01-0.02-0.02-0.04-0.02-0.06c-0.01-0.04-0.03-0.08-0.05-0.12
		c-0.01-0.02-0.02-0.05-0.03-0.07c-0.01-0.02-0.02-0.04-0.04-0.06c-0.02-0.03-0.04-0.07-0.06-0.1s-0.04-0.07-0.07-0.1
		c-0.02-0.02-0.03-0.05-0.05-0.07c-0.01-0.02-0.03-0.03-0.04-0.05s-0.02-0.03-0.04-0.05c-0.02-0.02-0.04-0.03-0.05-0.05
		c-0.01-0.01-0.02-0.03-0.03-0.04c-0.01-0.01-0.03-0.02-0.04-0.03c-0.02-0.02-0.03-0.04-0.05-0.05c-0.01-0.01-0.03-0.02-0.05-0.04
		c-0.02-0.02-0.03-0.03-0.05-0.05c-0.02-0.02-0.05-0.03-0.07-0.05c-0.03-0.02-0.07-0.05-0.1-0.07c-0.02-0.01-0.03-0.02-0.05-0.03
		c-0.01-0.01-0.03-0.01-0.04-0.02h-0.01c-0.02-0.01-0.04-0.03-0.06-0.04c-0.02-0.01-0.05-0.02-0.08-0.03
		c-0.04-0.02-0.08-0.03-0.11-0.05c-0.02-0.01-0.04-0.02-0.05-0.02c-0.02-0.01-0.05-0.01-0.07-0.02c-0.04-0.01-0.08-0.02-0.12-0.03
		s-0.08-0.02-0.12-0.02c-0.02,0-0.04-0.01-0.07-0.01c-0.02,0-0.05,0-0.07-0.01c-0.02,0-0.04-0.01-0.06-0.01c-0.02,0-0.05,0-0.07,0
		c-0.04,0-0.08,0-0.11,0c-0.02,0-0.05,0-0.07,0s-0.04,0.01-0.07,0.01c-0.02,0-0.05,0-0.07,0c-0.02,0-0.05,0.01-0.07,0.01
		c-0.04,0.01-0.08,0.01-0.11,0.02s-0.05,0.01-0.08,0.01l-68.31,18.26l-2.15-16.33l0,0h-4.03l0,0l2.29,17.37l-39.16,10.46
		l-3.67-27.83l0,0h-4.03l0,0l3.8,28.88l-39.14,10.46l-5.18-39.35l0,0h-4.03l0,0l5.32,40.39l-39.14,10.46l-6.7-50.85l0,0h-4.03l0,0
		l6.83,51.89l-39.13,10.46l-8.21-62.35l0,0h-4.03l0,0l8.35,63.39L67.97,75.83L58.24,1.98l0,0h-4.03l0,0l9.87,74.9L24.94,87.34
		L13.69,1.98l0,0H9.66l0,0l11.38,86.41L1.49,93.61c-1.07,0.29-1.7,1.38-1.42,2.45c0.24,0.89,1.05,1.48,1.94,1.48
		c0.17,0,0.35-0.02,0.52-0.07l19.52-5.22l32.57,78.59l-16.58,9.54c-0.96,0.55-1.29,1.77-0.73,2.73c0.37,0.64,1.04,1,1.73,1
		c0.34,0,0.68-0.09,1-0.27l14.4-8.29v206.68c0,1.1,0.9,2,2,2c1.1,0,2-0.9,2-2V176.82l50.27,65.46l-13.85,13.84
		c-0.78,0.78-0.78,2.05,0,2.83c0.39,0.39,0.9,0.59,1.41,0.59c0.51,0,1.02-0.2,1.41-0.59l13.85-13.84l67.56,51.8l-9.81,16.96
		c-0.55,0.96-0.23,2.18,0.73,2.73c0.32,0.18,0.66,0.27,1,0.27c0.69,0,1.36-0.36,1.73-1l9.79-16.93l78.86,32.64l-4.99,18.58
		c-0.29,1.07,0.35,2.16,1.41,2.45c0.17,0.05,0.35,0.07,0.52,0.07c0.88,0,1.69-0.59,1.93-1.48l4.98-18.55l86.5,11.38l0.26,0.04v-4.04
		l-85.72-11.27l10.5-39.11l74.95,9.86l0.26,0.03v-4.04l-74.17-9.75l10.5-39.11l63.4,8.35l0.26,0.03V251l-62.61-8.24l10.5-39.11
		l52.11,6.86v-4.03l-51.04-6.73l10.5-39.11l40.55,5.34v-4.03l-39.5-5.2l10.5-39.11l29,3.82v-4.03l-27.95-3.68l10.5-39.11l17.45,2.3
		v-4.03l-16.4-2.18L353.93,2.5c0-0.01,0-0.02,0.01-0.03c0-0.01,0-0.02,0.01-0.03c0.01-0.04,0.02-0.08,0.03-0.12
		c0-0.02,0.01-0.05,0.01-0.07s0-0.05,0-0.07c0-0.02,0.01-0.04,0.01-0.06C354,2.09,354,2.06,354,2.04z M314.89,62.16l-11.47-8.79
		l39.24-39.22L314.89,62.16z M292.59,100.7l-20.68-15.85l28.65-28.63l12.3,9.43L292.59,100.7z M270.29,139.25l-29.89-22.92
		l28.65-28.63l21.51,16.5L270.29,139.25z M248,177.79l-39.09-29.98l28.65-28.63l30.72,23.56L248,177.79z M225.7,216.33l-48.31-37.04
		l28.65-28.63l39.93,30.62L225.7,216.33z M172.38,107.68l30.83,40.16l-28.65,28.63l-37.3-48.58L172.38,107.68z M210.99,85.45
		l23.73,30.9l-28.65,28.63l-30.19-39.32L210.99,85.45z M249.61,63.22l16.62,21.65l-28.65,28.63l-23.08-30.06L249.61,63.22z
		 M288.22,41l9.51,12.38l-28.65,28.63L253.11,61.2L288.22,41z M300.58,50.54l-8.87-11.55l48.18-27.73L300.58,50.54z M289.73,35.52
		l-5.53-13.34l53.61-14.33L289.73,35.52z M286.23,37.53l-35.1,20.21l-9.97-24.06l39.14-10.46L286.23,37.53z M247.64,59.74
		l-35.1,20.21l-14.41-34.77l39.14-10.46L247.64,59.74z M209.03,81.97l-35.1,20.21L155.08,56.7l39.14-10.46L209.03,81.97z
		 M170.43,104.19l-35.1,20.21l-23.29-56.2l39.14-10.46L170.43,104.19z M131.82,126.4l-35.1,20.21L68.98,79.7l39.14-10.46
		L131.82,126.4z M133.76,129.9l37.94,49.42l-28.65,28.63l-44.41-57.84L133.76,129.9z M174.54,182.14l49.15,37.68l-20.27,35.05
		l-57.52-44.1L174.54,182.14z M227.12,221.86l57.37,23.75l-10.5,39.11l-67.14-27.79L227.12,221.86z M229.14,218.36l20.28-35.06
		l46.62,19.3l-10.5,39.11L229.14,218.36z M251.45,179.81l20.28-35.06l35.86,14.84l-10.5,39.11L251.45,179.81z M273.74,141.27
		l20.28-35.06l25.11,10.39l-10.5,39.11L273.74,141.27z M296.04,102.72l20.28-35.06l14.37,5.95l-10.5,39.11L296.04,102.72z
		 M318.35,64.16l27.79-48.04l-14.39,53.59L318.35,64.16z M25.94,91.22l39.14-10.46l28.13,67.88l-35.1,20.21L25.94,91.22z
		 M60.03,172.34l35.11-20.21l45.06,58.68l-28.65,28.63L60.03,172.34z M114.38,242.26l28.65-28.63l58.35,44.74l-20.27,35.05
		L114.38,242.26z M184.55,295.46l20.28-35.06l68.11,28.19l-10.5,39.11L184.55,295.46z"/>
	<path class="st1" d="M86.49,372.2l-12.42-8.48l-12.35,11.95c-0.22,0.22-0.29,0.52-0.25,0.8c-1.44-0.97-3.17-1.54-5.03-1.54
		s-3.6,0.57-5.03,1.54c0.05-0.29-0.02-0.59-0.25-0.8l-12.34-11.95l-12.42,8.48c-0.41,0.28-0.52,0.85-0.24,1.26s0.85,0.52,1.26,0.24
		l11.2-7.65l11.28,10.92c0.16,0.15,0.36,0.23,0.57,0.24c-0.31,0.28-0.61,0.58-0.88,0.9l-10.69-6.79l-9.66,11.07
		c-0.33,0.38-0.29,0.95,0.09,1.28c0.17,0.15,0.38,0.22,0.6,0.22c0.25,0,0.51-0.11,0.69-0.31l8.64-9.89l9.32,5.92
		c-0.33,0.61-0.58,1.26-0.77,1.94l-8.85-2.49l-6.83,13.57c-0.23,0.45-0.04,0.99,0.4,1.22c0.13,0.07,0.27,0.1,0.41,0.1
		c0.33,0,0.65-0.18,0.81-0.5l6.15-12.23l7.61,2.14c-0.01,0.18-0.03,0.37-0.03,0.56c0,0.75,0.1,1.48,0.28,2.18l-8.72,0.83
		l-3.99,15.94c-0.12,0.49,0.17,0.98,0.66,1.1c0.07,0.02,0.15,0.03,0.22,0.03c0.41,0,0.78-0.28,0.88-0.69l3.68-14.7l7.91-0.75
		c1.46,2.98,4.52,5.04,8.06,5.04c3.54,0,6.6-2.06,8.06-5.04l7.91,0.75l3.68,14.7c0.1,0.41,0.47,0.69,0.88,0.69
		c0.07,0,0.15-0.01,0.22-0.03c0.49-0.12,0.78-0.62,0.66-1.1l-3.99-15.94l-8.72-0.83c0.18-0.7,0.28-1.43,0.28-2.18
		c0-0.19-0.02-0.37-0.03-0.56l7.61-2.14l6.15,12.23c0.16,0.32,0.48,0.5,0.81,0.5c0.14,0,0.28-0.03,0.41-0.1
		c0.45-0.23,0.63-0.77,0.4-1.22l-6.83-13.57l-8.85,2.49c-0.19-0.68-0.44-1.33-0.77-1.94l9.32-5.92l8.64,9.89
		c0.18,0.21,0.43,0.31,0.69,0.31c0.21,0,0.42-0.07,0.6-0.22c0.38-0.33,0.42-0.9,0.09-1.28l-9.66-11.07l-10.69,6.79
		c-0.27-0.32-0.57-0.62-0.88-0.9c0.21-0.01,0.41-0.09,0.57-0.24l11.28-10.92l11.2,7.65c0.42,0.28,0.98,0.18,1.26-0.24
		C87.01,373.05,86.9,372.48,86.49,372.2z"/>
</g>
</svg>
