<!-- eslint-disable max-len -->
<svg viewBox="0 0 16 16">
    <path d="M11 7.99998C11 7.2636 11.5969 6.66665 12.3333 6.66665C13.0697 6.66665 13.6666 7.2636 13.6666 7.99998C13.6666 8.73636 13.0697 9.33331 12.3333 9.33331C11.5969 9.33331 11 8.73636 11 7.99998Z M6.66671 7.99998C6.66671 7.2636 7.26366 6.66665 8.00004 6.66665C8.73642 6.66665 9.33337 7.2636 9.33337 7.99998C9.33337 8.73636 8.73642 9.33331 8.00004 9.33331C7.26366 9.33331 6.66671 8.73636 6.66671 7.99998Z M3.66666 6.66665C2.93029 6.66665 2.33333 7.2636 2.33333 7.99998C2.33333 8.73636 2.93029 9.33331 3.66667 9.33331C4.40304 9.33331 5 8.73636 5 7.99998C5 7.2636 4.40304 6.66665 3.66666 6.66665Z" />
</svg>
