<!-- eslint-disable max-len -->
<svg viewBox="0 0 16 16">
    <path d="M8.00004 5.00004C7.26366 5.00004 6.66671 4.40309 6.66671 3.66671C6.66671 2.93033 7.26366 2.33337 8.00004 2.33337C8.73642 2.33337 9.33337 2.93033 9.33337 3.66671C9.33337 4.40309 8.73642 5.00004 8.00004 5.00004Z M8.00004 9.33329C7.26366 9.33329 6.66671 8.73634 6.66671 7.99996C6.66671 7.26358 7.26366 6.66663 8.00004 6.66663C8.73642 6.66663 9.33337 7.26358 9.33337 7.99996C9.33337 8.73634 8.73642 9.33329 8.00004 9.33329Z M6.66671 12.3333C6.66671 13.0697 7.26366 13.6667 8.00004 13.6667C8.73642 13.6667 9.33337 13.0697 9.33337 12.3333C9.33337 11.597 8.73642 11 8.00004 11C7.26366 11 6.66671 11.597 6.66671 12.3333Z" />
</svg>
