<!-- eslint-disable max-len -->
<svg viewBox="0 0 16 16">
    <path d="M4.99996 2.33333C4.26359 2.33333 3.66663 2.93028 3.66663 3.66667C3.66663 4.40304 4.26359 5 4.99996 5C5.73633 5 6.33329 4.40304 6.33329 3.66667C6.33329 2.93028 5.73633 2.33333 4.99996 2.33333ZM11 2.33333C10.2636 2.33333 9.66662 2.93028 9.66662 3.66667C9.66662 4.40304 10.2636 5 11 5C11.7363 5 12.3333 4.40304 12.3333 3.66667C12.3333 2.93028 11.7363 2.33333 11 2.33333ZM4.99996 6.66666C4.26359 6.66666 3.66663 7.26361 3.66663 8C3.66663 8.73637 4.26359 9.33333 4.99996 9.33333C5.73633 9.33333 6.33329 8.73637 6.33329 8C6.33329 7.26361 5.73633 6.66666 4.99996 6.66666ZM11 6.66666C10.2636 6.66666 9.66662 7.26361 9.66662 8C9.66662 8.73637 10.2636 9.33333 11 9.33333C11.7363 9.33333 12.3333 8.73637 12.3333 8C12.3333 7.26361 11.7363 6.66666 11 6.66666ZM4.99996 11C4.26359 11 3.66663 11.5969 3.66663 12.3333C3.66663 13.0697 4.26359 13.6666 4.99996 13.6666C5.73633 13.6666 6.33329 13.0697 6.33329 12.3333C6.33329 11.5969 5.73633 11 4.99996 11ZM11 11C10.2636 11 9.66662 11.5969 9.66662 12.3333C9.66662 13.0697 10.2636 13.6666 11 13.6666C11.7363 13.6666 12.3333 13.0697 12.3333 12.3333C12.3333 11.5969 11.7363 11 11 11Z" />
</svg>
