<!-- eslint-disable max-len -->
<svg viewBox="0 0 16 16">
    <path d="M8.00004 5.00004C7.26366 5.00004 6.66671 4.40309 6.66671 3.66671C6.66671 2.93033 7.26366 2.33337 8.00004 2.33337C8.73642 2.33337 9.33337 2.93033 9.33337 3.66671C9.33337 4.40309 8.73642 5.00004 8.00004 5.00004Z M8.00004 9.33329C7.26366 9.33329 6.66671 8.73634 6.66671 7.99996C6.66671 7.26358 7.26366 6.66663 8.00004 6.66663C8.73642 6.66663 9.33337 7.26358 9.33337 7.99996C9.33337 8.73634 8.73642 9.33329 8.00004 9.33329Z M6.66671 12.3333C6.66671 13.0697 7.26366 13.6667 8.00004 13.6667C8.73642 13.6667 9.33337 13.0697 9.33337 12.3333C9.33337 11.597 8.73642 11 8.00004 11C7.26366 11 6.66671 11.597 6.66671 12.3333Z M3.66671 5.00004C2.93033 5.00004 2.33337 4.40309 2.33337 3.66671C2.33337 2.93033 2.93033 2.33337 3.66671 2.33337C4.40309 2.33337 5.00004 2.93033 5.00004 3.66671C5.00004 4.40309 4.40309 5.00004 3.66671 5.00004Z M3.66671 9.33329C2.93033 9.33329 2.33337 8.73634 2.33337 7.99996C2.33337 7.26358 2.93033 6.66663 3.66671 6.66663C4.40309 6.66663 5.00004 7.26358 5.00004 7.99996C5.00004 8.73634 4.40309 9.33329 3.66671 9.33329Z M2.33337 12.3333C2.33337 13.0697 2.93033 13.6667 3.66671 13.6667C4.40309 13.6667 5.00004 13.0697 5.00004 12.3333C5.00004 11.597 4.40309 11 3.66671 11C2.93033 11 2.33337 11.597 2.33337 12.3333Z M12.3334 5.00004C11.597 5.00004 11 4.40309 11 3.66671C11 2.93033 11.597 2.33337 12.3334 2.33337C13.0698 2.33337 13.6667 2.93033 13.6667 3.66671C13.6667 4.40309 13.0698 5.00004 12.3334 5.00004Z M12.3334 9.33329C11.597 9.33329 11 8.73634 11 7.99996C11 7.26358 11.597 6.66663 12.3334 6.66663C13.0698 6.66663 13.6667 7.26358 13.6667 7.99996C13.6667 8.73634 13.0698 9.33329 12.3334 9.33329Z M11 12.3333C11 13.0697 11.597 13.6667 12.3334 13.6667C13.0698 13.6667 13.6667 13.0697 13.6667 12.3333C13.6667 11.597 13.0698 11 12.3334 11C11.597 11 11 11.597 11 12.3333Z" />
</svg>
