<!-- eslint-disable max-len -->
<svg viewBox="0 0 16 16">
    <path d="M5.41953 2.72822C5.32032 2.82571 5.21738 3.02053 5.21738 3.42677V3.52646H11.1014V12H8.66667V13.6667H16V15H0V13.6667H7.33333V12H5.01448C4.4542 12 4 11.5537 4 11.0031V3.42677C4 2.83613 4.15068 2.28329 4.55871 1.88234C4.96675 1.48138 5.52935 1.33332 6.13042 1.33332L13.3333 1.33331L13.3333 10.0062L12.1159 11.0031L12.1159 2.52957L6.13042 2.52958C5.717 2.52958 5.51874 2.63073 5.41953 2.72822ZM9.02168 7.12224V5.72037L7.75356 5.02179L6.48548 5.72037V7.12224L7.75356 7.82554L9.02168 7.12224ZM5.21738 9.34755V10.38H10.2898V9.34755C10.2898 8.88916 8.97855 8.51088 7.75356 8.51088C6.52857 8.51088 5.21738 8.88916 5.21738 9.34755Z" />
</svg>
