<!-- eslint-disable max-len -->
<svg viewBox="0 0 16 16">
    <path d="M3.6 3.86666C3.6 3.32331 3.66864 2.99608 3.79903 2.86569C3.92942 2.7353 4.12333 2.60001 4.66668 2.60001L13 2.6V14L14.6001 12.5V1L4.66668 1.00001C3.8767 1.00001 3.20394 1.19804 2.66766 1.73431C2.13138 2.27059 2 3.07668 2 3.86666L2 13.6667C2 14.403 2.59695 15 3.33333 15L11.2667 15L11.2667 4L3.6 4V3.86666ZM8.6 6.93435V8.80935L7 9.75001L5.4 8.80935V6.93435L7 6L8.6 6.93435ZM7 10.5C8.61 10.5 10 11.3869 10 12L10 13.1667L4 13.1667L4 12C4 11.3869 5.39 10.5 7 10.5Z" />
</svg>
