<!-- eslint-disable max-len -->
<svg viewBox="0 0 16 16">
    <path d="M14 2.66667C14 2.29848 13.7286 2 13.3939 2H4.90907C4.57435 2 4.30301 2.29848 4.30301 2.66667C4.30301 3.03486 4.57435 3.33333 4.90907 3.33333H13.3939C13.7286 3.33333 14 3.03486 14 2.66667ZM14 5.33333C14 4.96514 13.7286 4.66667 13.3939 4.66667H1.99998C1.66526 4.66667 1.39392 4.96514 1.39392 5.33333C1.39392 5.70152 1.66526 6 1.99998 6H13.3939C13.7286 6 14 5.70152 14 5.33333ZM14 8C14 7.63181 13.7286 7.33333 13.3939 7.33333H4.90907C4.57435 7.33333 4.30301 7.63181 4.30301 8C4.30301 8.36819 4.57435 8.66667 4.90907 8.66667H13.3939C13.7286 8.66667 14 8.36819 14 8ZM14 10.6667C14 10.2985 13.7286 10 13.3939 10H1.99998C1.66526 10 1.39392 10.2985 1.39392 10.6667C1.39392 11.0349 1.66526 11.3333 1.99998 11.3333H13.3939C13.7286 11.3333 14 11.0349 14 10.6667ZM14 13.3333C14 12.9651 13.7286 12.6667 13.3939 12.6667H4.90907C4.57435 12.6667 4.30301 12.9651 4.30301 13.3333C4.30301 13.7015 4.57435 14 4.90907 14H13.3939C13.7286 14 14 13.7015 14 13.3333Z" />
</svg>
