<!-- eslint-disable max-len -->
<svg viewBox="0 0 16 16">
    <path d="M2 2.66667C2 2.29848 2.27134 2 2.60606 2H11.0909C11.4256 2 11.697 2.29848 11.697 2.66667C11.697 3.03486 11.4256 3.33333 11.0909 3.33333H2.60606C2.27134 3.33333 2 3.03486 2 2.66667ZM2 5.33333C2 4.96514 2.27134 4.66667 2.60606 4.66667H14.0606C14.3953 4.66667 14.6667 4.96514 14.6667 5.33333C14.6667 5.70152 14.3953 6 14.0606 6H2.60606C2.27134 6 2 5.70152 2 5.33333ZM2 8C2 7.63181 2.27134 7.33333 2.60606 7.33333H11.0909C11.4256 7.33333 11.697 7.63181 11.697 8C11.697 8.36819 11.4256 8.66667 11.0909 8.66667H2.60606C2.27134 8.66667 2 8.36819 2 8ZM2 10.6667C2 10.2985 2.27134 10 2.60606 10H14.0606C14.3953 10 14.6667 10.2985 14.6667 10.6667C14.6667 11.0349 14.3953 11.3333 14.0606 11.3333H2.60606C2.27134 11.3333 2 11.0349 2 10.6667ZM2 13.3333C2 12.9651 2.27134 12.6667 2.60606 12.6667H11.0909C11.4256 12.6667 11.697 12.9651 11.697 13.3333C11.697 13.7015 11.4256 14 11.0909 14H2.60606C2.27134 14 2 13.7015 2 13.3333Z" />
</svg>
