<!-- eslint-disable max-len -->
<svg viewBox="0 0 16 16">
    <path d="M3.20003 2.66667C3.20003 2.29848 3.48657 2 3.84004 2H11.5199C11.8733 2 12.1599 2.29848 12.1599 2.66667C12.1599 3.03486 11.8733 3.33333 11.5199 3.33333H3.84004C3.48657 3.33333 3.20003 3.03486 3.20003 2.66667ZM0.666626 5.33333C0.666626 4.96514 0.95317 4.66667 1.30664 4.66667H14.6933C15.0467 4.66667 15.3333 4.96514 15.3333 5.33333C15.3333 5.70152 15.0467 6 14.6933 6H1.30664C0.95317 6 0.666626 5.70152 0.666626 5.33333ZM3.20003 8C3.20003 7.63181 3.48657 7.33333 3.84004 7.33333H11.5199C11.8733 7.33333 12.1599 7.63181 12.1599 8C12.1599 8.36819 11.8733 8.66667 11.5199 8.66667H3.84004C3.48657 8.66667 3.20003 8.36819 3.20003 8ZM0.666626 10.6667C0.666626 10.2985 0.95317 10 1.30664 10H14.6933C15.0467 10 15.3333 10.2985 15.3333 10.6667C15.3333 11.0349 15.0467 11.3333 14.6933 11.3333H1.30664C0.95317 11.3333 0.666626 11.0349 0.666626 10.6667ZM3.20003 13.3333C3.20003 12.9651 3.48657 12.6667 3.84004 12.6667H11.5199C11.8733 12.6667 12.1599 12.9651 12.1599 13.3333C12.1599 13.7015 11.8733 14 11.5199 14H3.84004C3.48657 14 3.20003 13.7015 3.20003 13.3333Z" />
</svg>
