<!-- eslint-disable max-len -->
<svg viewBox="0 0 16 16">
    <path d="M1.86682 15.1982C1.86682 14.7563 2.22499 14.3982 2.66682 14.3982L13.3335 14.3982C13.7753 14.3982 14.1335 14.7563 14.1335 15.1982C14.1335 15.64 13.7753 15.9982 13.3335 15.9982H2.66682C2.22499 15.9982 1.86682 15.64 1.86682 15.1982Z M12.5602 7.43441C12.2478 7.12199 11.7413 7.12199 11.4289 7.43441L8.79454 10.0687V1.33333C8.79454 0.891497 8.43637 0.533325 7.99454 0.533325C7.55271 0.533325 7.19454 0.891497 7.19454 1.33333V10.0687L4.56023 7.43441C4.24781 7.12199 3.74127 7.12199 3.42886 7.43441C3.11643 7.74683 3.11643 8.25336 3.42886 8.56578L7.99454 13.1315L12.5602 8.56578C12.8726 8.25336 12.8726 7.74683 12.5602 7.43441Z" />
</svg>
