<!-- eslint-disable max-len -->
<svg viewBox="0 0 16 16">
    <path d="M8.66656 6C8.29838 6 7.9999 6.29848 7.9999 6.66667C7.9999 7.03486 8.29837 7.33333 8.66656 7.33333L13.3332 7.33334V2.66667C13.3332 2.29848 13.0348 2 12.6666 2C12.2984 2 11.9999 2.29848 11.9999 2.66667L11.9999 4.45948C11.7061 4.0946 11.37 3.77003 10.9849 3.49999C10.2184 2.96253 9.29366 2.66671 8.20254 2.66671C5.17212 2.66671 2.66663 5.02811 2.66663 8.00004C2.66663 10.972 5.17212 13.3334 8.20254 13.3334C10.4576 13.3334 12.4124 12.0316 13.2732 10.1432C13.426 9.80823 13.2782 9.41283 12.9432 9.2601C12.6082 9.10737 12.2128 9.25515 12.06 9.59017C11.4181 10.9982 9.94085 12 8.20254 12C5.85454 12 3.99996 10.1828 3.99996 8.00004C3.99996 5.81732 5.85454 4.00004 8.20254 4.00004C9.03877 4.00004 9.69227 4.22208 10.2194 4.59169C10.6951 4.92525 11.0963 5.3993 11.4324 6.00001L8.66656 6Z" />
</svg>
