<svg width="14" height="16" viewBox="0 0 14 16" fill="none" xmlns="http://www.w3.org/2000/svg">
<path d="M0.866699 15.1982C0.866699 14.7563 1.22487 14.3982 1.6667 14.3982L12.3334 14.3982C12.7752 14.3982 13.1334 14.7563 13.1334 15.1982C13.1334 15.64 12.7752 15.9982 12.3334 15.9982H1.6667C1.22487 15.9982 0.866699 15.64 0.866699 15.1982Z" fill="#535353"/>
<path d="M11.5601 7.43441C11.2477 7.12199 10.7412 7.12199 10.4287 7.43441L7.79442 10.0687V1.33333C7.79442 0.891497 7.43625 0.533325 6.99442 0.533325C6.55259 0.533325 6.19442 0.891497 6.19442 1.33333V10.0687L3.5601 7.43441C3.24768 7.12199 2.74115 7.12199 2.42873 7.43441C2.11631 7.74683 2.11631 8.25336 2.42873 8.56578L6.99442 13.1315L11.5601 8.56578C11.8725 8.25336 11.8725 7.74683 11.5601 7.43441Z" fill="#535353"/>
</svg>
