<svg width="14" height="16" viewBox="0 0 14 16" fill="none" xmlns="http://www.w3.org/2000/svg">
<path d="M13.1334 0.800001C13.1334 1.24183 12.7752 1.6 12.3334 1.6L1.6667 1.6C1.22487 1.6 0.866699 1.24183 0.866699 0.8C0.866699 0.358172 1.22487 0 1.6667 0H12.3334C12.7752 0 13.1334 0.358173 13.1334 0.800001Z" fill="#535353"/>
<path d="M2.43996 8.56376C2.75238 8.87617 3.25891 8.87617 3.57133 8.56376L6.20565 5.92944V14.6648C6.20565 15.1067 6.56382 15.4648 7.00565 15.4648C7.44747 15.4648 7.80565 15.1067 7.80565 14.6648V5.92944L10.44 8.56376C10.7524 8.87617 11.2589 8.87617 11.5713 8.56376C11.8838 8.25134 11.8838 7.7448 11.5713 7.43238L7.00565 2.8667L2.43996 7.43238C2.12754 7.7448 2.12754 8.25134 2.43996 8.56376Z" fill="#535353"/>
</svg>
