<!-- eslint-disable max-len -->
<svg viewBox="0 0 16 16">
    <path d="M5.89904 4.10098C6.21146 4.4134 6.21146 4.91993 5.89904 5.23235L3.13139 8L5.89904 10.7677C6.21146 11.0801 6.21146 11.5866 5.89904 11.899C5.58662 12.2114 5.08009 12.2114 4.76767 11.899L0.868652 8L4.76767 4.10098C5.08009 3.78856 5.58662 3.78856 5.89904 4.10098Z M7.93139 7.2L9.89904 5.23235C10.2115 4.91993 10.2115 4.4134 9.89904 4.10098C9.58662 3.78856 9.08009 3.78856 8.76767 4.10098L4.86865 8L8.76767 11.899C9.08009 12.2114 9.58662 12.2114 9.89904 11.899C10.2115 11.5866 10.2115 11.0801 9.89904 10.7677L7.93139 8.8H11.002L13.4343 11.2324C13.7468 11.5448 14.2533 11.5448 14.5657 11.2324C14.8781 10.9199 14.8781 10.4134 14.5657 10.101L11.6647 7.2H7.93139Z" />
</svg>
