<!-- eslint-disable max-len -->
<svg viewBox="0 0 16 16">
    <path d="M14.1335 0.800001C14.1335 1.24183 13.7753 1.6 13.3335 1.6L2.66682 1.6C2.22499 1.6 1.86682 1.24183 1.86682 0.8C1.86682 0.358172 2.22499 0 2.66682 0H13.3335C13.7753 0 14.1335 0.358173 14.1335 0.800001Z M3.44008 8.56376C3.7525 8.87618 4.25904 8.87618 4.57146 8.56376L7.20577 5.92944V14.6648C7.20577 15.1067 7.56394 15.4648 8.00577 15.4648C8.4476 15.4648 8.80577 15.1067 8.80577 14.6648V5.92944L11.4401 8.56376C11.7525 8.87618 12.259 8.87618 12.5715 8.56376C12.8839 8.25134 12.8839 7.7448 12.5715 7.43238L8.00577 2.8667L3.44008 7.43238C3.12766 7.7448 3.12766 8.25134 3.44008 8.56376Z" />
</svg>
