<!-- eslint-disable max-len -->
<svg viewBox="0 0 16 16">
    <path d="M8.00004 0.517578L3.75762 3.13525V6.00222L1.33337 7.49803V12.5666L5.5758 15.1842L8.00004 13.6884L10.4156 15.1789L14.6667 12.7015V7.62268L12.2425 6.12687V3.13525L8.00004 0.517578ZM3.75762 7.45589V10.9564L7.00491 12.8488L5.5758 13.7306L2.5455 11.8608V8.20379L3.75762 7.45589ZM8.99518 12.8488L12.2425 10.9564V7.58054L13.4546 8.32844V11.9752L10.433 13.736L8.99518 12.8488ZM11.0303 5.37899L8.00877 3.51461L4.96974 5.28559V3.84101L8.00004 1.97125L11.0303 3.84101V5.37899ZM4.96974 10.2301V6.71832L7.99132 4.95751L11.0303 6.83266V10.2301L8.00004 11.996L4.96974 10.2301Z" />
</svg>
