<!-- eslint-disable max-len -->
<svg viewBox="0 0 16 16">
    <path d="M10.8059 7.78666C11.6345 7.32951 12.1579 6.50666 12.1579 5.43999C12.1579 3.77904 10.8495 2.66666 8.30534 2.66666H3.33337V13.3333H8.59609C11.2711 13.3333 12.6667 12.2667 12.6667 10.4228C12.6667 9.08189 11.9398 8.16761 10.8059 7.78666ZM8.01458 4.5257C9.16307 4.5257 9.7882 4.93713 9.7882 5.77523C9.7882 6.61332 9.16307 7.03999 8.01458 7.03999H5.67398V4.5257H8.01458ZM8.42164 11.4743H5.67398V8.83808H8.42164C9.64282 8.83808 10.297 9.26475 10.297 10.1638C10.297 11.0781 9.64282 11.4743 8.42164 11.4743Z" />
</svg>
