<!-- eslint-disable max-len -->
<svg viewBox="0 0 16 16">
    <path d="M5.13795 5.74755L7.33321 3.55228L7.33321 9.94281C7.33321 10.311 7.63169 10.6095 7.99988 10.6095C8.36807 10.6095 8.66654 10.311 8.66654 9.94281L8.66654 3.55228L10.8618 5.74755C11.1222 6.0079 11.5443 6.0079 11.8046 5.74755C12.065 5.4872 12.065 5.06509 11.8046 4.80474L7.99988 1L4.19514 4.80474C3.93479 5.06509 3.93479 5.4872 4.19514 5.74755C4.45549 6.0079 4.8776 6.0079 5.13795 5.74755Z M3.99996 10C3.99996 9.63182 3.70148 9.33334 3.33329 9.33334C2.9651 9.33334 2.66663 9.63182 2.66663 10V12.6667C2.66663 13.0349 2.9651 13.3333 3.33329 13.3333H12.6666C13.0348 13.3333 13.3333 13.0349 13.3333 12.6667V10C13.3333 9.63182 13.0348 9.33334 12.6666 9.33334C12.2984 9.33334 12 9.63182 12 10V12H3.99996V10Z" />
</svg>