<!-- eslint-disable max-len -->
<svg viewBox="0 0 16 16">
    <path d="M8.66663 8.39053L10.8619 6.19527C11.1222 5.93492 11.5443 5.93492 11.8047 6.19527C12.065 6.45562 12.065 6.87773 11.8047 7.13808L7.99996 10.9428L4.19522 7.13808C3.93487 6.87773 3.93487 6.45562 4.19522 6.19527C4.45557 5.93492 4.87768 5.93492 5.13803 6.19527L7.33329 8.39053V2.00001C7.33329 1.63182 7.63177 1.33334 7.99996 1.33334C8.36815 1.33334 8.66663 1.63182 8.66663 2.00001V8.39053Z M3.33329 9.33334C3.70148 9.33334 3.99996 9.63182 3.99996 10V12H12V10C12 9.63182 12.2984 9.33334 12.6666 9.33334C13.0348 9.33334 13.3333 9.63182 13.3333 10V12.6667C13.3333 13.0349 13.0348 13.3333 12.6666 13.3333H3.33329C2.9651 13.3333 2.66663 13.0349 2.66663 12.6667V10C2.66663 9.63182 2.9651 9.33334 3.33329 9.33334Z" />
</svg>
