<!-- eslint-disable max-len -->
<svg viewBox="0 0 16 16">
    <path d="M12.7239 2.33333L9.61931 2.33333C9.25113 2.33333 8.95265 2.03486 8.95265 1.66667C8.95265 1.29848 9.25113 0.999999 9.61932 1H15V6.38071C15 6.7489 14.7015 7.04738 14.3334 7.04738C13.9652 7.04738 13.6667 6.7489 13.6667 6.38071V3.27614L9.14791 7.79492C8.88756 8.05527 8.46545 8.05527 8.2051 7.79492C7.94475 7.53457 7.94475 7.11247 8.2051 6.85212L12.7239 2.33333Z M7.3335 2.667C7.7016 2.667 8 2.9654 8 3.3335C8 3.7016 7.7016 4 7.3335 4H3.99999V12H12V8.6665C12 8.2984 12.2984 8 12.6665 8C13.0346 8 13.333 8.2984 13.333 8.6665V12.6665C13.333 13.0346 13.0346 13.333 12.6665 13.333H3.33349C2.96539 13.333 2.66699 13.0346 2.66699 12.6665V3.3335C2.66699 2.9654 2.96539 2.667 3.33349 2.667H7.3335Z" />
</svg>
