<!-- eslint-disable max-len -->
<svg viewBox="0 0 16 16">
    <path d="M12.0029 4.72537L13.3366 1.75247C13.5342 1.35719 13.374 0.876534 12.9787 0.678893C12.5835 0.481252 12.1028 0.641472 11.9052 1.03675L10.6693 4.01306L12.0029 4.72537Z M11.4107 14.4604C11.302 14.8549 10.9774 15.1524 10.575 15.2264C9.1741 15.4839 7.37527 15.2436 5.78609 14.7093C4.21685 14.1818 2.59113 13.2796 1.73062 11.989C1.56085 11.7344 1.50859 11.4191 1.58713 11.1233C1.66567 10.8275 1.86745 10.5797 2.14118 10.4428C2.34917 10.3388 2.53774 10.2506 2.71549 10.1674C3.19743 9.94179 3.59972 9.75349 4.09343 9.39003C4.74074 8.91351 5.54141 8.12096 6.58986 6.5571C6.95983 6.00409 7.33493 5.42246 7.88715 5.03269C8.57486 4.54727 9.35503 4.4872 10.2195 4.72537C11.1969 4.99467 11.9564 5.7186 12.4103 6.51774C12.8642 7.31687 13.097 8.33999 12.8277 9.3174L11.4107 14.4604ZM3.59559 10.93C3.26192 11.096 2.93998 11.2363 2.61833 11.3971C2.81332 11.6896 3.0674 11.9651 3.3664 12.221C3.73002 12.5323 4.16009 12.8146 4.63113 13.0632C4.9952 12.7341 5.28357 12.3214 5.55046 11.913C5.88371 11.403 6.15236 10.9055 6.26456 10.6909C6.36366 10.5013 6.51465 10.3052 6.76836 10.432C6.93306 10.5144 6.99983 10.7147 6.91748 10.8794C6.67647 11.3603 6.40277 11.8277 6.10867 12.2778C5.86116 12.6565 5.57713 13.0491 5.27092 13.3698C6.04355 13.7057 6.88686 13.9568 7.70801 14.1059C7.8111 14.0023 7.91933 13.8615 8.02928 13.6847C8.21433 13.3872 8.3807 13.0268 8.52126 12.6713C8.66118 12.3175 8.77205 11.9776 8.84804 11.7256C8.88882 11.5903 8.92817 11.4544 8.96295 11.3174C9.00764 11.1388 9.18895 11.029 9.36757 11.0737C9.54622 11.1183 9.65483 11.2994 9.61017 11.478C9.57305 11.6257 9.53045 11.7722 9.48649 11.918C9.24683 12.713 8.95704 13.5308 8.4774 14.2162C9.17168 14.2884 9.82696 14.2791 10.3821 14.177L11.7991 9.034C11.8178 8.96594 11.833 8.89689 11.8447 8.82709L7.53784 7.05913C6.49284 8.617 5.30262 10.0808 3.59559 10.93ZM9.93607 5.75398C9.10353 5.5246 8.62911 5.71365 8.19648 6.17617L11.7407 7.63109C11.4616 6.76191 10.7741 5.98486 9.93607 5.75398Z M14.5036 14.177C14.8719 14.177 15.1704 13.8785 15.1704 13.5102C15.1704 13.1419 14.8719 12.8434 14.5036 12.8434C14.1353 12.8434 13.8368 13.1419 13.8368 13.5102C13.8368 13.8785 14.1353 14.177 14.5036 14.177Z" />
</svg>
