<!-- eslint-disable max-len -->
<svg viewBox="0 0 16 16">
    <path d="M8 0.666658C5.61223 0.666658 3.6159 1.15719 2.20094 2.21559C0.755849 3.29653 0 4.90803 0 6.93961C0 9.1735 0.928623 10.8546 2.60176 11.907L2.2072 14.5689C2.16914 14.8257 2.28363 15.0813 2.50061 15.2238C2.71759 15.3664 2.9976 15.37 3.2182 15.2331L6.59121 13.1399C7.04735 13.1835 7.51764 13.2009 8 13.2009C10.3818 13.2009 12.3777 12.7102 13.794 11.6522C15.2402 10.5718 16 8.9606 16 6.92797C16 4.89516 15.24 3.28647 13.7932 2.20894C12.3768 1.15413 10.381 0.666658 8 0.666658ZM1.33333 6.93961C1.33333 5.27244 1.93339 4.0808 2.99958 3.28328C4.0959 2.46322 5.76624 1.99999 8 1.99999C10.2278 1.99999 11.8986 2.46047 12.9968 3.2783C14.0644 4.07341 14.6667 5.26204 14.6667 6.92797C14.6667 8.5941 14.0642 9.78603 12.996 10.5841C11.8977 11.4045 10.227 11.8676 8 11.8676C7.47065 11.8676 6.97562 11.845 6.51158 11.7907C6.36185 11.7732 6.21059 11.8069 6.0825 11.8864L3.73696 13.342L3.98701 11.655C4.02837 11.3759 3.88963 11.1011 3.64056 10.9686C2.16102 10.1818 1.33333 8.87834 1.33333 6.93961Z M10 7.00496C10 6.44991 10.4472 5.99996 10.9988 5.99996C11.5505 5.99996 11.9977 6.44991 11.9977 7.00496C11.9977 7.56001 11.5505 8.00996 10.9988 8.00996C10.4472 8.00996 10 7.56001 10 7.00496Z M7 7.00497C7 6.44992 7.44719 5.99997 7.99883 5.99997C8.55047 5.99997 8.99766 6.44992 8.99766 7.00497C8.99766 7.56002 8.55047 8.00997 7.99883 8.00997C7.44719 8.00997 7 7.56002 7 7.00497Z M4.99883 5.99997C4.44719 5.99997 4 6.44992 4 7.00497C4 7.56002 4.44719 8.00997 4.99883 8.00997C5.55047 8.00997 5.99766 7.56002 5.99766 7.00497C5.99766 6.44992 5.55047 5.99997 4.99883 5.99997Z" />
</svg>
