<!-- eslint-disable max-len -->
<svg viewBox="0 0 16 16">
    <path d="M9.66667 2.99998H11V4.33298H9.66667V2.99998Z M11 5.99998H9.66667V7.33298H11V5.99998Z M11 8.99998H9.66667V10.333H11V8.99998Z M6 0.499939L15 0.499939V14.6666H16V16H0V14.6666H1V5.49994H6V0.499939ZM7 5.99994H8V14.6666H9.66667V12H11V14.6666H13.5V13.333H12.5V12H13.5V10.333H12.5V8.99998H13.5V7.33298H12.5V5.99998H13.5V4.33298H12.5V2.99998H13.5V1.99994H7V2.99998H8V4.33298H7V5.99994ZM4 6.99994H2V8.9999H4V6.99994ZM5 6.99994V8.9999H7V6.99994H5ZM4 9.9999H2V12H4V9.9999ZM4 12.9999H2V14.6666H4V12.9999ZM5 14.6666H7V12.9999H5V14.6666ZM7 9.9999H5V12H7V9.9999Z" />
</svg>
