<!-- eslint-disable max-len -->
<svg viewBox="0 0 16 16">
    <path d="M1.33337 4.20005C1.33337 3.75822 1.69155 3.40005 2.13337 3.40005H13.8667C14.3085 3.40005 14.6667 3.75822 14.6667 4.20005C14.6667 4.64188 14.3085 5.00005 13.8667 5.00005H2.13337C1.69155 5.00005 1.33337 4.64188 1.33337 4.20005Z M1.33337 8.00003C1.33337 7.5582 1.69155 7.20003 2.13337 7.20003H13.8667C14.3085 7.20003 14.6667 7.5582 14.6667 8.00003C14.6667 8.44185 14.3085 8.80003 13.8667 8.80003H2.13337C1.69155 8.80003 1.33337 8.44185 1.33337 8.00003Z M2.13337 11C1.69155 11 1.33337 11.3582 1.33337 11.8C1.33337 12.2419 1.69155 12.6 2.13337 12.6H13.8667C14.3085 12.6 14.6667 12.2419 14.6667 11.8C14.6667 11.3582 14.3085 11 13.8667 11H2.13337Z" />
</svg>
