<!-- eslint-disable max-len -->
<svg viewBox="0 0 12 12">
  <path d="M 4 1 C 3.7200003 1 3.5 1.2200003 3.5 1.5 L 3.5 2 L 3 2 C 2.1700008 2 1.5 2.6700008 1.5 3.5 L 1.5 9.5 C 1.5 10.329999 2.1700008 11 3 11 L 9 11 C 9.8299992 11 10.5 10.329999 10.5 9.5 L 10.5 3.5 C 10.5 2.6700008 9.8299992 2 9 2 L 8.5 2 L 8.5 1.5 C 8.5 1.2200003 8.2799997 1 8 1 C 7.7200003 1 7.5 1.2200003 7.5 1.5 L 7.5 2 L 4.5 2 L 4.5 1.5 C 4.5 1.2200003 4.2799997 1 4 1 z M 2.5 4.4492188 L 9.5 4.4492188 L 9.5 9.5 C 9.5 9.7799997 9.2799997 10 9 10 L 3 10 C 2.7200003 10 2.5 9.7799997 2.5 9.5 L 2.5 4.4492188 z M 4.5976562 5.25 C 4.4784226 5.25 4.3591449 5.2968751 4.265625 5.390625 C 4.0785952 5.5781248 4.0785952 5.8691408 4.265625 6.0566406 L 5.3339844 7.1230469 L 4.265625 8.1933594 C 4.0785952 8.3808592 4.0785952 8.6718752 4.265625 8.859375 C 4.3497949 8.9531249 4.470227 9 4.5917969 9 C 4.7133668 9 4.835752 8.9531249 4.9199219 8.859375 L 5.9960938 7.7851562 L 7.0703125 8.859375 C 7.1544824 8.9531249 7.2768676 9 7.3984375 9 C 7.5200074 9 7.6408551 8.9531249 7.734375 8.859375 C 7.9214048 8.6718752 7.9214048 8.3808592 7.734375 8.1933594 L 6.6601562 7.1210938 L 7.7226562 6.0585938 C 7.9096861 5.8710939 7.9096861 5.5800779 7.7226562 5.3925781 C 7.5356164 5.2050783 7.2456236 5.2050783 7.0585938 5.3925781 L 5.9980469 6.4570312 L 4.9296875 5.390625 C 4.8361726 5.2968751 4.7168899 5.25 4.5976562 5.25 z " />
</svg>