<!-- eslint-disable max-len -->
<svg viewBox="0 0 16 16">
    <path d="M11 2.66671H11.5523C12.536 2.66671 13.33 3.33737 13.33 4.33337V5H8V5.00128H2.00338V11.5334C2.00338 11.8694 2.11597 12 2.44782 12H7.33333C7.70152 12 8 12.2985 8 12.6667C8 13.0349 7.70152 13.3334 7.33333 13.3334H2.44782C1.46412 13.3334 0.670044 12.5294 0.670044 11.5334V4.33337C0.670044 3.33737 1.38311 2.66671 2.36681 2.66671H3.00004V1.93337C3.00004 1.59737 3.33486 1.33337 3.66671 1.33337C3.99856 1.33337 4.33338 1.59737 4.33338 1.93337V2.66671H9.66671V1.93337C9.66671 1.59737 10.0015 1.33337 10.3334 1.33337C10.6652 1.33337 11 1.59737 11 1.93337V2.66671Z M4 6H5V7H4V6Z M3 8H4V9H3V8Z M4 10H3V11H4V10Z M6 6H7V7H6V6Z M6 8H5V9H6V8Z M5 10H6V11H5V10Z M9 6H8V7H9V6Z M7 8H8V9H7V8Z M8 10H7V11H8V10Z M13.8333 11.1617V8.1617L11.3333 6.66675L8.83328 8.1617V11.1617L11.3333 12.6668L13.8333 11.1617Z M6.66663 15.3334C6.66663 14.3525 8.75279 13.3334 11.3288 13.3334C13.9047 13.3334 16 14.3525 16 15.3334V16.0001H6.66663V15.3334Z" />
</svg>
