<!-- eslint-disable max-len -->
<svg viewBox="0 0 16 16">
    <path d="M11 2.66671H11.5523C12.536 2.66671 13.33 3.33737 13.33 4.33337V10.3333C13.33 10.7015 13.0316 11 12.6634 11C12.2952 11 11.9967 10.7015 11.9967 10.3333V5.00128H2.00338V11.5334C2.00338 11.8694 2.11597 12 2.44782 12H3.33333C3.70152 12 4 12.2985 4 12.6667C4 13.0349 3.70152 13.3334 3.33333 13.3334H2.44782C1.46412 13.3334 0.670044 12.5294 0.670044 11.5334V4.33337C0.670044 3.33737 1.38311 2.66671 2.36681 2.66671H3.00004V1.93337C3.00004 1.59737 3.33486 1.33337 3.66671 1.33337C3.99856 1.33337 4.33338 1.59737 4.33338 1.93337V2.66671H9.66671V1.93337C9.66671 1.59737 10.0015 1.33337 10.3334 1.33337C10.6652 1.33337 11 1.59737 11 1.93337V2.66671Z M5 6H4V7H5V6Z M4 8H3V9H4V8Z M3 10H4V11H3V10Z M7 6H6V7H7V6Z M5 8H6V9H5V8Z M6 10H5V11H6V10Z M8 6H9V7H8V6Z M8 8H7V9H8V8Z M7 10H8V11H7V10Z M11 6H10V7H11V6Z M9 8H10V9H9V8Z M10 10H9V11H10V10Z M6.66268 14.6667C7.39906 14.6667 7.99601 14.0697 7.99601 13.3333C7.99601 12.597 7.39906 12 6.66268 12C5.9263 12 5.32935 12.597 5.32935 13.3333C5.32935 14.0697 5.9263 14.6667 6.66268 14.6667Z M10.6627 14.6667C11.3991 14.6667 11.996 14.0697 11.996 13.3333C11.996 12.597 11.3991 12 10.6627 12C9.9263 12 9.32935 12.597 9.32935 13.3333C9.32935 14.0697 9.9263 14.6667 10.6627 14.6667Z M15.996 13.3333C15.996 14.0697 15.3991 14.6667 14.6627 14.6667C13.9263 14.6667 13.3293 14.0697 13.3293 13.3333C13.3293 12.597 13.9263 12 14.6627 12C15.3991 12 15.996 12.597 15.996 13.3333Z" />
</svg>
