<!-- eslint-disable max-len -->
<svg viewBox="0 0 16 16">
    <path d="M5 6H6V7H5V6Z M5 8H4V9H5V8Z M4 10H5V11H4V10Z M8 6H7V7H8V6Z M6 8H7V9H6V8Z M7 10H6V11H7V10Z M9 6H10V7H9V6Z M9 8H8V9H9V8Z M8 10H9V11H8V10Z M12 6H11V7H12V6Z M10 8H11V9H10V8Z M11 10H10V11H11V10Z M12 2.66671H12.5523C13.536 2.66671 14.33 3.33737 14.33 4.33337V11.5334C14.33 12.5294 13.536 13.3334 12.5523 13.3334H3.44782C2.46412 13.3334 1.67004 12.5294 1.67004 11.5334V4.33337C1.67004 3.33737 2.38311 2.66671 3.36682 2.66671H4.00004V1.93337C4.00004 1.59737 4.33486 1.33337 4.66671 1.33337C4.99856 1.33337 5.33338 1.59737 5.33338 1.93337V2.66671H10.6667V1.93337C10.6667 1.59737 11.0015 1.33337 11.3334 1.33337C11.6652 1.33337 12 1.59737 12 1.93337V2.66671ZM3.00338 11.5334C3.00338 11.8694 3.11597 12 3.44782 12H12.5523C12.8841 12 13 11.8694 12.9967 11.5334V5.00128H3.00338V11.5334Z" />
</svg>
