<!-- eslint-disable max-len -->
<svg viewBox="0 0 16 16">
  <path d="M9.86409 10.9999C9.70199 10.9999 9.5399 10.9374 9.42768 10.8124L7.99377 9.37967L6.55985 10.8124C6.44763 10.9374 6.28554 10.9999 6.12344 10.9999C5.96135 10.9999 5.79925 10.9374 5.68703 10.8124C5.43766 10.5624 5.43766 10.1749 5.68703 9.92488L7.11085 8.4975L5.68703 7.07488C5.43766 6.82488 5.43766 6.43738 5.68703 6.18738C5.93641 5.93738 6.32294 5.93738 6.57232 6.18738L7.99614 7.61L9.41255 6.19005C9.66192 5.94005 10.0485 5.94005 10.2978 6.19005C10.5472 6.44005 10.5472 6.82755 10.2978 7.07755L8.88054 8.49365L10.313 9.92488C10.5623 10.1749 10.5623 10.5624 10.313 10.8124C10.1883 10.9374 10.0262 10.9999 9.86409 10.9999Z M12.5523 2.66671H12V1.93337C12 1.59737 11.6652 1.33337 11.3334 1.33337C11.0015 1.33337 10.6667 1.59737 10.6667 1.93337V2.66671H5.33338V1.93337C5.33338 1.59737 4.99856 1.33337 4.66671 1.33337C4.33486 1.33337 4.00004 1.59737 4.00004 1.93337V2.66671H3.36681C2.38311 2.66671 1.67004 3.33737 1.67004 4.33337V11.5334C1.67004 12.5294 2.46412 13.3334 3.44782 13.3334H12.5523C13.536 13.3334 14.33 12.5294 14.33 11.5334V4.33337C14.33 3.33737 13.536 2.66671 12.5523 2.66671ZM3.44782 12C3.11597 12 3.00338 11.8694 3.00338 11.5334V5.00128H12.9967V11.5334C13 11.8694 12.8841 12 12.5523 12H3.44782Z" />
</svg>