<!-- eslint-disable max-len -->
<svg viewBox="0 0 16 16">
    <path d="M3.33333 1.05882C3.33333 0.474051 2.88562 0 2.33333 0C1.78105 0 1.33333 0.474051 1.33333 1.05882L1.33333 6.94118C1.33333 7.52595 1.78105 8 2.33333 8C2.88562 8 3.33333 7.52595 3.33333 6.94118V1.05882Z M3.66667 10.6667C3.66667 11.403 3.06971 12 2.33333 12C1.59695 12 1 11.403 1 10.6667C1 9.93029 1.59695 9.33333 2.33333 9.33333C3.06971 9.33333 3.66667 9.93029 3.66667 10.6667Z M9 6H8V7H9V6Z M7 8H8V9H7V8Z M8 10H7V11H8V10Z M10 6H11V7H10V6Z M13 6H12V7H13V6Z M9 8H10V9H9V8Z M10 10H9V11H10V10Z M11 8H12V9H11V8Z M12 10H11V11H12V10Z M5 13.3334H13.5522C14.5359 13.3334 15.33 12.5294 15.33 11.5334V4.33337C15.33 3.33737 14.5359 2.66671 13.5522 2.66671H13V1.93337C13 1.59737 12.6652 1.33337 12.3333 1.33337C12.0015 1.33337 11.6667 1.59737 11.6667 1.93337V2.66671H6.33333V1.93337C6.33333 1.59737 5.99852 1.33337 5.66667 1.33337C5.33482 1.33337 5 1.59737 5 1.93337V5.00128H13.9967V11.5334C14 11.8694 13.8841 12 13.5522 12H5V13.3334Z M7 6H6V7H7V6Z M5 8H6V9H5V8Z M6 10H5V11H6V10Z" />
</svg>
