<!-- eslint-disable max-len -->
<svg viewBox="0 0 12 12">
    <path d="M12 2H10V0H9.00003V2H7.00003V3H9.00003V5H10V3H12V2Z M6.03508 2.7512C5.95211 2.56324 5.87141 2.38043 5.77693 2.23084C5.70348 2.1828 5.62554 2.14158 5.54408 2.10782C5.37234 2.03665 5.18826 2.00002 5.00236 2.00002C4.81646 2.00002 4.63238 2.03665 4.46063 2.10782C4.28889 2.179 4.13284 2.28332 4.0014 2.41483L3.36681 3.05014H2.47036C2.09496 3.05014 1.73494 3.19932 1.46949 3.46487C1.20404 3.73041 1.05491 4.09058 1.05491 4.46612V5.3629L0.414659 5.99774C0.283197 6.12923 0.178913 6.28533 0.107765 6.45714C0.0366175 6.62895 0 6.8131 0 6.99907C0 7.18504 0.0366175 7.36919 0.107765 7.541C0.178913 7.71281 0.283197 7.86892 0.414659 8.00041L1.05161 8.63713V9.53391C1.05161 9.90946 1.20074 10.2696 1.46618 10.5352C1.73163 10.8007 2.09166 10.9499 2.46706 10.9499H3.36351L4.00046 11.5852C4.1319 11.7167 4.28795 11.821 4.45969 11.8922C4.63144 11.9634 4.81552 12 5.00142 12C5.18731 12 5.37139 11.9634 5.54314 11.8922C5.71488 11.821 5.87093 11.7167 6.00237 11.5852L6.63696 10.9499H7.53341C7.90881 10.9499 8.26884 10.8007 8.53428 10.5352C8.79973 10.2696 8.94886 9.90946 8.94886 9.53391V8.63713L9.58392 8.00182C9.71569 7.8704 9.82026 7.71428 9.89166 7.54239C9.96305 7.3705 9.99987 7.18621 10 7.00007C10.0001 6.81394 9.96357 6.6296 9.89242 6.45761C9.85835 6.37524 9.81665 6.29647 9.76801 6.2223C9.61865 6.12815 9.43632 6.04767 9.24888 5.96494C9.04383 5.87443 8.83267 5.78123 8.65187 5.66448C8.5765 5.62491 8.50869 5.57288 8.45117 5.51114C8.36855 5.43486 8.29949 5.34896 8.25001 5.25C8.25001 4.5 7.50001 3.75 6.75001 3.75C6.65106 3.70053 6.56516 3.63147 6.48887 3.54885C6.42718 3.49137 6.3752 3.42362 6.33564 3.34831C6.21885 3.16749 6.12561 2.95629 6.03508 2.7512ZM7.31105 5.55721L5.15314 9.23984L2.70003 7.40001C2.47912 7.23432 2.43434 6.92092 2.60003 6.70001C2.76571 6.4791 3.07912 6.43432 3.30003 6.60001L4.84692 7.76018L6.44281 5.06107C6.57981 4.82131 6.88524 4.73801 7.125 4.87502C7.36476 5.01202 7.44806 5.31745 7.31105 5.55721Z" />
</svg>
