<!-- eslint-disable max-len -->
<svg viewBox="0 0 16 16">
    <path d="M7.99984 15.3332C12.0499 15.3332 15.3332 12.0499 15.3332 7.99984C15.3332 3.94975 12.0499 0.666504 7.99984 0.666504C3.94975 0.666504 0.666504 3.94975 0.666504 7.99984C0.666504 12.0499 3.94975 15.3332 7.99984 15.3332ZM12.4061 5.23244L7.02983 13.5955L2.72991 8.6586C2.43972 8.32542 2.47457 7.82009 2.80775 7.5299C3.14092 7.23972 3.64625 7.27457 3.93644 7.60775L6.83651 10.9375L11.0602 4.36723C11.2991 3.99558 11.7941 3.88797 12.1658 4.12689C12.5374 4.36582 12.645 4.86079 12.4061 5.23244Z" />
</svg>
