<!-- eslint-disable max-len -->
<svg viewBox="0 0 16 16">
    <path d="M3.16754 2.10097C3.47996 1.78855 3.98649 1.78855 4.29891 2.10097L10.1979 7.99999L4.29891 13.899C3.98649 14.2114 3.47996 14.2114 3.16754 13.899C2.85512 13.5866 2.85512 13.0801 3.16754 12.7676L7.93519 7.99999L3.16754 3.23234C2.85512 2.91992 2.85512 2.41339 3.16754 2.10097ZM12.2666 1.86665C12.7084 1.86665 13.0666 2.22483 13.0666 2.66665V13.3333C13.0666 13.7751 12.7084 14.1333 12.2666 14.1333C11.8247 14.1333 11.4666 13.7751 11.4666 13.3333V2.66665C11.4666 2.22483 11.8247 1.86665 12.2666 1.86665Z" />
</svg>
