<!-- eslint-disable max-len -->
<svg viewBox="0 0 16 16">
    <path d="M4.53347 2.66662C4.53347 2.2248 4.1753 1.86662 3.73347 1.86662C3.29164 1.86662 2.93347 2.2248 2.93347 2.66662L2.93347 13.3333C2.93347 13.7751 3.29164 14.1333 3.73347 14.1333C4.1753 14.1333 4.53347 13.7751 4.53347 13.3333L4.53347 2.66662Z M8.06484 7.99996L12.8325 3.23231C13.1449 2.91989 13.1449 2.41336 12.8325 2.10094C12.5201 1.78852 12.0135 1.78852 11.7011 2.10094L5.8021 7.99996L11.7011 13.899C12.0135 14.2114 12.5201 14.2114 12.8325 13.899C13.1449 13.5866 13.1449 13.08 12.8325 12.7676L8.06484 7.99996Z" />
</svg>
