
<!-- eslint-disable max-len -->
<svg viewBox="0 0 12 12">
    <path d=        "M3.09848 1.55475C2.98248 1.3891 2.77812 1.30962 2.58068 1.35339C2.38324 1.39716 2.23161 1.55556 2.1965 1.75472L1.8492 3.72433C1.80125 3.99628 1.98283 4.25561 2.25478 4.30356L4.2244 4.65086C4.42355 4.68597 4.62426 4.59766 4.73292 4.4271C4.84157 4.25654 4.83679 4.03732 4.7208 3.87167L4.19345 3.11854C4.61866 2.85144 5.11 2.67479 5.64457 2.6186C7.51205 2.42232 9.18506 3.7771 9.38134 5.64458C9.57762 7.51206 8.22284 9.18507 6.35536 9.38135C4.48788 9.57763 2.81487 8.22285 2.61859 6.35537C2.58395 6.02582 2.28872 5.78674 1.95916 5.82138C1.62961 5.85602 1.39053 6.15125 1.42516 6.48081C1.69072 9.0074 3.9542 10.8403 6.4808 10.5748C9.00739 10.3092 10.8403 8.04574 10.5748 5.51915C10.3092 2.99255 8.04573 1.15962 5.51913 1.42518C4.77656 1.50322 4.09261 1.75442 3.50453 2.13466L3.09848 1.55475Z M6.5 4C6.5 3.72386 6.27614 3.5 6 3.5C5.72386 3.5 5.5 3.72386 5.5 4V6.20711L6.64644 7.35355C6.84171 7.54882 7.15829 7.54882 7.35355 7.35355C7.54881 7.15829 7.54881 6.84171 7.35355 6.64645L6.5 5.79289V4Z"
/>
</svg>

