
<!-- eslint-disable max-len -->
<svg viewBox="0 0 16 16">
    <path d="M4.13128 2.07301C3.97662 1.85213 3.70414 1.74617 3.44089 1.80453C3.17764 1.86289 2.97546 2.07408 2.92864 2.33963L2.46558 4.96578C2.40164 5.32838 2.64376 5.67415 3.00635 5.73809L5.63251 6.20115C5.89805 6.24797 6.16566 6.13022 6.31053 5.90281C6.45541 5.6754 6.44903 5.3831 6.29437 5.16223L5.59125 4.15806C6.15819 3.80192 6.81331 3.56639 7.52607 3.49147C10.016 3.22977 12.2467 5.03614 12.5084 7.52611C12.7701 10.0161 10.9638 12.2468 8.4738 12.5085C5.98382 12.7702 3.75314 10.9638 3.49143 8.47384C3.44525 8.03443 3.0516 7.71566 2.61219 7.76184C2.17279 7.80802 1.85402 8.20167 1.9002 8.64108C2.25427 12.0099 5.27225 14.4538 8.64104 14.0997C12.0098 13.7456 14.4537 10.7277 14.0997 7.35887C13.7456 3.99008 10.7276 1.54617 7.35883 1.90024C6.36873 2.0043 5.45679 2.33924 4.67269 2.84621L4.13128 2.07301Z M8.66664 5.33334C8.66664 4.96515 8.36817 4.66667 7.99998 4.66667C7.63179 4.66667 7.33331 4.96515 7.33331 5.33334V8.27615L8.86191 9.80474C9.12225 10.0651 9.54436 10.0651 9.80471 9.80474C10.0651 9.54439 10.0651 9.12228 9.80471 8.86193L8.66664 7.72386V5.33334Z"
/>
</svg>

