<!-- eslint-disable max-len -->
<svg viewBox="0 0 16 16">
    <path d="M1.33337 8.00004C1.33337 4.31814 4.31814 1.33337 8.00004 1.33337C11.6819 1.33337 14.6667 4.31814 14.6667 8.00004C14.6667 11.6819 11.6819 14.6667 8.00004 14.6667C4.31814 14.6667 1.33337 11.6819 1.33337 8.00004ZM13.0667 8.00004C13.0667 5.47402 11.2182 3.37975 8.80007 2.99618V7.20004H10.6667C11.1086 7.20004 11.4667 7.55821 11.4667 8.00004C11.4667 8.44187 11.1086 8.80004 10.6667 8.80004H7.20007V2.99617C4.99827 3.3454 3.26868 5.11298 2.97684 7.33337H3.33337C3.70156 7.33337 4.00004 7.63185 4.00004 8.00004C4.00004 8.36823 3.70156 8.66671 3.33337 8.66671H2.97684C3.27455 10.9317 5.06836 12.7255 7.33337 13.0232V12.6667C7.33337 12.2985 7.63185 12 8.00004 12C8.36823 12 8.66671 12.2985 8.66671 12.6667V13.0232C11.1499 12.6969 13.0667 10.5723 13.0667 8.00004Z" />
</svg>
