<!-- eslint-disable max-len -->
<svg viewBox="0 0 16 16">
    <path d="M12.0753 7.389L11.9893 6.42507C11.8681 5.0662 10.7245 3.99999 9.33333 3.99999C8.17201 3.99999 7.18082 4.74311 6.81589 5.78383L6.47465 6.75695L5.44699 6.67136C5.4098 6.66826 5.3719 6.66666 5.33333 6.66666C4.69997 6.66666 4.16688 7.10958 4.03271 7.70383L3.80852 8.69678L2.79159 8.74219C2.02341 8.77649 1.33333 9.45073 1.33333 10.3704C1.33333 11.276 2.00394 11.9452 2.75747 11.9966L2.80706 12H12.6003L12.629 11.9992C13.7157 11.9685 14.6667 11.0289 14.6667 9.77777C14.6667 8.68277 13.9304 7.81579 13.0184 7.60598L12.0753 7.389ZM12.6667 13.332V13.3333H2.66667V13.3268C1.17752 13.2252 0 11.9404 0 10.3704C0 8.77741 1.21217 7.47805 2.73212 7.41018C3.00055 6.22124 4.06325 5.33332 5.33333 5.33332C5.40889 5.33332 5.48371 5.33647 5.55767 5.34263C6.10415 3.78418 7.58823 2.66666 9.33333 2.66666C11.4211 2.66666 13.1353 4.26616 13.3173 6.30659C14.8522 6.65971 16 8.07973 16 9.77777C16 11.7084 14.5162 13.2797 12.6667 13.332Z" />
</svg>
