<!-- eslint-disable max-len -->
<svg viewBox="0 0 16 16">
    <path d="M2.99996 1.05882C2.99996 0.474051 2.55224 0 1.99996 0C1.44767 0 0.999959 0.474051 0.999959 1.05882L0.999959 6.94118C0.999959 7.52595 1.44767 8 1.99996 8C2.55224 8 2.99996 7.52595 2.99996 6.94118V1.05882Z M3.33329 10.6667C3.33329 11.403 2.73634 12 1.99996 12C1.26358 12 0.666626 11.403 0.666626 10.6667C0.666626 9.93029 1.26358 9.33333 1.99996 9.33333C2.73634 9.33333 3.33329 9.93029 3.33329 10.6667Z M12.0752 7.38901L11.9892 6.42508C11.868 5.06621 10.7244 4 9.33329 4C8.17197 4 7.18078 4.74312 6.81585 5.78384L6.47461 6.75696L5.44695 6.67137C5.40976 6.66827 5.37186 6.66667 5.33329 6.66667C4.69993 6.66667 4.16684 7.10959 4.03267 7.70384L3.99996 7.84872V5.69009C4.39219 5.46319 4.84758 5.33333 5.33329 5.33333C5.40884 5.33333 5.48366 5.33647 5.55763 5.34264C6.10411 3.78419 7.58819 2.66667 9.33329 2.66667C11.4211 2.66667 13.1353 4.26617 13.3173 6.3066C14.8522 6.65972 16 8.07974 16 9.77778C16 11.7084 14.5162 13.2797 12.6666 13.332V13.3333H3.99996V12H12.6002L12.6289 11.9992C13.7156 11.9685 14.6667 11.0289 14.6667 9.77778C14.6667 8.68278 13.9303 7.8158 13.0184 7.60599L12.0752 7.38901Z" />
</svg>
