<!-- eslint-disable max-len -->
<svg viewBox="0 0 16 16">
    <path d="M12.0753 6.05569L11.9893 5.09176C11.8681 3.73288 10.7245 2.66668 9.33333 2.66668C8.17201 2.66668 7.18082 3.40979 6.81589 4.45052L6.47465 5.42364L5.44699 5.33805C5.4098 5.33495 5.3719 5.33334 5.33333 5.33334C4.69997 5.33334 4.16688 5.77626 4.03271 6.37052L3.80852 7.36347L2.79159 7.40888C2.02341 7.44318 1.33333 8.11742 1.33333 9.03705C1.33333 9.94271 2.00394 10.6119 2.75747 10.6633L2.80706 10.6667H6V12H2.66667V11.9935C1.17752 11.8919 0 10.6071 0 9.03705C0 7.44409 1.21217 6.14474 2.73212 6.07687C3.00055 4.88792 4.06325 4.00001 5.33333 4.00001C5.40889 4.00001 5.48371 4.00315 5.55767 4.00931C6.10415 2.45087 7.58823 1.33334 9.33333 1.33334C11.4211 1.33334 13.1353 2.93285 13.3173 4.97328C14.8522 5.3264 16 6.74642 16 8.44446C16 10.3751 14.5162 11.9464 12.6667 11.9987V12H10V10.6667H12.6003L12.629 10.6659C13.7157 10.6351 14.6667 9.69558 14.6667 8.44446C14.6667 7.34945 13.9304 6.48248 13.0184 6.27267L12.0753 6.05569Z M6.80474 9.13802C6.54439 9.39837 6.12228 9.39837 5.86193 9.13802C5.60158 8.87767 5.60158 8.45556 5.86193 8.19521L8.33333 5.72381L10.8047 8.19521C11.0651 8.45556 11.0651 8.87767 10.8047 9.13802C10.5444 9.39837 10.1223 9.39837 9.86193 9.13802L9 8.27609L9 14.6666C9 15.0348 8.70152 15.3333 8.33333 15.3333C7.96514 15.3333 7.66667 15.0348 7.66667 14.6666L7.66667 8.27609L6.80474 9.13802Z" />
</svg>
