<!-- eslint-disable max-len -->
<svg viewBox="0 0 16 16">
    <path d="M5.13805 11.8049C4.8777 12.0652 4.45559 12.0652 4.19524 11.8049L0.390503 8.00015L4.19524 4.19541C4.45559 3.93506 4.8777 3.93506 5.13805 4.19541C5.3984 4.45576 5.3984 4.87787 5.13805 5.13822L2.27612 8.00015L5.13805 10.8621C5.3984 11.1224 5.3984 11.5445 5.13805 11.8049Z M10.8619 4.19541C11.1223 3.93506 11.5444 3.93506 11.8047 4.19541L15.6095 8.00015L11.8047 11.8049C11.5444 12.0652 11.1223 12.0652 10.8619 11.8049C10.6016 11.5445 10.6016 11.1224 10.8619 10.8621L13.7238 8.00015L10.8619 5.13822C10.6016 4.87787 10.6016 4.45576 10.8619 4.19541Z M6.01579 13.8555C5.93592 14.2149 6.16254 14.571 6.52196 14.6509C6.88139 14.7308 7.2375 14.5042 7.31737 14.1447L9.98403 2.14474C10.0639 1.78532 9.83728 1.4292 9.47786 1.34933C9.11844 1.26946 8.76232 1.49608 8.68245 1.8555L6.01579 13.8555Z" />
</svg>
