<!-- eslint-disable max-len -->
<svg viewBox="0 0 16 16">
    <path d="M14.3185 2.67559L8.00004 6.54754L1.68162 2.67559C1.33471 2.463 1.22925 2.01492 1.44607 1.67478C1.66288 1.33464 2.11988 1.23124 2.46679 1.44383L8.00004 4.83462L13.5333 1.44383C13.8802 1.23124 14.3372 1.33464 14.554 1.67478C14.7708 2.01492 14.6654 2.463 14.3185 2.67559Z M14.3186 13.3333L8.0002 9.46138L1.68178 13.3333C1.33487 13.5459 1.22941 13.994 1.44623 14.3341C1.66305 14.6743 2.12004 14.7777 2.46695 14.5651L8.0002 11.1743L13.5335 14.5651C13.8804 14.7777 14.3374 14.6743 14.5542 14.3341C14.771 13.994 14.6655 13.5459 14.3186 13.3333Z M2.13331 7.26669C1.7283 7.26669 1.39998 7.59501 1.39998 8.00002C1.39998 8.40503 1.7283 8.73335 2.13331 8.73335H13.9334C14.3384 8.73335 14.6667 8.40503 14.6667 8.00002C14.6667 7.59501 14.3384 7.26669 13.9334 7.26669H2.13331Z" />
</svg>
