<!-- eslint-disable max-len -->
<svg viewBox="0 0 16 16">
    <path d="M5.33337 0C4.59701 0 4.00004 0.596954 4.00004 1.33333V2.66667H2.33333C1.59696 2.66667 1 3.26362 1 4V14.6667C1 15.4031 1.59696 16 2.33333 16H10.6667C11.4031 16 12 15.4031 12 14.6667V13.3333H13.3334C14.0697 13.3333 14.6667 12.7364 14.6667 12V5.33333C14.6667 4.97972 14.5262 4.64057 14.2762 4.39052L10.2762 0.390523C10.0261 0.140472 9.68701 0 9.33337 0H5.33337ZM5.33337 2.66667V1.33333H9.33337L13.3334 5.33333V12H12V6.66667C12 6.31305 11.8596 5.97391 11.6095 5.72386L8.94283 3.05719C8.69279 2.80714 8.35368 2.66667 8.00004 2.66667H5.33337ZM2.33333 4H6.66671V8H10.6667V14.6667H2.33333V4ZM8.00004 6.66667V4L10.6667 6.66667H8.00004Z" />
</svg>
