<!-- eslint-disable max-len -->
<svg viewBox="0 0 16 16">
    <path d="M13.2795 3.94617C13.6179 3.60771 13.6179 3.05897 13.2795 2.72052C12.941 2.38206 12.3923 2.38206 12.0538 2.72052L8.00001 6.77433L3.9462 2.72052C3.60775 2.38207 3.059 2.38207 2.72055 2.72052C2.3821 3.05897 2.3821 3.60772 2.72055 3.94617L6.77436 7.99998L2.72048 12.0538C2.38203 12.3923 2.38203 12.941 2.72049 13.2795C3.05894 13.618 3.60768 13.618 3.94614 13.2795L8.00001 9.22563L12.0539 13.2795C12.3923 13.618 12.9411 13.618 13.2795 13.2795C13.618 12.9411 13.618 12.3923 13.2795 12.0539L9.22566 7.99998L13.2795 3.94617Z" />
</svg>
