<!-- eslint-disable max-len -->
<svg viewBox="0 0 16 16">
    <path d="M10 10.6667C9.82667 10.6667 9.65333 10.6 9.53333 10.4667L8 8.93845L6.46667 10.4667C6.34667 10.6 6.17333 10.6667 6 10.6667C5.82667 10.6667 5.65333 10.6 5.53333 10.4667C5.26667 10.2 5.26667 9.78667 5.53333 9.52L7.05587 7.99746L5.53333 6.48C5.26667 6.21333 5.26667 5.8 5.53333 5.53333C5.8 5.26667 6.21333 5.26667 6.48 5.53333L8.00254 7.0508L9.51715 5.53618C9.78382 5.26952 10.1972 5.26952 10.4638 5.53618C10.7305 5.80285 10.7305 6.21618 10.4638 6.48285L8.94825 7.99336L10.48 9.52C10.7467 9.78667 10.7467 10.2 10.48 10.4667C10.3467 10.6 10.1733 10.6667 10 10.6667Z M2.33329 14.3333L13.6667 14.3333C14.04 14.3333 14.3333 14.04 14.3333 13.6666V2.33333C14.3333 1.96 14.04 1.66667 13.6667 1.66667H2.33329C1.95996 1.66667 1.66663 1.96 1.66663 2.33333V13.6666C1.66663 14.04 1.95996 14.3333 2.33329 14.3333ZM13 13L2.99996 13V3L13 3V13Z" />
</svg>
