<!-- eslint-disable max-len -->
<svg viewBox="0 0 16 16">
    <path d="M3.99996 1.33335C3.99996 0.596972 4.59692 1.81198e-05 5.3333 1.81198e-05L13 0C13.7363 0 14.3333 0.596954 14.3333 1.33333V12C14.3333 12.7364 13.7363 13.3333 13 13.3333V1.33333L3.99996 1.33335Z M3.99996 8V5.33333H6.99996V8H3.99996Z M9.3333 11V10H3.99996V11H9.3333Z M9.3333 12V13H3.99996V12H9.3333Z M1.66663 4.00002C1.66663 3.26364 2.26358 2.66668 2.99996 2.66668H10.6666C11.403 2.66668 12 3.26364 12 4.00002V14.6667C12 15.4031 11.403 16 10.6666 16H2.99996C2.26358 16 1.66663 15.4031 1.66663 14.6667V4.00002ZM2.99996 4.00002V14.6667H10.6666V4.00002H2.99996Z" />
</svg>
