<!-- eslint-disable max-len -->
<svg viewBox="0 0 12 12">
    <path d="M4.5 0.375C4.5 0.167893 4.66789 0 4.875 0H11.625C11.8321 0 12 0.167893 12 0.375V4.875C12 5.08211 11.8321 5.25 11.625 5.25H8.25C8.04289 5.25 7.875 5.08211 7.875 4.875C7.875 4.66789 8.04289 4.5 8.25 4.5H10.6113L9.05221 3.16366L8.49914 3.65528C8.35705 3.78157 8.14294 3.78157 8.00086 3.65528L5.25 1.21007V2.70196L6.75 3.60589V6.32682L4.5 7.69187L2.25 6.32682V3.60589L4.5 2.25V0.375ZM11.25 1.21007L9.61795 2.66077L11.25 4.05967V1.21007ZM5.86132 0.75L8.25 2.87327L10.6387 0.75H5.86132Z M4.5 8.59885C1.76764 8.59885 0 9.97659 0 10.8663V12H9V10.8663C9 9.97659 7.23236 8.59885 4.5 8.59885Z" />
</svg>
