<!-- eslint-disable max-len -->
<svg viewBox="0 0 16 16">
    <path d="M7.00001 8.49988L7.00001 4.49988C7.00001 4.05805 7.50001 3.49988 7.99998 3.49988C8.49995 3.49988 9.00001 4.05805 9.00001 4.49988L9.00001 8.49988C9.00001 8.94171 8.50001 9.49988 7.99998 9.49988C7.50001 9.49988 7.00001 8.9417 7.00001 8.49988Z M9.06661 11.4999C9.06661 12.089 8.58905 12.5665 7.99995 12.5665C7.41084 12.5665 6.93328 12.089 6.93328 11.4999C6.93328 10.9108 7.41084 10.4332 7.99995 10.4332C8.58905 10.4332 9.06661 10.9108 9.06661 11.4999Z M8.00001 15.3333C3.94992 15.3333 0.666678 12.05 0.666678 7.99992C0.666678 3.94983 3.94992 0.666585 8.00001 0.666585C12.0501 0.666586 15.3333 3.94983 15.3333 7.99992C15.3333 12.05 12.0501 15.3333 8.00001 15.3333ZM8.00001 13.9999C11.3137 13.9999 14 11.3136 14 7.99992C14 4.68621 11.3137 1.99992 8.00001 1.99992C4.6863 1.99992 2.00001 4.68621 2.00001 7.99992C2.00001 11.3136 4.6863 13.9999 8.00001 13.9999Z" />
</svg>
