<!-- eslint-disable max-len -->
<svg viewBox="0 0 16 16">
    <path d="M7.99999 15.3333C12.0501 15.3333 15.3333 12.05 15.3333 7.99996C15.3333 3.94987 12.0501 0.666626 7.99999 0.666626C3.9499 0.666626 0.666656 3.94987 0.666656 7.99996C0.666656 12.05 3.9499 15.3333 7.99999 15.3333ZM7.00003 9.19999V3.33333C7.00003 2.8915 7.55813 2.53333 7.99996 2.53333C8.44178 2.53333 9.00003 2.8915 9.00003 3.33333V9.19999C9.00003 9.64182 8.44178 9.99999 7.99996 9.99999C7.55813 9.99999 7.00003 9.64182 7.00003 9.19999ZM7.99993 13.1333C7.41082 13.1333 6.93326 12.6558 6.93326 12.0667C6.93326 11.4776 7.41082 11 7.99993 11C8.58903 11 9.06659 11.4776 9.06659 12.0667C9.06659 12.6558 8.58903 13.1333 7.99993 13.1333Z" />
</svg>
