<!-- eslint-disable max-len -->
<svg viewBox="0 0 16 16">
    <path d="M5.03702 8L7.99994 5.82118L10.9629 8L7.99994 10.1788L5.03702 8Z M8.00004 1.33334L14.3185 5.20529C14.6654 5.41788 14.7708 5.86595 14.554 6.20609C14.3372 6.54623 13.8802 6.64964 13.5333 6.43705L8.00004 3.04625L2.46679 6.43705C2.11988 6.64964 1.66288 6.54623 1.44607 6.20609C1.22925 5.86595 1.33471 5.41788 1.68162 5.20529L8.00004 1.33334Z M8.00004 14.6667L14.3185 10.7947C14.6654 10.5821 14.7708 10.1341 14.554 9.79391C14.3372 9.45377 13.8802 9.35037 13.5333 9.56296L8.00004 12.9538L2.46679 9.56296C2.11988 9.35037 1.66288 9.45377 1.44607 9.79391C1.22925 10.1341 1.33471 10.5821 1.68162 10.7947L8.00004 14.6667Z" />
</svg>
