<!-- eslint-disable max-len -->
<svg viewBox="0 0 16 16">
    <path d="M1.67001 6.34335C2.04335 6.34335 2.33668 6.04972 2.33668 5.67601V3.23476L5.39685 6.33667C5.66352 6.6036 6.10352 6.6036 6.34352 6.33667C6.61019 6.06973 6.61019 5.65599 6.34352 5.38905L3.33377 2.338H5.67001C6.04335 2.338 6.33668 2.04438 6.33668 1.67067C6.33668 1.29696 6.04335 1.00333 5.67001 1.00333L1 1C1 1 1.00335 4.87919 1.00335 5.67601C1.00335 6.04972 1.29668 6.34335 1.67001 6.34335Z M14.33 6.34335C13.9566 6.34335 13.6633 6.04972 13.6633 5.67601V3.23476L10.5965 6.34335C10.3298 6.61028 9.88979 6.61028 9.64979 6.34335C9.38312 6.07642 9.38312 5.66267 9.64979 5.39573L12.6662 2.338H10.33C9.95664 2.338 9.66331 2.04438 9.66331 1.67067C9.66331 1.29696 9.95664 1.00333 10.33 1.00333H14.9966V5.67601C14.9966 6.04972 14.7033 6.34335 14.33 6.34335Z M10.3307 13.6634C9.95702 13.6634 9.66339 13.9567 9.66339 14.33C9.66339 14.7034 9.95702 14.9967 10.3307 14.9967C11.5232 14.9967 15.0034 14.9967 15.0034 14.9967V10.33C15.0034 9.95669 14.7098 9.66335 14.3361 9.66335C13.9624 9.66335 13.6687 9.95669 13.6687 10.33V12.6663L10.6209 9.65971C10.354 9.39304 9.94026 9.39304 9.67333 9.65971C9.40639 9.89971 9.40639 10.3397 9.67333 10.6064L12.772 13.6634H10.3307Z M6.3366 14.33C6.3366 13.9566 6.04297 13.6633 5.66926 13.6633H3.22801L6.32303 10.61C6.58997 10.3433 6.58997 9.90333 6.32303 9.66333C6.0561 9.39667 5.64235 9.39667 5.37542 9.66333L2.33125 12.6662V10.33C2.33125 9.95665 2.03762 9.66331 1.66392 9.66331C1.29021 9.66331 0.996582 9.95665 0.996582 10.33C0.996582 11.522 1 15 1 15L5.66926 14.9966C6.04297 14.9966 6.3366 14.7033 6.3366 14.33Z" />
</svg>
