<!-- eslint-disable max-len -->
<svg viewBox="0 0 16 16">
    <path d="M1.39072 7.61332C1.30741 7.73398 1.26933 7.87243 1.2728 8.00858C1.26931 8.1456 1.30789 8.28492 1.39223 8.40602C2.16554 9.51649 3.16094 10.4217 4.30647 11.047C5.45248 11.6726 6.71608 12 7.99991 12C9.28375 12 10.5473 11.6726 11.6934 11.047C12.8389 10.4217 13.8343 9.51649 14.6076 8.40602C14.6919 8.28493 14.7305 8.14563 14.727 8.00862C14.7305 7.87245 14.6924 7.73399 14.6091 7.61332C13.8387 6.49767 12.8442 5.58754 11.698 4.95863C10.5514 4.32947 9.28589 4 7.99992 4C6.71394 4 5.44845 4.32947 4.30179 4.95863C3.15562 5.58754 2.1611 6.49767 1.39072 7.61332ZM7.99992 5.33333C6.52716 5.33333 5.33329 6.52724 5.33329 8C5.33329 9.46809 6.51964 10.6591 7.98595 10.6666C6.93542 10.6643 5.8959 10.3956 4.94531 9.87671C4.11504 9.42349 3.36998 8.78873 2.75512 8.00704C3.3681 7.22151 4.11259 6.58331 4.94319 6.12756C5.89809 5.60361 6.9436 5.33333 7.99992 5.33333ZM8.01474 10.6666C9.4807 10.6587 10.6666 9.46783 10.6666 8C10.6666 6.52868 9.47505 5.33566 8.00427 5.33333C9.05911 5.33408 10.1031 5.60433 11.0566 6.12756C11.8872 6.58331 12.6317 7.2215 13.2447 8.00703C12.6299 8.78873 11.8848 9.42349 11.0545 9.87671C10.1042 10.3955 9.06497 10.6641 8.01474 10.6666Z" />
</svg>
