<!-- eslint-disable max-len -->
<svg viewBox="0 0 16 16">
    <path d="M11.8023 5C11.7862 4.98376 11.764 4.96363 11.7337 4.93974C11.5895 4.82609 11.3395 4.69458 10.9712 4.5718C10.2414 4.32855 9.19093 4.16667 8 4.16667C6.80907 4.16667 5.75856 4.32855 5.02884 4.5718C4.66049 4.69458 4.4105 4.82609 4.26628 4.93974C4.23597 4.96363 4.2138 4.98376 4.19771 5C4.2138 5.01624 4.23597 5.03637 4.26628 5.06026C4.4105 5.17391 4.66049 5.30542 5.02884 5.42821C5.75856 5.67145 6.80907 5.83333 8 5.83333C9.19093 5.83333 10.2414 5.67145 10.9712 5.42821C11.3395 5.30542 11.5895 5.17391 11.7337 5.06026C11.764 5.03637 11.7862 5.01624 11.8023 5Z M11.8414 10.9516L11.84 10.9542C11.8406 10.9528 11.842 10.9502 11.842 10.9502L11.8414 10.9516Z M16 0H0V16H16V0ZM2.83333 5C2.83333 4.50107 3.13729 4.13186 3.44098 3.89252C3.75219 3.64726 4.16121 3.45555 4.6072 3.30688C5.50616 3.00723 6.70564 2.83333 8 2.83333C9.29436 2.83333 10.4938 3.00723 11.3928 3.30688C11.8388 3.45555 12.2478 3.64726 12.559 3.89252C12.8627 4.13186 13.1667 4.50107 13.1667 5C13.1667 5.49893 12.8627 5.86814 12.559 6.10748C12.2478 6.35274 11.8388 6.54445 11.3928 6.69312C10.4938 6.99277 9.29436 7.16667 8 7.16667C6.70565 7.16667 5.50616 6.99277 4.6072 6.69312C4.16121 6.54445 3.75219 6.35274 3.44098 6.10748C3.13729 5.86814 2.83333 5.49893 2.83333 5ZM3.5 7.33333C3.85577 7.33333 4.14644 7.61201 4.16566 7.96297C4.17749 7.97964 4.20557 8.01241 4.26628 8.06026C4.4105 8.17391 4.66049 8.30542 5.02884 8.42821C5.75856 8.67145 6.80907 8.83333 8 8.83333C9.19093 8.83333 10.2414 8.67145 10.9712 8.42821C11.3395 8.30542 11.5895 8.17391 11.7337 8.06026C11.7944 8.01241 11.8225 7.97963 11.8343 7.96297C11.8536 7.612 12.1442 7.33333 12.5 7.33333C12.8682 7.33333 13.1667 7.63181 13.1667 8C13.1667 8.49893 12.8627 8.86814 12.559 9.10748C12.2478 9.35274 11.8388 9.54445 11.3928 9.69312C10.4938 9.99277 9.29436 10.1667 8 10.1667C6.70565 10.1667 5.50616 9.99277 4.6072 9.69312C4.16121 9.54445 3.75219 9.35274 3.44098 9.10748C3.13729 8.86814 2.83333 8.49893 2.83333 8C2.83333 7.63181 3.13181 7.33333 3.5 7.33333ZM4.16566 10.963C4.17749 10.9796 4.20556 11.0124 4.26628 11.0603C4.4105 11.1739 4.66049 11.3054 5.02884 11.4282C5.75856 11.6714 6.80907 11.8333 8 11.8333C9.19093 11.8333 10.2414 11.6714 10.9712 11.4282C11.3395 11.3054 11.5895 11.1739 11.7337 11.0603C11.7944 11.0124 11.8225 10.9796 11.8343 10.963C11.8536 10.612 12.1442 10.3333 12.5 10.3333C12.8682 10.3333 13.1667 10.6318 13.1667 11C13.1667 11.4989 12.8627 11.8681 12.559 12.1075C12.2478 12.3527 11.8388 12.5445 11.3928 12.6931C10.4938 12.9928 9.29436 13.1667 8 13.1667C6.70565 13.1667 5.50616 12.9928 4.6072 12.6931C4.16121 12.5445 3.75219 12.3527 3.44098 12.1075C3.13729 11.8681 2.83333 11.4989 2.83333 11C2.83333 10.6318 3.13181 10.3333 3.5 10.3333C3.85576 10.3333 4.14644 10.612 4.16566 10.963Z" />
</svg>
