<!-- eslint-disable max-len -->
<svg viewBox="0 0 12 12">
    <path d="M7.87342 3.97156C8.07322 4.08573 8.14263 4.34025 8.02846 4.54005L6.12762 7.86652L4.08336 6.33333C3.89926 6.19526 3.86195 5.93409 4.00002 5.75C4.1381 5.5659 4.39926 5.52859 4.58336 5.66666L5.87243 6.63347L7.30492 4.1266C7.41909 3.92681 7.67362 3.85739 7.87342 3.97156Z M0 0H12V12H0V0ZM9.82112 5.16477L9.29189 4.63574V3.88842C9.29189 3.57547 9.16762 3.27533 8.94642 3.05404C8.72521 2.83275 8.42519 2.70843 8.11236 2.70843H7.36531L6.8361 2.17901C6.72656 2.06942 6.59652 1.98249 6.4534 1.92317C6.31028 1.86386 6.15688 1.83333 6.00196 1.83333C5.84705 1.83333 5.69365 1.86386 5.55053 1.92317C5.40741 1.98249 5.27737 2.06942 5.16784 2.17901L4.63901 2.70843H3.89197C3.57913 2.70843 3.27911 2.83275 3.05791 3.05404C2.8367 3.27533 2.71243 3.57547 2.71243 3.88842V4.63574L2.17888 5.16477C2.06933 5.27434 1.98243 5.40443 1.92314 5.54761C1.86385 5.69078 1.83333 5.84424 1.83333 5.99921C1.83333 6.15419 1.86385 6.30764 1.92314 6.45082C1.98243 6.594 2.06933 6.72408 2.17888 6.83366L2.70967 7.36426V8.11158C2.70967 8.42453 2.83395 8.72467 3.05515 8.94596C3.27636 9.16725 3.57638 9.29157 3.88921 9.29157H4.63626L5.16705 9.82099C5.27658 9.93058 5.40662 10.0175 5.54974 10.0768C5.69286 10.1361 5.84626 10.1667 6.00118 10.1667C6.1561 10.1667 6.30949 10.1361 6.45261 10.0768C6.59574 10.0175 6.72578 9.93058 6.83531 9.82099L7.36414 9.29157H8.11118C8.42401 9.29157 8.72403 9.16725 8.94524 8.94596C9.16644 8.72467 9.29072 8.42453 9.29072 8.11158V7.36426L9.81994 6.83484C9.92974 6.72532 10.0169 6.59522 10.0764 6.45198C10.1359 6.30873 10.1666 6.15516 10.1667 6.00005C10.1668 5.84493 10.1363 5.69132 10.077 5.54799C10.0177 5.40467 9.93077 5.27444 9.82112 5.16477Z" />
</svg>
