<!-- eslint-disable max-len -->
<svg viewBox="0 0 16 16">
    <path d="M0 0H16V16H0V0ZM6.76824 13.5424C7.06776 13.609 7.36453 13.4201 7.43108 13.1206L9.6533 3.12061C9.71986 2.82109 9.53101 2.52433 9.23149 2.45777C8.93197 2.39121 8.6352 2.58006 8.56864 2.87958L6.34643 12.8796C6.27987 13.1791 6.46872 13.4759 6.76824 13.5424ZM5.61498 11.1707C5.83194 10.9538 5.83194 10.602 5.61498 10.3851L3.23004 8.00011L5.61498 5.61517C5.83194 5.39821 5.83194 5.04645 5.61498 4.8295C5.39802 4.61254 5.04626 4.61254 4.82931 4.8295L1.65869 8.00011L4.82931 11.1707C5.04626 11.3877 5.39802 11.3877 5.61498 11.1707ZM10.3849 4.8295C10.1679 5.04645 10.1679 5.39821 10.3849 5.61517L12.7698 8.00011L10.3849 10.3851C10.1679 10.602 10.1679 10.9538 10.3849 11.1707C10.6018 11.3877 10.9536 11.3877 11.1705 11.1707L14.3411 8.00011L11.1705 4.8295C10.9536 4.61254 10.6018 4.61254 10.3849 4.8295Z" />
</svg>
