<!-- eslint-disable max-len -->
<svg viewBox="0 0 16 16">
    <path d="M10.4979 5.29539C10.7643 5.44761 10.8568 5.78698 10.7046 6.05338L8.17013 10.4887L5.44445 8.44441C5.19899 8.26032 5.14924 7.91209 5.33334 7.66663C5.51743 7.42117 5.86566 7.37143 6.11112 7.55552L7.82988 8.84459L9.73987 5.50211C9.8921 5.23571 10.2315 5.14316 10.4979 5.29539Z M16 0H0V16H16V0ZM13.0948 6.88633C13.241 7.03256 13.3569 7.20619 13.436 7.3973C13.5151 7.5884 13.5557 7.79322 13.5555 8.00004C13.5554 8.20686 13.5145 8.41162 13.4351 8.60261C13.3558 8.7936 13.2396 8.96707 13.0932 9.11309L12.3876 9.81898V10.8154C12.3876 11.2327 12.2219 11.6329 11.927 11.9279C11.632 12.223 11.232 12.3887 10.8149 12.3887H9.81882L9.11372 13.0946C8.96767 13.2407 8.79429 13.3567 8.60346 13.4357C8.41263 13.5148 8.2081 13.5555 8.00155 13.5555C7.79499 13.5555 7.59046 13.5148 7.39963 13.4357C7.2088 13.3567 7.03541 13.2407 6.88937 13.0946L6.18165 12.3887H5.18559C4.76848 12.3887 4.36845 12.223 4.07351 11.9279C3.77857 11.6329 3.61287 11.2327 3.61287 10.8154V9.81898L2.90515 9.11152C2.75908 8.96542 2.64321 8.79197 2.56416 8.60107C2.4851 8.41016 2.44442 8.20556 2.44442 7.99892C2.44442 7.79229 2.4851 7.58768 2.56416 7.39678C2.64321 7.20588 2.75908 7.03243 2.90515 6.88633L3.61654 6.18096V5.18453C3.61654 4.76726 3.78224 4.36708 4.07718 4.07203C4.37212 3.77698 4.77215 3.61122 5.18926 3.61122H6.18532L6.89042 2.90532C7.03646 2.7592 7.20985 2.64329 7.40068 2.5642C7.59151 2.48512 7.79604 2.44442 8.00259 2.44442C8.20915 2.44442 8.41368 2.48512 8.60451 2.5642C8.79534 2.64329 8.96872 2.7592 9.11477 2.90532L9.82039 3.61122H10.8164C11.2336 3.61122 11.6336 3.77698 11.9285 4.07203C12.2235 4.36708 12.3892 4.76726 12.3892 5.18453V6.18096L13.0948 6.88633Z" />
</svg>
