<!-- eslint-disable max-len -->
<svg viewBox="0 0 16 16">
    <path d="M0 0H16V16H0V0ZM10.8889 5.4932C10.8889 3.95163 9.57361 2.88892 7.77778 2.88892C6.39139 2.88892 5.30155 3.46889 4.86055 4.49097C4.72721 4.77045 4.66667 5.01855 4.66667 5.32926C4.66667 5.52703 4.72212 5.69856 4.84296 5.82067C4.96399 5.94297 5.13555 6.00048 5.33674 6.00048C5.51115 6.00048 5.66087 5.96468 5.78261 5.85492C5.89986 5.7492 5.976 5.58793 6.03783 5.37374C6.14873 4.98444 6.34985 4.68739 6.62908 4.48718C6.90885 4.28659 7.27576 4.17671 7.72825 4.17671C8.2274 4.17671 8.63327 4.32083 8.91252 4.56134C9.19035 4.80061 9.35063 5.14165 9.35063 5.55467C9.35063 5.88409 9.27599 6.14596 9.1091 6.38294C8.94004 6.62301 8.67073 6.84554 8.26655 7.08441C7.77434 7.36887 7.40545 7.67082 7.16007 8.02659C6.9131 8.38468 6.79638 8.78986 6.79638 9.27052V9.46177C6.79638 9.67282 6.84797 9.8763 6.97136 10.0293C7.09767 10.1859 7.28868 10.2764 7.53721 10.2764C7.7837 10.2764 7.97176 10.1923 8.09422 10.0322C8.21254 9.87746 8.25681 9.66814 8.25681 9.44128C8.25681 9.09705 8.3176 8.84711 8.47616 8.62251C8.6378 8.39353 8.90953 8.17919 9.3548 7.92534C10.2843 7.38552 10.8889 6.61587 10.8889 5.4932ZM7.53014 13.1111C8.04834 13.1111 8.44785 12.7229 8.44785 12.2213C8.44785 11.7123 8.04769 11.3315 7.53014 11.3315C7.02031 11.3315 6.61242 11.7117 6.61242 12.2213C6.61242 12.7235 7.01966 13.1111 7.53014 13.1111Z" />
</svg>
