<!-- eslint-disable max-len -->
<svg viewBox="0 0 16 16">
    <path d="M3.27778 5.45233L6.10326 8.00004L3.27778 10.5477V5.45233Z M9.11116 8.78571L11.9366 11.3334H4.0635L6.88893 8.78571L7.60721 9.50398C7.71139 9.60817 7.8527 9.6667 8.00004 9.6667C8.14739 9.6667 8.28869 9.60817 8.39288 9.50398L9.11116 8.78571Z M12.7222 10.5477L9.89683 8.00004L12.7222 5.45242V10.5477Z M8.00004 8.32547L4.06349 4.66669H11.9366L8.00004 8.32547Z M0 0H16V16H0V0ZM12.7222 3.55558H3.27778C2.66413 3.55558 2.16667 4.05304 2.16667 4.66669V11.3334C2.16667 11.947 2.66413 12.4445 3.27778 12.4445H12.7222C13.3359 12.4445 13.8333 11.947 13.8333 11.3334V4.66669C13.8333 4.05304 13.3359 3.55558 12.7222 3.55558Z" />
</svg>
