<!-- eslint-disable max-len -->
<svg viewBox="0 0 16 16">
    <path d="M5.77775 7.99997C5.77775 9.2631 6.81984 10.2222 7.99993 10.2222C9.18003 10.2222 10.2222 9.2631 10.2222 7.99997C10.2222 6.73684 9.18003 5.77775 7.99993 5.77775C6.81984 5.77775 5.77775 6.73684 5.77775 7.99997Z M0 0H16V16H0V0ZM4.49822 3.38336C5.02231 4.09667 5.1189 5.1077 4.66908 5.94156C4.21916 6.7757 3.35248 7.19169 2.51311 7.06226C2.4679 7.36774 2.44442 7.68092 2.44442 7.99997C2.44442 8.31902 2.4679 8.63221 2.5131 8.93769C3.35248 8.80821 4.21916 9.22424 4.66908 10.0583C5.1189 10.8922 5.02231 11.9033 4.49822 12.6166C4.95035 13.01 5.46138 13.3288 6.01496 13.5555C6.32973 12.7124 7.09984 12.1167 7.99993 12.1167C8.90004 12.1167 9.67015 12.7123 9.98492 13.5555C10.5385 13.3288 11.0496 13.01 11.5017 12.6166C10.9776 11.9033 10.881 10.8922 11.3308 10.0583C11.7808 9.22424 12.6475 8.80821 13.4868 8.93769C13.532 8.63221 13.5555 8.31902 13.5555 7.99997C13.5555 7.68092 13.5321 7.36774 13.4868 7.06231C12.6475 7.1918 11.7808 6.77576 11.3308 5.94162C10.881 5.10776 10.9776 4.09667 11.5017 3.38336C11.0496 2.99 10.5385 2.67117 9.98492 2.44442C9.67015 3.2876 8.90004 3.88327 7.99993 3.88327C7.09984 3.88327 6.32973 3.28755 6.01496 2.44442C5.46138 2.67117 4.95035 2.99 4.49822 3.38336Z" />
</svg>
