<!-- eslint-disable max-len -->
<svg viewBox="0 0 16 16">
    <path d="M4.32904 6.76191C4.32904 7.73333 3.90144 8.15238 3.34647 8.19048H3.32828V5.29524H3.38287C3.95603 5.29524 4.32904 5.72381 4.32904 6.74286V6.76191Z M8.82987 8.13826V7.86174C8.82987 5.85936 8.27303 5.27771 7.63265 5.27771H7.57697V10.7223H7.63265C8.28231 10.7223 8.82987 10.1406 8.82987 8.13826Z M16 0H0V16H16V0ZM3.19181 4C4.63836 4 5.65732 4.81905 5.65732 6.69524V6.71429C5.65732 8.52381 4.69295 9.37143 3.34647 9.47619H3.32828V12H2V4H3.19181ZM7.49344 4C9.22894 4 10.222 5.29678 10.222 7.86174V8.13826C10.222 10.7128 9.22894 12 7.49344 12H6.22198V4H7.49344ZM11 4H14V5.32381H12.3283V7.33333H14V8.65714H12.3283V11.9905H11V4Z" />
</svg>
