<!-- eslint-disable max-len -->
<svg viewBox="0 0 16 16">
    <path d="M4.48148 11.3333C4.20494 11.3333 4.11111 11.2244 4.11111 10.9444V5.50101H11.8889V10.9444C11.8889 11.2244 11.7951 11.3333 11.5185 11.3333H4.48148ZM6.33333 7.44442C6.33333 7.13759 6.0846 6.88886 5.77778 6.88886C5.47095 6.88886 5.22222 7.13759 5.22222 7.44442C5.22222 7.75124 5.47095 7.99997 5.77778 7.99997C6.0846 7.99997 6.33333 7.75124 6.33333 7.44442ZM5.77778 10.2222C6.0846 10.2222 6.33333 9.97346 6.33333 9.66664C6.33333 9.35981 6.0846 9.11108 5.77778 9.11108C5.47095 9.11108 5.22222 9.35981 5.22222 9.66664C5.22222 9.97346 5.47095 10.2222 5.77778 10.2222ZM8 7.99997C8.30683 7.99997 8.55556 7.75124 8.55556 7.44442C8.55556 7.13759 8.30683 6.88886 8 6.88886C7.69317 6.88886 7.44444 7.13759 7.44444 7.44442C7.44444 7.75124 7.69317 7.99997 8 7.99997ZM8 10.2222C8.30683 10.2222 8.55556 9.97346 8.55556 9.66664C8.55556 9.35981 8.30683 9.11108 8 9.11108C7.69317 9.11108 7.44444 9.35981 7.44444 9.66664C7.44444 9.97346 7.69317 10.2222 8 10.2222ZM10.2222 7.99997C10.529 7.99997 10.7778 7.75124 10.7778 7.44442C10.7778 7.13759 10.529 6.88886 10.2222 6.88886C9.9154 6.88886 9.66667 7.13759 9.66667 7.44442C9.66667 7.75124 9.9154 7.99997 10.2222 7.99997ZM10.2222 10.2222C10.529 10.2222 10.7778 9.97346 10.7778 9.66664C10.7778 9.35981 10.529 9.11108 10.2222 9.11108C9.9154 9.11108 9.66667 9.35981 9.66667 9.66664C9.66667 9.97346 9.9154 10.2222 10.2222 10.2222Z M0 0H16V16H0V0ZM11.5185 3.55553H11.3333V2.94442C11.3333 2.66442 11.0543 2.44442 10.7778 2.44442C10.5012 2.44442 10.2222 2.66442 10.2222 2.94442V3.55553H5.77778V2.94442C5.77778 2.66442 5.49877 2.44442 5.22222 2.44442C4.94568 2.44442 4.66667 2.66442 4.66667 2.94442V3.55553H4.41398C3.59422 3.55553 3 4.11442 3 4.94442V10.9444C3 11.7744 3.66173 12.4444 4.48148 12.4444H11.5185C12.3383 12.4444 13 11.7744 13 10.9444V4.94442C13 4.11442 12.3383 3.55553 11.5185 3.55553Z" />
</svg>
