<!-- eslint-disable max-len -->
<svg viewBox="0 0 16 16">
    <path d="M1.72199 14H12.6745C12.981 14 13.2475 13.7867 13.3141 13.4933L15.9793 4.49332C16.0326 4.29332 15.9793 4.07999 15.8594 3.91999C15.7395 3.75999 15.5396 3.66666 15.3397 3.66666L8.57008 3.66667L7.42405 2.20001C7.30411 2.06667 7.13087 2.00001 6.95764 2.00001L4.3872 2C4.06738 2 3.80086 2.21333 3.73423 2.52L3.53101 3.33331H0.667763C0.467873 3.33331 0.281309 3.41331 0.14805 3.58665C0.0147897 3.74665 -0.0251882 3.94665 0.0147898 4.14665L0.841014 13.3812C0.896268 13.6355 1.1898 13.8721 1.46321 13.9454C1.54431 13.981 1.63179 14 1.72199 14ZM1.89072 9.89808L1.49397 4.66665H3.19786L1.89072 9.89808ZM12.1548 12.6667H2.5482L4.92024 3.33333L6.67779 3.33334L7.82383 4.8C7.94376 4.93333 8.117 5 8.29023 5L14.4868 4.99999L12.1548 12.6667Z" />
</svg>
