<!-- eslint-disable max-len -->
<svg viewBox="0 0 16 16">
    <path d="M6 0C5.63181 0 5.33333 0.298477 5.33333 0.666667V2.66667H3.33333C2.96514 2.66667 2.66667 2.96514 2.66667 3.33333V5.33333H0.666667C0.298477 5.33333 0 5.63181 0 6V13.6667C0 14.0349 0.298477 14.3333 0.666667 14.3333H9.72386C10.092 14.3333 10.3905 14.0349 10.3905 13.6667V12H12.6667C13.0349 12 13.3333 11.7015 13.3333 11.3333V9.33333H15.3333C15.7015 9.33333 16 9.03486 16 8.66667V2C16 1.63181 15.7015 1.33333 15.3333 1.33333H10.9428L9.80474 0.195262C9.67971 0.0702379 9.51015 0 9.33333 0H6ZM13.3333 8V4.66667C13.3333 4.29848 13.0349 4 12.6667 4H8.27614L7.13807 2.86193C7.01305 2.7369 6.84348 2.66667 6.66667 2.66667V1.33333H9.05719L10.1953 2.4714C10.3203 2.59643 10.4899 2.66667 10.6667 2.66667H14.6667V8H13.3333ZM4 4H6.39052L7.5286 5.13807C7.65362 5.2631 7.82319 5.33333 8 5.33333H12V10.6667H10.3905V7.33333C10.3905 6.96514 10.092 6.66667 9.72386 6.66667H5.60948L4.4714 5.5286C4.34638 5.40357 4.17681 5.33333 4 5.33333V4ZM1.33333 6.66667H3.72386L4.86193 7.80474C4.98695 7.92976 5.15652 8 5.33333 8H9.05719V13H1.33333V6.66667Z" />
</svg>
