<!-- eslint-disable max-len -->
<svg viewBox="0 0 16 16">
    <path d="M9.32823 6.66669C9.32823 6.2985 9.02992 6.00002 8.66193 6.00002C8.29395 6.00002 7.99564 6.2985 7.99564 6.66669V8.00002H6.66304C6.29505 8.00002 5.99674 8.2985 5.99674 8.66669C5.99674 9.03488 6.29505 9.33336 6.66304 9.33336H7.99564V10.6667C7.99564 11.0349 8.29395 11.3334 8.66193 11.3334C9.02992 11.3334 9.32823 11.0349 9.32823 10.6667V9.33336H10.6608C11.0288 9.33336 11.3271 9.03488 11.3271 8.66669C11.3271 8.2985 11.0288 8.00002 10.6608 8.00002H9.32823V6.66669Z M12.6777 14.0035H1.72242C1.6322 14.0035 1.5447 13.9845 1.46358 13.9489C1.1901 13.8755 0.896492 13.6389 0.841224 13.3845L0.0147935 4.14767C-0.0251945 3.94762 0.0147934 3.74757 0.148087 3.58753C0.28138 3.41415 0.46799 3.33413 0.66793 3.33413H3.5319L3.73516 2.52062C3.80181 2.21387 4.0684 2.00049 4.3883 2.00049L6.95938 2.0005C7.13266 2.0005 7.30594 2.06718 7.4259 2.20055L8.57222 3.66757L15.3435 3.66756C15.5435 3.66756 15.7434 3.76092 15.8634 3.92096C15.9833 4.081 16.0367 4.29439 15.9833 4.49444L13.3175 13.4967C13.2508 13.7901 12.9842 14.0035 12.6777 14.0035ZM1.49435 4.6678L1.89119 9.90055L3.19866 4.6678H1.49435ZM2.54884 12.6698H12.1578L14.4905 5.00123L8.29231 5.00124C8.11903 5.00124 7.94575 4.93456 7.82578 4.80119L6.67946 3.33416L4.92147 3.33416L2.54884 12.6698Z" />
</svg>
