<!-- eslint-disable max-len -->
<svg viewBox="0 0 12 12">
    <path d="M5.5 9H2.07625C1.86564 9 1.57575 8.85432 1.52563 8.63901L1.00924 3.25221C0.984257 3.13554 1.00924 3.01888 1.09253 2.92554C1.17582 2.82443 1.29242 2.77777 1.41735 2.77777H3.20688L3.33389 2.30333C3.37554 2.12444 3.54211 2 3.742 2L5.34852 2C5.4568 2 5.56507 2.03889 5.64003 2.11667L6.3563 2.77778L10.5873 2.77778C10.7122 2.77778 10.8372 2.83222 10.9121 2.92556C10.9871 3.01889 11.0204 3.14333 10.9871 3.26L9.32133 8.70444C9.27969 8.87556 9.11311 9 8.92155 9H6.5V10H12V11H0V10H5.5V9ZM2.99866 3.55554H1.93373L2.1817 6.60722L2.99866 3.55554ZM2.59263 8.22222H8.59673L10.0543 3.55556L6.1814 3.55556C6.07312 3.55556 5.96485 3.51667 5.88989 3.43889L5.17362 2.77778L4.07515 2.77778L2.59263 8.22222Z" />
</svg>
