<!-- eslint-disable max-len -->
<svg viewBox="0 0 16 16">
    <path d="M9.00003 5.66796C9.00003 5.29977 8.70156 5.00129 8.33337 5.00129C7.96518 5.00129 7.6667 5.29977 7.6667 5.66796V6.66796H6.6667C6.29851 6.66796 6.00003 6.96643 6.00003 7.33462C6.00003 7.70281 6.29851 8.00129 6.6667 8.00129H7.6667V9.00129C7.6667 9.36948 7.96518 9.66796 8.33337 9.66796C8.70156 9.66796 9.00003 9.36948 9.00003 9.00129V8.00129H10C10.3682 8.00129 10.6667 7.70281 10.6667 7.33462C10.6667 6.96643 10.3682 6.66796 10 6.66796H9.00003V5.66796Z M2.58586 11.603H7.34322V13.6701H0.00805664V15.0038H16.0121V13.6701H8.67689V11.603H12.0347C12.2992 11.603 12.5291 11.4198 12.5866 11.168L14.8859 3.44992C14.9319 3.27821 14.8859 3.09505 14.7824 2.95768C14.679 2.82031 14.5065 2.74018 14.3341 2.74018L8.49382 2.74019L7.50511 1.47213C7.40165 1.35766 7.25219 1.30042 7.10274 1.30042L4.88518 1.30042C4.60927 1.30042 4.37934 1.48357 4.32185 1.74686L4.14653 2.44513H1.67636C1.50391 2.44513 1.34296 2.51381 1.228 2.66263C1.11303 2.79999 1.07854 2.9717 1.11303 3.14341L1.82583 11.0717C1.8735 11.29 2.12673 11.4932 2.36261 11.5561C2.43257 11.5867 2.50805 11.603 2.58586 11.603ZM2.73142 8.0813L2.38915 3.58986H3.85912L2.73142 8.0813ZM11.5864 10.4583H3.29865L5.34504 2.44515L6.86131 2.44515L7.85001 3.71321C7.95348 3.82768 8.10293 3.88492 8.25239 3.88492L13.5983 3.88491L11.5864 10.4583Z" />
</svg>
