<!-- eslint-disable max-len -->
<svg viewBox="0 0 16 16">
    <path d="M1.72199 14H12.6745C12.981 14 13.2475 13.7867 13.3141 13.4933L15.9793 4.16C16.0326 3.96 15.9793 3.74667 15.8594 3.58667C15.7395 3.42667 15.5396 3.33333 15.3397 3.33333L8.57008 3.33334L7.42405 2.20001C7.30411 2.06667 7.13087 2.00001 6.95764 2.00001L4.3872 2C4.06738 2 3.80086 2.21333 3.73423 2.52L3.53101 3.33331H0.667763C0.467873 3.33331 0.281309 3.41331 0.14805 3.58665C0.0147897 3.74665 -0.0251882 3.94665 0.0147898 4.14665L0.841014 13.3812C0.896268 13.6355 1.1898 13.8721 1.46321 13.9454C1.54431 13.981 1.63179 14 1.72199 14ZM2 11L1.49397 4.66665H3.19786L2 11Z" />
</svg>
