<!-- eslint-disable max-len -->
<svg viewBox="0 0 16 16">
    <path d="M2.56792 11.585H7.32528V13.6522H-0.0098877V14.9858H15.9941V13.6522H8.65895V11.585H12.0168C12.2812 11.585 12.5112 11.4019 12.5686 11.15L14.868 3.43197C14.9139 3.26026 14.868 3.07711 14.7645 2.93974C14.661 2.80237 14.4886 2.72224 14.3161 2.72224L8.47587 2.72225L7.48717 1.45419C7.3837 1.33971 7.23425 1.28248 7.08479 1.28248L4.86724 1.28247C4.59132 1.28247 4.36139 1.46563 4.30391 1.72892L4.12859 2.42718H1.65842C1.48597 2.42718 1.32502 2.49587 1.21005 2.64468C1.09509 2.78205 1.0606 2.95376 1.09509 3.12547L1.80788 11.0537C1.85555 11.2721 2.10879 11.4752 2.34466 11.5382C2.41463 11.5687 2.4901 11.585 2.56792 11.585ZM2.71348 8.06336L2.3712 3.57191H3.84118L2.71348 8.06336ZM11.5684 10.4403H3.2807L5.3271 2.4272L6.84336 2.42721L7.83207 3.69527C7.93553 3.80974 8.08499 3.86698 8.23444 3.86698L13.5803 3.86697L11.5684 10.4403Z" />
</svg>
