<!-- eslint-disable max-len -->
<svg viewBox="0 0 16 16">
    <path d="M11.9846 3.56C11.9846 3.4 11.9313 3.22667 11.8114 3.10667L9.13288 0.213334C9.01295 0.0800005 8.82638 -7.5767e-09 8.65315 0C8.46658 8.15877e-09 8.29334 0.0800006 8.17341 0.213334L5.50822 3.10667C5.25502 3.37333 5.26835 3.8 5.53487 4.05333C5.80139 4.30667 6.22782 4.29333 6.46769 4.01333L7.98685 2.36278V10.0267C7.98685 10.4 8.28002 10.6933 8.65315 10.6933C9.01295 10.6933 9.31944 10.4 9.31944 10.0267V2.38279L10.8386 4.01333C11.0918 4.28 11.5049 4.29333 11.7714 4.04C11.918 3.92 11.9846 3.74667 11.9846 3.56Z M4.38318 5.33335L6.65896 5.33336V6.66669L4.91621 6.66668L2.54415 14.6667H12.1507L14.4828 8.00002L10.6568 8.00002V6.66669L15.3357 6.66668C15.5356 6.66668 15.7354 6.76002 15.8554 6.92002C15.9753 7.08002 16.0286 7.29335 15.9753 7.49335L13.3101 15.4933C13.2434 15.7867 12.9769 16 12.6704 16H1.71794C1.62774 16 1.54025 15.981 1.45916 15.9455C1.18575 15.8721 0.892213 15.6355 0.836959 15.3812L0.0107614 7.47999C-0.0292165 7.27999 0.0107614 7.08 0.144021 6.92C0.277281 6.74666 0.463845 6.66666 0.663734 6.66666H3.52699L3.7302 5.85335C3.79683 5.54668 4.06335 5.33335 4.38318 5.33335ZM1.88666 11.8981L3.19383 7.99999H1.48994L1.88666 11.8981Z" />
</svg>
