<!-- eslint-disable max-len -->
<svg viewBox="0 0 16 16">
    <path d="M14.6667 7.99998C14.6667 11.6819 11.6819 14.6666 8.00004 14.6666C4.31814 14.6666 1.33337 11.6819 1.33337 7.99998C1.33337 4.31808 4.31814 1.33331 8.00004 1.33331C11.6819 1.33331 14.6667 4.31808 14.6667 7.99998ZM13.0667 7.99998C13.0667 6.88958 12.7095 5.86261 12.1037 5.02771L5.02777 12.1037C5.86268 12.7094 6.88964 13.0666 8.00004 13.0666C10.7983 13.0666 13.0667 10.7982 13.0667 7.99998ZM3.89639 10.9723L10.9724 3.89633C10.1375 3.29053 9.11047 2.93331 8.00004 2.93331C5.2018 2.93331 2.93337 5.20174 2.93337 7.99998C2.93337 9.11041 3.2906 10.1374 3.89639 10.9723Z" />
</svg>
