<!-- eslint-disable max-len -->
<svg viewBox="0 0 16 16">
    <path d="M8.66667 11.9587C11.2975 11.6307 13.3333 9.38639 13.3333 6.66665C13.3333 3.72113 10.9455 1.33331 8 1.33331C5.05448 1.33331 2.66667 3.72113 2.66667 6.66665C2.66667 9.38639 4.70246 11.6307 7.33333 11.9587V13.6667H0V15H16V13.6667H8.66667V11.9587ZM8 10.72C7.11168 10.72 6.29011 10.4342 5.62219 9.94961L11.283 4.28883C11.7676 4.95675 12.0533 5.77833 12.0533 6.66665C12.0533 8.90524 10.2386 10.72 8 10.72ZM10.3779 3.38373L4.71708 9.04453C4.23244 8.37659 3.94667 7.55499 3.94667 6.66665C3.94667 4.42805 5.76141 2.61331 8 2.61331C8.88835 2.61331 9.70994 2.89909 10.3779 3.38373Z" />
</svg>
