<!-- eslint-disable max-len -->
<svg viewBox="0 0 16 16">
    <path d="M2.13674 2.73705C2.3626 2.28534 2.82428 2 3.32931 2H12.6626C13.1677 2 13.6294 2.28534 13.8552 2.73705C14.0811 3.18876 14.0323 3.72931 13.7293 4.13333L9.99598 9.11111V12.6667C9.99598 13.0203 9.8555 13.3594 9.60545 13.6095L8.27212 14.9428C7.89079 15.3241 7.3173 15.4382 6.81907 15.2318C6.32084 15.0255 5.99598 14.5393 5.99598 14V9.11111L2.26265 4.13333C1.95963 3.72931 1.91089 3.18876 2.13674 2.73705ZM8.66265 8.66667L12.6626 3.33333H3.32931L7.32931 8.66667V14L8.66265 12.6667V8.66667Z" />
</svg>
