<!-- eslint-disable max-len -->
<svg viewBox="0 0 16 16">
    <path d="M5.61802 1.33337C4.95373 1.60548 4.34049 1.98807 3.79794 2.46011C4.42684 3.31608 4.54275 4.52932 4.00297 5.52995C3.46306 6.53092 2.42305 7.0301 1.4158 6.87478C1.36155 7.24136 1.33337 7.61718 1.33337 8.00004C1.33337 8.3829 1.36155 8.75872 1.4158 9.1253C2.42304 8.96992 3.46306 9.46916 4.00297 10.4701C4.54275 11.4708 4.42684 12.684 3.79794 13.54C4.34049 14.012 4.95373 14.3946 5.61802 14.6667C5.99575 13.655 6.91988 12.9401 7.99999 12.9401C9.08012 12.9401 10.0043 13.6549 10.382 14.6667C11.0463 14.3946 11.6596 14.0121 12.2021 13.54C11.5732 12.6841 11.4573 11.4708 11.9971 10.4701C12.537 9.46916 13.577 8.96992 14.5843 9.1253C14.6385 8.75872 14.6667 8.3829 14.6667 8.00004C14.6667 7.61718 14.6385 7.24136 14.5843 6.87485C13.577 7.03023 12.537 6.53099 11.9971 5.53002C11.4573 4.52938 11.5732 3.31608 12.2022 2.46011C11.6596 1.98807 11.0463 1.60548 10.382 1.33337C10.0043 2.3452 9.08012 3.05999 7.99999 3.05999C6.91988 3.05999 5.99575 2.34513 5.61802 1.33337ZM7.99999 10.6667C6.58388 10.6667 5.33337 9.5158 5.33337 8.00004C5.33337 6.48428 6.58388 5.33337 7.99999 5.33337C9.41611 5.33337 10.6667 6.48428 10.6667 8.00004C10.6667 9.5158 9.41611 10.6667 7.99999 10.6667Z" />
</svg>
