<!-- eslint-disable max-len -->
<svg viewBox="0 0 16 16">
    <path d="M7.53039 1.19556C7.79081 0.93514 8.21302 0.93514 8.47344 1.19556L15.1418 7.86389C15.4022 8.1243 15.4022 8.54652 15.1418 8.80693C14.8814 9.06735 14.4591 9.06735 14.1987 8.80693L13.3366 7.94479V13.0032C13.3366 13.7398 12.7395 14.3369 12.0029 14.3369H4.00092C3.26435 14.3369 2.66725 13.7398 2.66725 13.0032V7.94479L1.8051 8.80693C1.54469 9.06735 1.12247 9.06735 0.862059 8.80693C0.601644 8.54652 0.601644 8.1243 0.862059 7.86389L7.53039 1.19556ZM8.00192 2.61012L4.00092 6.61112V13.0032H6.66825V9.00224H9.33558V13.0032H12.0029V6.61112L8.00192 2.61012Z" />
</svg>
