<!-- eslint-disable max-len -->
<svg viewBox="0 0 16 16">
    <path d="M13.0032 1.00028L3.00066 1.00024C2.26714 1.00024 1.66699 1.60039 1.66699 2.33391L1.66699 9.33568V12.6698C1.66699 13.0433 1.8137 13.3767 2.05376 13.6167C2.29382 13.8568 2.62723 14.0035 3.00066 14.0035L13.0032 14.0035C13.3766 14.0035 13.71 13.8568 13.9501 13.6168C14.1901 13.3767 14.3368 13.0433 14.3368 12.6699V9.33572L14.3368 2.33395C14.3368 1.60043 13.7367 1.00028 13.0032 1.00028ZM10.6692 9.33566C10.6692 10.8027 9.46895 12.003 8.00191 12.003C6.53488 12.003 5.33458 10.8027 5.33458 9.33566H3.00066L3.00066 2.33391L13.0032 2.33395L13.0032 9.3357L10.6692 9.33566Z" />
</svg>
