<!-- eslint-disable max-len -->
<svg viewBox="0 0 16 16">
    <path d="M1.33337 2.66667C1.33337 2.29848 1.63185 2 2.00004 2H14C14.3682 2 14.6667 2.29848 14.6667 2.66667C14.6667 3.03486 14.3682 3.33333 14 3.33333H2.00004C1.63185 3.33333 1.33337 3.03486 1.33337 2.66667Z M1.33337 13.3333C1.33337 12.9651 1.63185 12.6667 2.00004 12.6667H14C14.3682 12.6667 14.6667 12.9651 14.6667 13.3333C14.6667 13.7015 14.3682 14 14 14H2.00004C1.63185 14 1.33337 13.7015 1.33337 13.3333Z M7.33337 4.66667C6.96518 4.66667 6.66671 4.96514 6.66671 5.33333C6.66671 5.70152 6.96518 6 7.33337 6H14C14.3682 6 14.6667 5.70152 14.6667 5.33333C14.6667 4.96514 14.3682 4.66667 14 4.66667H7.33337Z M6.66671 8C6.66671 7.63181 6.96518 7.33333 7.33337 7.33333H14C14.3682 7.33333 14.6667 7.63181 14.6667 8C14.6667 8.36819 14.3682 8.66667 14 8.66667H7.33337C6.96518 8.66667 6.66671 8.36819 6.66671 8Z M7.33337 10C6.96518 10 6.66671 10.2985 6.66671 10.6667C6.66671 11.0349 6.96518 11.3333 7.33337 11.3333H14C14.3682 11.3333 14.6667 11.0349 14.6667 10.6667C14.6667 10.2985 14.3682 10 14 10H7.33337Z M5 8.00001L1.33337 11.0555V4.94449L5 8.00001Z" />
</svg>
