<!-- eslint-disable max-len -->
<svg viewBox="0 0 16 16">
    <path d="M7.99996 0.666687C3.94987 0.666687 0.666626 3.94993 0.666626 8.00002C0.666626 12.0501 3.94987 15.3334 7.99996 15.3334C12.05 15.3334 15.3333 12.0501 15.3333 8.00002C15.3333 3.94993 12.05 0.666687 7.99996 0.666687ZM8.99992 6.79999V12.6667C8.99992 13.1085 8.44182 13.4667 7.99999 13.4667C7.55816 13.4667 6.99992 13.1085 6.99992 12.6667V6.79999C6.99992 6.35816 7.55816 5.99999 7.99999 5.99999C8.44182 5.99999 8.99992 6.35816 8.99992 6.79999ZM8.00002 2.86665C8.58913 2.86665 9.06669 3.34421 9.06669 3.93331C9.06669 4.52242 8.58913 4.99998 8.00002 4.99998C7.41092 4.99998 6.93336 4.52242 6.93336 3.93331C6.93336 3.34421 7.41092 2.86665 8.00002 2.86665Z" />
</svg>
