<!-- eslint-disable max-len -->
<svg viewBox="0 0 16 16">
    <path d="M8.99999 7.5V11.5C8.99999 11.9418 8.49999 12.5 8.00002 12.5C7.50006 12.5 6.99999 11.9418 6.99999 11.5V7.5C6.99999 7.05817 7.49999 6.5 8.00002 6.5C8.49999 6.5 8.99999 7.05817 8.99999 7.5Z M6.93339 4.5C6.93339 3.9109 7.41095 3.43333 8.00005 3.43333C8.58916 3.43333 9.06672 3.9109 9.06672 4.5C9.06672 5.0891 8.58916 5.56667 8.00005 5.56667C7.41095 5.56667 6.93339 5.0891 6.93339 4.5Z M7.99999 0.666626C3.9499 0.666626 0.666657 3.94987 0.666656 7.99996C0.666656 12.05 3.9499 15.3333 7.99999 15.3333C12.0501 15.3333 15.3333 12.05 15.3333 7.99996C15.3333 3.94987 12.0501 0.666626 7.99999 0.666626ZM7.99999 1.99996C11.3137 1.99996 14 4.68625 14 7.99996C14 11.3137 11.3137 14 7.99999 14C4.68628 14 1.99999 11.3137 1.99999 7.99996C1.99999 4.68625 4.68628 1.99996 7.99999 1.99996Z" />
</svg>
