<!-- eslint-disable max-len -->
<svg viewBox="0 0 16 16">
    <path d="M9.62576 7.91038C10.7412 7.26259 11.4667 6.33901 11.4667 4.99181C11.4667 3.14192 9.88834 1.86667 7.73333 1.86667C6.06967 1.86667 4.76185 2.56264 4.23266 3.78913C4.07265 4.12451 4 4.42223 4 4.79508C4 5.03241 4.06655 5.23824 4.21156 5.38477C4.35679 5.53153 4.56266 5.60055 4.80409 5.60055C5.01338 5.60055 5.19304 5.55759 5.33913 5.42587C5.47983 5.29901 5.5712 5.10548 5.6454 4.84846C5.77847 4.3813 6.01982 4.02484 6.35489 3.78459C6.69062 3.54388 7.13091 3.41202 7.6739 3.41202C8.27288 3.41202 8.75993 3.58497 9.09502 3.87357C9.42842 4.16071 9.62075 4.56994 9.62075 5.06558C9.62075 5.46088 9.53119 5.77512 9.33092 6.0595C9.12805 6.34758 8.80487 6.61461 8.31986 6.90126C7.72921 7.24262 7.28654 7.60495 6.99209 8.03188C6.69572 8.46159 6.55566 8.9478 6.55566 9.52459V9.7541C6.55566 10.0074 6.61757 10.2515 6.76563 10.4351C6.9172 10.6231 7.14642 10.7317 7.44465 10.7317C7.74044 10.7317 7.96611 10.6307 8.11307 10.4386C8.25504 10.2529 8.30818 10.0017 8.30818 9.72951C8.30818 9.31643 8.38112 9.01651 8.57139 8.74698C8.76536 8.4722 9.09144 8.215 9.62576 7.91038Z M6.33491 13.0656C6.33491 13.6682 6.82359 14.1333 7.43616 14.1333C8.058 14.1333 8.53742 13.6674 8.53742 13.0656C8.53742 12.4548 8.05722 11.9978 7.43616 11.9978C6.82438 11.9978 6.33491 12.454 6.33491 13.0656Z" />
</svg>
