<!-- eslint-disable max-len -->
<svg viewBox="0 0 16 16">
    <path d="M6.39993 3.33332C6.39993 2.96513 6.75811 2.66666 7.19994 2.66666H11.2C11.6418 2.66666 12 2.96513 12 3.33332C12 3.70151 11.6418 3.99999 11.2 3.99999H9.7152L7.79518 12H8.80006C9.24189 12 9.60007 12.2985 9.60007 12.6667C9.60007 13.0348 9.24189 13.3333 8.80006 13.3333H4.80001C4.35818 13.3333 4 13.0348 4 12.6667C4 12.2985 4.35818 12 4.80001 12H6.03516L7.95518 3.99999H7.19994C6.75811 3.99999 6.39993 3.70151 6.39993 3.33332Z" />
</svg>
