<!-- eslint-disable max-len -->
<svg viewBox="0 0 16 16">
    <path d="M7.71145 3.28847C6.73757 4.26234 6.38852 5.62407 6.66302 6.87534L1.36531 12.1731C1.33247 12.2059 1.30773 12.2459 1.29304 12.29L0.869968 13.6092C0.839559 13.7004 0.854858 13.8007 0.911085 13.8787C0.967313 13.9567 1.05761 14.003 1.15378 14.003L4.69838 14.003C4.77772 14.003 4.85382 13.9715 4.90992 13.9154C4.96602 13.8593 4.99754 13.7832 4.99754 13.7038L4.99754 11.9854L5.54 11.4401L7.44124 11.8318C7.53932 11.8514 7.64072 11.8207 7.71145 11.75C7.78217 11.6792 7.81288 11.5779 7.79326 11.4798L7.40731 9.55L7.94994 9.00813C9.47794 10.3033 11.7698 10.2301 13.2114 8.78845C14.7302 7.26967 14.7302 4.80724 13.2114 3.28847C11.6927 1.76969 9.23023 1.76969 7.71145 3.28847ZM11.8 5.7C11.2477 5.7 10.8 5.25228 10.8 4.7C10.8 4.14771 11.2477 3.7 11.8 3.7C12.3523 3.7 12.8 4.14771 12.8 4.7C12.8 5.25228 12.3523 5.7 11.8 5.7Z" />
</svg>
