<!-- eslint-disable max-len -->
<svg viewBox="0 0 16 16">
    <path d="M2.67293 10.4984L6.727 6.44428C6.90977 6.26151 7.2042 6.26151 7.38697 6.44428L8.9426 7.99992L9.88541 7.05711L8.32978 5.50147C7.62631 4.798 6.48766 4.798 5.78419 5.50147L1.73012 9.55555C1.02665 10.259 1.02665 11.3977 1.73012 12.1011L3.89858 14.2696C4.60205 14.9731 5.74069 14.9731 6.44416 14.2696L8.4712 12.2426L7.52839 11.2997L5.50135 13.3268C5.31858 13.5096 5.02416 13.5096 4.84139 13.3268L2.67293 11.1583C2.49016 10.9756 2.49016 10.6811 2.67293 10.4984Z M13.3267 4.84151C13.5095 5.02428 13.5095 5.3187 13.3267 5.50147L9.2726 9.55556C9.08983 9.73833 8.79541 9.73833 8.61264 9.55555L7.057 7.99992L6.11419 8.94273L7.66983 10.4984C8.3733 11.2018 9.51194 11.2018 10.2154 10.4984L14.2695 6.44428C14.973 5.74081 14.973 4.60217 14.2695 3.8987L12.101 1.73024C11.3976 1.02677 10.2589 1.02677 9.55544 1.73024L7.52841 3.75728L8.47121 4.70009L10.4983 2.67305C10.681 2.49028 10.9754 2.49028 11.1582 2.67305L13.3267 4.84151Z" />
</svg>
