<!-- eslint-disable max-len -->
<svg viewBox="0 0 16 16">
    <path  d="M1.99994 2H2.99994V4.8H3.99994V1H2.99994L1.99994 2Z M1.19996 6.4V7.3C1.19996 7.3 3.29996 6.6 2.99996 7.2929C2.72631 7.92492 1.14641 9.14645 1.14641 9.14645C0.873585 9.41927 1.12546 9.8 1.49996 9.8H3.99996V9H2.70707C3.05739 8.64968 3.99996 7.85596 3.99996 7.3C3.99996 5.78979 2.99996 5.9 1.19996 6.4Z M1.49994 12.1V11.2C2.46854 10.9 3.99994 10.5795 3.99994 12.15C3.99994 12.8571 3.49994 13 3.49994 13C3.49994 13 3.99994 13.1429 3.99994 13.85C3.99994 15.4205 2.46854 15.1 1.49994 14.8V13.9C1.49994 13.9 2.79994 14.5 2.99994 13.9C3.16682 13.3994 2.19994 13.4 2.19994 13.4V12.6C2.19994 12.6 3.16682 12.6006 2.99994 12.1C2.79994 11.5 1.49994 12.1 1.49994 12.1Z M5.99994 3.20003C5.99994 2.7582 6.36626 2.40002 6.81813 2.40002H14.1818C14.6336 2.40002 14.9999 2.7582 14.9999 3.20003C14.9999 3.64186 14.6336 4.00004 14.1818 4.00004H6.81813C6.36626 4.00004 5.99994 3.64186 5.99994 3.20003Z M5.99994 8.00003C5.99994 7.5582 6.36626 7.20002 6.81813 7.20002H14.1818C14.6336 7.20002 14.9999 7.5582 14.9999 8.00003C14.9999 8.44186 14.6336 8.80004 14.1818 8.80004H6.81813C6.36626 8.80004 5.99994 8.44186 5.99994 8.00003Z M5.99994 12.8C5.99994 12.3582 6.36626 12 6.81813 12H14.1818C14.6336 12 14.9999 12.3582 14.9999 12.8C14.9999 13.2419 14.6336 13.6 14.1818 13.6H6.81813C6.36626 13.6 5.99994 13.2419 5.99994 12.8Z" />
</svg>
