<!-- eslint-disable max-len -->
<svg viewBox="0 0 16 16">
    <path d="M3.11117 4.52903C3.84755 4.52903 4.4445 3.93208 4.4445 3.1957C4.4445 2.45932 3.84755 1.86237 3.11117 1.86237C2.37479 1.86237 1.77783 2.45932 1.77783 3.1957C1.77783 3.93208 2.37479 4.52903 3.11117 4.52903Z M4.4445 8.00014C4.4445 8.73652 3.84755 9.33348 3.11117 9.33348C2.37479 9.33348 1.77783 8.73652 1.77783 8.00014C1.77783 7.26376 2.37479 6.66681 3.11117 6.66681C3.84755 6.66681 4.4445 7.26376 4.4445 8.00014Z M4.4445 12.8046C4.4445 13.541 3.84755 14.1379 3.11117 14.1379C2.37479 14.1379 1.77783 13.541 1.77783 12.8046C1.77783 12.0682 2.37479 11.4713 3.11117 11.4713C3.84755 11.4713 4.4445 12.0682 4.4445 12.8046Z M6 3.20003C6 2.7582 6.36631 2.40002 6.81818 2.40002H14.1818C14.6337 2.40002 15 2.7582 15 3.20003C15 3.64186 14.6337 4.00004 14.1818 4.00004H6.81818C6.36631 4.00004 6 3.64186 6 3.20003Z M6 8.00003C6 7.5582 6.36631 7.20002 6.81818 7.20002H14.1818C14.6337 7.20002 15 7.5582 15 8.00003C15 8.44186 14.6337 8.80004 14.1818 8.80004H6.81818C6.36631 8.80004 6 8.44186 6 8.00003Z M6.81818 12C6.36631 12 6 12.3582 6 12.8C6 13.2419 6.36631 13.6 6.81818 13.6H14.1818C14.6337 13.6 15 13.2419 15 12.8C15 12.3582 14.6337 12 14.1818 12H6.81818Z" />
</svg>
