<!-- eslint-disable max-len -->
<svg viewBox="0 0 16 16">
    <path d="M7.99996 8.00004C8.73634 8.00004 9.33329 7.40309 9.33329 6.66671C9.33329 5.93033 8.73634 5.33337 7.99996 5.33337C7.26358 5.33337 6.66663 5.93033 6.66663 6.66671C6.66663 7.40309 7.26358 8.00004 7.99996 8.00004Z M13.3333 6.66671C13.3333 10.6667 8.59255 16 7.99996 16C7.40737 16 2.66663 10.6667 2.66663 6.66671C2.66663 3.353 5.05444 1.33337 7.99996 1.33337C10.9455 1.33337 13.3333 3.353 13.3333 6.66671ZM12 6.66671C12 5.34675 11.5329 4.37172 10.8517 3.72295C10.1604 3.06466 9.16799 2.66671 7.99996 2.66671C6.83192 2.66671 5.83948 3.06466 5.14823 3.72295C4.46697 4.37172 3.99996 5.34675 3.99996 6.66671C3.99996 8.23801 4.9776 10.2841 6.21012 12.0785C6.80384 12.9429 7.41003 13.6814 7.88897 14.1919C7.92726 14.2327 7.96427 14.2716 7.99996 14.3085C8.03565 14.2716 8.07266 14.2327 8.11095 14.1919C8.58989 13.6814 9.19608 12.9429 9.7898 12.0785C11.0223 10.2841 12 8.23801 12 6.66671Z" />
</svg>
