<!-- eslint-disable max-len -->
<svg viewBox="0 0 12 12">
    <path d="M4.5 3.5V5H5.90096L5.19508 6H3.5V8.40137L2.5 9.81803V6C2.5 5.44772 2.94772 5 3.5 5V3.5C3.5 2.11929 4.61929 1 6 1C6.82359 1 7.55417 1.39825 8.00965 2.01269L7.37828 2.90713C7.14846 2.37355 6.61785 2 6 2C5.17157 2 4.5 2.67157 4.5 3.5Z M8.5 6.51208L9.29225 5.38973C9.42252 5.55858 9.5 5.77024 9.5 6V10C9.5 10.5523 9.05229 11 8.5 11H5.33206L6.03794 10H8.5V6.51208Z M9.90849 2.78835C10.0677 2.56275 10.0139 2.25077 9.78835 2.09152C9.56275 1.93227 9.25077 1.98606 9.09152 2.21166L3.09152 10.7117C2.93227 10.9373 2.98606 11.2492 3.21166 11.4085C3.43726 11.5677 3.74924 11.5139 3.90849 11.2883L9.90849 2.78835Z" />
</svg>
