<!-- eslint-disable max-len -->
<svg viewBox="0 0 16 16">
    <path d="M8 12C8.73638 12 9.33333 11.403 9.33333 10.6666C9.33333 9.93024 8.73638 9.33328 8 9.33328C7.26362 9.33328 6.66666 9.93024 6.66666 10.6666C6.66666 11.403 7.26362 12 8 12ZM3 3.00041C1.95618 3.00041 1.333 3.8959 1.333 5.00055V6.66728C1.333 7.0355 1.01444 7.33399 0.6665 7.33399C0.318561 7.33399 1.12653e-06 7.0355 1.12653e-06 6.66728L0 5.00055C0 3.15947 1.2603 1.66699 3 1.66699C4.7397 1.66699 6 3.15947 6 5.00055L6 6.66662H12C12.6667 6.66662 13.3333 7.33328 13.3333 7.99995V13C13.3333 13.7364 12.7364 14.3334 12 14.3334H4C3.26362 14.3334 2.66666 13.7364 2.66666 13L2.66666 7.99995C2.66666 7.33328 3.33333 6.66662 4 6.66662H4.667V5.00055C4.667 3.8959 4.04382 3.00041 3 3.00041ZM4 13H12V7.99995H4L4 13Z" />
</svg>
