<!-- eslint-disable max-len -->
<svg viewBox="0 0 16 16">
    <path d="M9.99996 5.66659H9.33329V3.99996C9.33329 2.15901 7.84091 0.666626 5.99996 0.666626C4.15901 0.666626 2.66663 2.15901 2.66663 3.99996V5.66659H1.99996C1.33329 5.66659 0.666626 6.33325 0.666626 6.99992V11.9999C0.666626 12.7363 1.26358 13.3332 1.99996 13.3332H9.99996C10.7363 13.3332 11.3333 12.7363 11.3333 11.9999V6.99992C11.3333 6.33325 10.6666 5.66659 9.99996 5.66659ZM3.99996 5.66659V3.99996C3.99996 2.89539 4.89539 1.99996 5.99996 1.99996C7.10453 1.99996 7.99996 2.89539 7.99996 3.99996V5.66659H3.99996ZM5.99996 10.9999C5.26358 10.9999 4.66663 10.4029 4.66663 9.66654C4.66663 8.93017 5.26358 8.33321 5.99996 8.33321C6.73634 8.33321 7.33329 8.93017 7.33329 9.66654C7.33329 10.4029 6.73634 10.9999 5.99996 10.9999Z" />
</svg>
