<!-- eslint-disable max-len -->
<svg viewBox="0 0 16 16">
    <path d="M9.33329 10.6667C9.33329 11.4031 8.73634 12 7.99996 12C7.26358 12 6.66663 11.4031 6.66663 10.6667C6.66663 9.93029 7.26358 9.33334 7.99996 9.33334C8.73634 9.33334 9.33329 9.93029 9.33329 10.6667Z M11.3333 6.66667C11.5294 6.66667 12 6.66667 12 6.66667C12.6666 6.66667 13.3333 7.33334 13.3333 8.00001V13C13.3333 13.7363 12.7363 14.3333 12 14.3333H3.99996C3.26358 14.3333 2.66663 13.7363 2.66663 13V8.00001C2.66663 7.33334 3.33329 6.66667 3.99996 6.66667C3.99996 6.66667 4.47052 6.66667 4.66663 6.66667V5.00005C4.66663 3.1591 6.15901 1.66671 7.99996 1.66671C9.84091 1.66671 11.3333 3.1591 11.3333 5.00005V6.66667ZM5.99996 5.00005V6.66667H9.99996V5.00005C9.99996 3.89548 9.10453 3.00005 7.99996 3.00005C6.89539 3.00005 5.99996 3.89548 5.99996 5.00005ZM3.99996 8.00001L3.99996 13H12V8.00001H3.99996Z" />
</svg>
