<!-- eslint-disable max-len -->
<svg viewBox="0 0 16 16">
    <path d="M5.99996 4.94896V6.66667H8.53329L7.46663 8.00001H3.99996V13L3.134 14.3334C3.134 14.3334 2.66663 14.1224 2.66663 13.5C2.66663 12.8776 2.66663 8.00001 2.66663 8.00001C2.66663 7.33334 3.18223 6.66667 3.99996 6.66667C4.28218 6.66667 4.43821 6.66667 4.66663 6.66667V4.94896C4.66663 3.10801 6.15901 1.61563 7.99996 1.61563C9.09809 1.61563 10.3137 2.41193 10.921 3.23118L9.99996 4.2823C9.69353 3.57086 8.82376 2.94896 7.99996 2.94896C6.89539 2.94896 5.99996 3.84439 5.99996 4.94896Z M12 8.00001H11.3333L12.2666 6.66667C12.9333 6.66667 13.3333 7.33334 13.3333 8.00001V13C13.3333 13.7364 12.7363 14.3334 12 14.3334H6.66663L7.59996 13H12V8.00001Z M13.2113 3.7178C13.4236 3.417 13.3519 3.00103 13.0511 2.7887C12.7503 2.57637 12.3343 2.64809 12.122 2.94889L4.12199 14.2822C3.90966 14.583 3.98138 14.999 4.28218 15.2113C4.58298 15.4236 4.99895 15.3519 5.21128 15.0511L13.2113 3.7178Z" />
</svg>
