<!-- eslint-disable max-len -->
<svg viewBox="0 0 12 12">
    <path d="M7.5 8C7.5 8.55228 7.05228 9 6.5 9C5.94771 9 5.5 8.55228 5.5 8C5.5 7.44771 5.94771 7 6.5 7C7.05228 7 7.5 7.44771 7.5 8Z M4 3.5V5C3.44772 5 3 5.44772 3 6V10C3 10.5523 3.44772 11 4 11H9C9.55229 11 10 10.5523 10 10V6C10 5.44772 9.55229 5 9 5H5V3.5C5 2.11929 3.88071 1 2.5 1C1.11929 1 0 2.11929 0 3.5V5.5C0 5.77614 0.223858 6 0.5 6C0.776142 6 1 5.77614 1 5.5V3.5C1 2.67157 1.67157 2 2.5 2C3.32843 2 4 2.67157 4 3.5ZM4 6H9V10H4V6Z M4 3.5V5C3.44772 5 3 5.44772 3 6V10C3 10.5523 3.44772 11 4 11H9C9.55229 11 10 10.5523 10 10V6C10 5.44772 9.55229 5 9 5H5V3.5C5 2.11929 3.88071 1 2.5 1C1.11929 1 0 2.11929 0 3.5V5.5C0 5.77614 0.223858 6 0.5 6C0.776142 6 1 5.77614 1 5.5V3.5C1 2.67157 1.67157 2 2.5 2C3.32843 2 4 2.67157 4 3.5ZM4 6H9V10H4V6Z" />
</svg>
