<!-- eslint-disable max-len -->
<svg viewBox="0 0 16 16">
    <path d="M9.82982 10.9611C8.94485 11.6141 7.85083 12 6.66668 12C3.72116 12 1.33334 9.61216 1.33334 6.66665C1.33334 3.72113 3.72116 1.33331 6.66668 1.33331C9.6122 1.33331 12 3.72113 12 6.66665C12 7.85079 11.6141 8.9448 10.9612 9.82977L14.101 12.9696C14.4134 13.282 14.4134 13.7885 14.101 14.101C13.7886 14.4134 13.2821 14.4134 12.9697 14.101L9.82982 10.9611ZM10.4 6.66665C10.4 4.60478 8.72854 2.93331 6.66668 2.93331C4.60481 2.93331 2.93334 4.60478 2.93334 6.66665C2.93334 8.72851 4.60481 10.4 6.66668 10.4C8.72854 10.4 10.4 8.72851 10.4 6.66665Z" />
</svg>
