<!-- eslint-disable max-len -->
<svg viewBox="0 0 16 16">
    <path d="M-0.00402832 3.83329C-0.00402832 3.18896 0.53323 2.66663 1.19597 2.66663H10.796C11.4587 2.66663 11.996 3.18896 11.996 3.83329V10.0666C11.996 10.398 11.7273 10.6666 11.396 10.6666C11.0646 10.6666 10.796 10.398 10.796 10.0666V4.6583L8.04455 7.3333L10.2547 9.4916C10.4931 9.72178 10.4997 10.1016 10.2695 10.34C10.0393 10.5784 9.6595 10.585 9.42113 10.3548L7.1714 8.18219L6.42028 8.91245C6.30776 9.02184 6.15515 9.0833 5.99602 9.0833C5.83689 9.0833 5.68427 9.02184 5.57175 8.91245L4.79602 8.15826L2.07886 10.7999L3.39598 10.8C3.72735 10.8 3.99597 11.0686 3.99597 11.3999C3.99597 11.7313 3.72734 12 3.39596 11.9999L1.19597 12C0.53323 12 -0.00402832 11.4776 -0.00402832 10.8333V3.83329ZM1.19597 4.65822V10.0084L3.94749 7.3333L1.19597 4.65822ZM5.99602 7.67501L9.9475 3.83329H2.04454L5.99602 7.67501Z M14.6626 14.6666C15.399 14.6666 15.996 14.0697 15.996 13.3333C15.996 12.5969 15.399 12 14.6626 12C13.9263 12 13.3293 12.5969 13.3293 13.3333C13.3293 14.0697 13.9263 14.6666 14.6626 14.6666Z M11.996 13.3333C11.996 14.0697 11.399 14.6666 10.6626 14.6666C9.92626 14.6666 9.32931 14.0697 9.32931 13.3333C9.32931 12.5969 9.92626 12 10.6626 12C11.399 12 11.996 12.5969 11.996 13.3333Z M6.66264 14.6666C7.39902 14.6666 7.99597 14.0697 7.99597 13.3333C7.99597 12.5969 7.39902 12 6.66264 12C5.92626 12 5.32931 12.5969 5.32931 13.3333C5.32931 14.0697 5.92626 14.6666 6.66264 14.6666Z" />
</svg>
