<!-- eslint-disable max-len -->
<svg viewBox="0 0 16 16">
    <path d="M5.8667 4.93333C5.57215 4.93333 5.33337 5.17211 5.33337 5.46667C5.33337 5.76122 5.57215 6 5.8667 6H9.0667C9.36125 6 9.60003 5.76122 9.60003 5.46667C9.60003 5.17211 9.36125 4.93333 9.0667 4.93333H5.8667Z M7.60322 0.130962C7.83895 -0.043654 8.16113 -0.043654 8.39686 0.130962L11.8201 2.66667H12C12.6592 2.66667 13.2066 3.14497 13.3142 3.77344L14.3969 4.57541C14.5666 4.70114 14.6667 4.89988 14.6667 5.11111V13.3333C14.6667 14.0697 14.0698 14.6667 13.3334 14.6667H2.66671C1.93033 14.6667 1.33337 14.0697 1.33337 13.3333V5.11111C1.33337 4.89988 1.43348 4.70114 1.60322 4.57541L2.68588 3.77344C2.79346 3.14497 3.34089 2.66667 4.00004 2.66667H4.18002L7.60322 0.130962ZM8.00004 1.49631L6.42006 2.66667H9.58002L8.00004 1.49631ZM12 4H4.00004V5.72386L6.66671 8.39052L7.52864 7.52859C7.78899 7.26825 8.2111 7.26825 8.47145 7.52859L9.33337 8.39052L12 5.72386V4ZM2.66671 6.27614V12.3905L5.7239 9.33333L2.66671 6.27614ZM10.2762 9.33333L13.3334 12.3905V6.27614L10.2762 9.33333ZM12.3906 13.3333L8.00004 8.94281L3.60952 13.3333H12.3906Z" />
</svg>
