<!-- eslint-disable max-len -->
<svg viewBox="0 0 16 16">
    <path d="M14 5C15.1046 5 16 4.10457 16 3C16 1.89543 15.1046 1 14 1C12.8954 1 12 1.89543 12 3C12 4.10457 12.8954 5 14 5Z M15 12V6.35506C14.6831 6.44936 14.3475 6.5 14 6.5C13.8876 6.5 13.7764 6.4947 13.6667 6.48433V11.0571L10.2762 7.99997L12.3798 6.1032C11.9846 5.89645 11.6338 5.61643 11.3454 5.28117L8.00005 8.39049L3.27618 3.99996H10.6449C10.5506 3.68312 10.5 3.34747 10.5 3C10.5 2.88756 10.5053 2.77635 10.5157 2.66663H2.33333C1.59695 2.66663 1 3.26358 1 3.99996V12C1 12.7363 1.59695 13.3333 2.33333 13.3333H13.6667C14.403 13.3333 15 12.7363 15 12ZM5.72391 7.99997L2.33333 11.0572V4.94273L5.72391 7.99997ZM12.7239 12H3.2762L6.66672 8.94278L7.52865 9.80471C7.65367 9.92973 7.82324 9.99997 8.00005 9.99997C8.17686 9.99997 8.34643 9.92973 8.47146 9.80471L9.33339 8.94278L12.7239 12Z" />
</svg>
