<!-- eslint-disable max-len -->
<svg viewBox="0 0 16 16">
    <path d="M-0.00256325 4.93337L-0.00256348 10.0121C-0.00256349 10.3361 0.290443 10.6001 0.663361 10.6001C1.03628 10.6001 1.32929 10.3361 1.32929 10.0001V4.93337C1.32929 3.61337 1.86572 2.53337 3.33075 2.53337C4.80911 2.53337 5.33077 3.60137 5.33077 4.92137L5.33077 10.0001C5.33077 10.6721 5.32929 11.0561 4.66262 11.0561C3.99595 11.0561 3.98114 10.6721 3.99446 10.0001L3.99668 5.53337C3.99668 5.19737 3.70367 4.93337 3.33075 4.93337C2.95783 4.93337 2.66483 5.19737 2.66483 5.53337L2.66261 10.0241C2.66261 11.3441 3.2109 12.2561 4.66262 12.2561C6.11434 12.2561 6.66262 11.3321 6.66262 10.0001L6.66262 4.92137C6.66262 2.94137 5.54162 1.33337 3.33075 1.33337C1.1332 1.33337 -0.00256317 2.94137 -0.00256325 4.93337Z M14.6626 13.3334H7.99595V12.0001H14.6626V6.16671L9.72922 9.86676C9.49218 10.0445 9.16626 10.0445 8.92922 9.86676L7.99595 9.1668V7.50014L9.32922 8.50009L13.5515 5.33341H7.99595V4.00008H14.6626C15.399 4.00008 15.996 4.59703 15.996 5.33341V12.0001C15.996 12.7365 15.399 13.3334 14.6626 13.3334Z" />
</svg>
