<!-- eslint-disable max-len -->
<svg viewBox="0 0 16 16">
    <path d="M1.2 2.66663C0.537258 2.66663 0 3.18896 0 3.83329V10.8333C0 11.4776 0.537258 12 1.2 12L6.73333 12C7.0647 12 7.33333 11.7313 7.33333 11.4C7.33333 11.0686 7.0647 10.8 6.73334 10.8H2.08287L4.80005 8.15826L5.57578 8.91245C5.6883 9.02184 5.84092 9.0833 6.00005 9.0833C6.14351 9.0833 6.28168 9.03335 6.38995 8.94335L10.6667 4.66663C10.6667 5.03482 10.9651 5.33329 11.3333 5.33329C11.7015 5.33329 12 5.03482 12 4.66663V3.83329C12 3.18896 11.4627 2.66663 10.8 2.66663H1.2ZM3.95152 7.3333L1.2 10.0084V4.65822L3.95152 7.3333ZM2.04856 3.83329H9.95153L6.00005 7.67501L2.04856 3.83329Z M13.8333 11.1616V8.16158L11.3333 6.66663L8.83332 8.16158V11.1616L11.3333 12.6666L13.8333 11.1616Z M6.66667 15.3333C6.66667 14.3523 8.75283 13.3333 11.3288 13.3333C13.9048 13.3333 16 14.3523 16 15.3333V16H6.66667V15.3333Z" />
</svg>
