<!-- eslint-disable max-len -->
<svg viewBox="0 0 16 16">
    <path d="M3.33333 0C3.88562 0 4.33333 0.474051 4.33333 1.05882V6.94118C4.33333 7.52595 3.88562 8 3.33333 8C2.78105 8 2.33333 7.52595 2.33333 6.94118L2.33333 1.05882C2.33333 0.474052 2.78105 0 3.33333 0Z M6.66667 13.3333H14.6667C15.403 13.3333 16 12.7364 16 12V5.33333C16 4.59695 15.403 4 14.6667 4H6.66667V5.33333H13.5555L9.33327 8.50001L6.66667 6.50006V8.16672L8.93327 9.86668C9.17031 10.0445 9.49623 10.0445 9.73327 9.86668L14.6667 6.16663V12H6.66667V13.3333Z M3.33333 12C4.06971 12 4.66667 11.403 4.66667 10.6667C4.66667 9.93029 4.06971 9.33333 3.33333 9.33333C2.59695 9.33333 2 9.93029 2 10.6667C2 11.403 2.59695 12 3.33333 12Z" />
</svg>
