<!-- eslint-disable max-len -->
<svg viewBox="0 0 16 16">
    <path d="M0.533325 8C0.533325 5.66871 2.42667 3.86667 4.76975 3.86667H12.4673C13.2023 3.86667 13.9292 4.13073 14.4823 4.57784C15.0388 5.02773 15.4667 5.70729 15.4667 6.53334C15.4667 7.73126 14.1231 8.99997 12.6048 8.99997H5.45704C5.01521 8.99997 4.65704 8.6418 4.65704 8.19997C4.65704 7.75814 5.01521 7.39997 5.45704 7.39997H12.6048C13.2858 7.39997 13.8667 6.80201 13.8667 6.53334C13.8667 6.29272 13.7447 6.03895 13.4765 5.82216C13.2048 5.6026 12.8321 5.46667 12.4673 5.46667H4.76975C3.26404 5.46667 2.13333 6.59796 2.13333 8C2.13333 9.40205 3.26404 10.5333 4.76975 10.5333H12.055C12.4968 10.5333 12.855 10.8915 12.855 11.3333C12.855 11.7752 12.4968 12.1333 12.055 12.1333H4.76975C2.42667 12.1333 0.533325 10.3313 0.533325 8Z" />
</svg>
