<!-- eslint-disable max-len -->
<svg viewBox="0 0 16 16">
    <path d="M1.03143 13.987C1.30456 14.3011 1.57782 14.615 1.85095 14.929C1.9764 15.0732 2.18637 15.1085 2.3521 15.0132C2.41874 14.9749 2.49217 14.9412 2.54976 14.8894C4.30996 13.784 5.72999 13.2267 6.68633 12.943C7.18105 12.7978 7.56025 12.7163 7.79427 12.6826C7.9063 12.6641 8.01206 12.6495 8.12548 12.6495C8.17304 12.6495 8.21822 12.6371 8.26564 12.6371C8.44365 12.6371 8.60024 12.5194 8.64981 12.3485L8.69294 12.1997C8.70274 12.1659 8.70789 12.1317 8.70871 12.0978C9.1238 10.5382 10.2381 8.5984 10.9078 7.45471L14.8202 4.53998C15.0975 4.33767 15.1191 3.96914 14.9886 3.72919C14.8202 3.41938 14.4275 3.3304 14.145 3.5334L10.5274 6.22842L8.57943 3.96087L9.72727 1.85572C9.85819 1.61489 9.83627 1.24381 9.55551 1.04207C9.2733 0.839287 8.88113 0.927936 8.71241 1.23695L7.40097 3.6232C6.91334 4.01065 6.26149 4.52166 5.56345 4.99777C4.83359 5.49558 4.07744 5.93824 3.42244 6.16652L3.30349 6.2007C3.13207 6.24997 3.01399 6.40678 3.01399 6.58514C3.01399 6.77516 3.01302 6.95965 2.98567 7.14824L2.98546 7.14974C2.94293 7.45537 2.87988 7.8901 2.75368 8.47052C2.5009 9.6207 2.00331 11.3156 1.0352 13.4196L1.03454 13.421L0.971845 13.5531C0.903694 13.6967 0.927085 13.8671 1.03143 13.987ZM6.37311 11.7544C5.66324 11.9647 4.75842 12.3002 3.68648 12.8451L5.89481 10.2691C6.38313 10.2492 6.67085 9.79787 6.67085 9.38639C6.67085 8.96555 6.36989 8.503 5.86117 8.503C5.35246 8.503 5.05149 8.96555 5.05149 9.38639L5.05181 9.4116L2.98568 11.8216C3.4411 10.5898 3.72246 9.54868 3.90164 8.74116C4.03453 8.13004 4.10119 7.63241 4.14453 7.30856C4.14991 7.26831 4.15481 7.22917 4.15911 7.19165C5.43612 6.65769 6.85595 5.60035 7.78502 4.86248L9.72531 7.12108C9.09469 8.20477 8.13782 9.92988 7.66785 11.4621L7.62122 11.47C7.32742 11.5111 6.9006 11.6028 6.37577 11.7536L6.37311 11.7544Z" />
</svg>
