<!-- eslint-disable max-len -->
<svg viewBox="0 0 16 16">
    <path d="M14.9864 4.97707L7.35681 12.6073C7.30534 12.6717 7.22815 12.7231 7.15095 12.7489L1.50273 15.0521C1.27238 15.1673 0.983046 15.0857 0.807959 14.9105C0.627834 14.7304 0.563503 14.4602 0.666432 14.2157L2.96947 8.56702C2.9952 8.48982 3.04666 8.41261 3.11099 8.36114L10.7406 0.730897C10.9465 0.512155 11.4482 0.229077 12.3746 0.666561C12.8635 0.898171 13.4039 1.29705 13.9057 1.79887C14.8963 2.77678 15.7584 4.20504 14.9864 4.97707ZM13.9829 4.16644C13.9443 3.96056 13.6998 3.40727 13.005 2.71245C12.3231 2.01762 11.757 1.77314 11.5512 1.73454L10.9207 2.36503C11.371 2.59664 11.8599 2.95692 12.3103 3.40727C12.722 3.80616 13.108 4.29511 13.3653 4.78406L13.9829 4.16644ZM11.3968 4.32085C10.6891 3.61315 10.1359 3.36867 9.94289 3.34294L4.89938 8.38688C5.37543 8.64422 5.86434 9.03024 6.27605 9.44199C6.68777 9.84087 7.07375 10.3298 7.33107 10.8188L12.3746 5.77484C12.3489 5.58183 12.1173 5.02854 11.3968 4.32085ZM3.65137 12.0669C3.83149 12.2599 3.97302 12.44 4.07595 12.6202L6.32752 11.6937C6.23746 11.4364 5.96727 10.9346 5.37543 10.3427C4.78359 9.7508 4.28181 9.48059 4.01162 9.39052L3.09813 11.6423C3.27825 11.7452 3.45838 11.8868 3.65137 12.0669Z M6.61731 13.7702H14.6173C14.9773 13.7702 15.284 14.0636 15.284 14.4369C15.284 14.8102 14.9906 15.1036 14.6173 15.1036H6.61731C6.24398 15.1036 5.95064 14.8102 5.95064 14.4369C5.95064 14.0636 6.24398 13.7702 6.61731 13.7702Z" />
</svg>
