<!-- eslint-disable max-len -->
<svg viewBox="0 0 16 16">
    <path d="M8.66667 9.24352L13.7163 4.19346C14.3479 3.56179 13.6426 2.39322 12.8321 1.59311C12.4215 1.18253 11.9794 0.856172 11.5794 0.666673C10.8214 0.308731 10.4109 0.540341 10.2425 0.719312L4.00005 6.96224C3.94742 7.00435 3.90531 7.06752 3.88426 7.13069L1.99996 11.7523C1.91574 11.9524 1.96838 12.1735 2.11575 12.3208C2.26961 12.4747 2.48419 12.5367 2.6842 12.4366C4.23273 11.8052 5.79775 11.2036 7.33333 10.5415V13.6667H0V15H16V13.6667H8.66667V9.24352ZM12.0952 2.34058C12.6636 2.90907 12.8636 3.36177 12.8952 3.53021L12.3899 4.03554C12.1794 3.63549 11.8636 3.23543 11.5267 2.90907C11.1583 2.5406 10.7583 2.24583 10.3898 2.05633L10.9056 1.54047C11.0741 1.57206 11.5373 1.77208 12.0952 2.34058ZM9.58979 2.85644C9.7477 2.87749 10.2003 3.07752 10.7793 3.65654C11.3688 4.23557 11.5583 4.68826 11.5794 4.84617L7.45285 8.97303C7.24231 8.57298 6.92651 8.17293 6.58965 7.84657C6.25279 7.50968 5.85277 7.19385 5.46328 6.9833L9.58979 2.85644ZM4.78957 10.4469C4.70535 10.2995 4.58956 10.1521 4.44218 9.99422C4.28428 9.84683 4.1369 9.73103 3.98953 9.64681L4.73693 7.80446C4.95799 7.87815 5.36854 8.09924 5.85277 8.58351C6.33701 9.06778 6.55807 9.47837 6.63176 9.68892L4.78957 10.4469Z" />
</svg>
