<!-- eslint-disable max-len -->
<svg viewBox="0 0 16 16">
    <path d="M3.70957 0.666493C3.96686 0.539127 4.27687 0.589871 4.47994 0.79259L7.50689 3.81431C7.7677 4.07467 7.76825 4.49663 7.50813 4.75767L5.61939 6.65305L9.41543 10.4425L11.3017 8.54964C11.4271 8.42383 11.5974 8.353 11.7752 8.35277C11.9529 8.35253 12.1235 8.42292 12.2492 8.5484L15.2068 11.5009C15.4098 11.7036 15.4607 12.0131 15.3331 12.2699C14.7475 13.4487 14.0913 14.3057 13.3102 14.796C12.4952 15.3077 11.6187 15.3744 10.7265 15.1175C9.8657 14.8697 8.987 14.3218 8.08623 13.6075C7.17883 12.8879 6.20196 11.9607 5.14713 10.9046C4.08934 9.84864 3.15658 8.86787 2.42955 7.95542C1.70767 7.04944 1.15119 6.16552 0.893847 5.30089C0.627686 4.40663 0.68116 3.52407 1.18604 2.70172C1.67061 1.91246 2.52692 1.25195 3.70957 0.666493ZM3.47682 7.12384C4.15481 7.97474 5.04352 8.91199 6.09374 9.96039C7.14074 11.0087 8.074 11.8917 8.9186 12.5615C9.76992 13.2366 10.4859 13.658 11.0973 13.834C11.6773 14.001 12.1505 13.946 12.5978 13.6652C13.0124 13.4049 13.4547 12.9188 13.9125 12.0981L11.7773 9.96653L9.89103 11.8594C9.76567 11.9852 9.59531 12.0561 9.41755 12.0563C9.23979 12.0565 9.06925 11.9862 8.94356 11.8607L4.20128 7.12659C3.94047 6.86623 3.93991 6.44427 4.20004 6.18323L6.08878 4.28784L3.88191 2.08479C3.0629 2.54149 2.58194 2.98451 2.32698 3.39979C2.0513 3.8488 2.00056 4.32895 2.1766 4.92042C2.36146 5.54153 2.79359 6.26637 3.47682 7.12384Z" />
</svg>
