<!-- eslint-disable max-len -->
<svg viewBox="0 0 16 16">
    <path d="M11.3334 8L6.00004 4.66667L6.00004 11.3333L11.3334 8Z M8.00004 13.3333C5.05452 13.3333 2.66671 10.9455 2.66671 8C2.66671 5.05448 5.05452 2.66667 8.00004 2.66667C10.9456 2.66667 13.3334 5.05448 13.3334 8C13.3334 10.9455 10.9456 13.3333 8.00004 13.3333ZM8.00004 14.6667C11.6819 14.6667 14.6667 11.6819 14.6667 8C14.6667 4.3181 11.6819 1.33334 8.00004 1.33334C4.31814 1.33334 1.33337 4.3181 1.33337 8C1.33337 11.6819 4.31814 14.6667 8.00004 14.6667Z" />
</svg>
