<!-- eslint-disable max-len -->
<svg viewBox="0 0 16 16">
    <path d="M8 1C7.44772 1 7 1.44772 7 2V6.5C7 7.05228 7.44772 7.5 8 7.5C8.55229 7.5 9 7.05228 9 6.5V2C9 1.44772 8.55229 1 8 1Z M5.33329 3.38016C3.73916 4.30232 2.66663 6.0259 2.66663 7.99999C2.66663 10.9455 5.05444 13.3333 7.99996 13.3333C10.9455 13.3333 13.3333 10.9455 13.3333 7.99999C13.3333 6.0259 12.2608 4.30232 10.6666 3.38016V5.19998C11.4059 5.90426 11.8666 6.89832 11.8666 7.99999C11.8666 10.1355 10.1355 11.8667 7.99996 11.8667C5.86446 11.8667 4.13329 10.1355 4.13329 7.99999C4.13329 6.89832 4.59401 5.90426 5.33329 5.19998V3.38016Z" />
</svg>
