<!-- eslint-disable max-len -->
<svg viewBox="0 0 16 16">
    <path d="M4.00004 1.66676H12L12 5.00009H13.6667C14.403 5.00009 15 5.59705 15 6.33343L15 12.3334C15 13.0698 14.403 13.6668 13.6667 13.6668H12V15.0001H4.00004V13.6668H2.33333C1.59695 13.6668 1 13.0698 1 12.3334L1 6.33343C1 5.59705 1.59696 5.00009 2.33334 5.00009H4.00004L4.00004 1.66676ZM10.6667 3.00009H5.33337L5.33338 5.00009H10.6667L10.6667 3.00009ZM5.33338 11.0001L5.33337 13.6668H10.6667L10.6667 11.0001H5.33338ZM4.00004 9.66676H12L12 12.3334H13.6667L13.6667 6.33343H2.33334L2.33333 12.3334H4.00004L4.00004 9.66676Z M12 9.00009C12.5 9.00009 13 8.49993 13 8.00001C13 7.50009 12.5 7.00009 12 7.00009C11.5001 7.00009 11 7.50009 11 8.00001C11 8.49993 11.5001 9.00009 12 9.00009Z" />
</svg>
