<!-- eslint-disable max-len -->
<svg viewBox="0 0 16 16">
    <path d="M6.66663 4H2.66663V8H4.66663C4.66676 8.17768 4.66947 8.38385 4.67227 8.5965C4.67828 9.05423 4.68469 9.54196 4.66663 9.84001C4.62663 10.3733 4.26663 11.0267 2.66663 11.0267V11.9867C2.66663 11.9867 5.07996 11.9733 5.86663 11.1867C6.26574 10.7876 6.66485 9.99024 6.66662 8L6.66663 4Z M9.33329 4H13.3333V8C13.3315 9.99024 12.9324 10.7876 12.5333 11.1867C11.7466 11.9733 9.33329 11.9867 9.33329 11.9867V11.0267C10.9333 11.0267 11.2933 10.3733 11.3333 9.84001C11.3514 9.54196 11.3449 9.05423 11.3389 8.5965C11.3361 8.38385 11.3334 8.17768 11.3333 8H9.33329V4Z" />
</svg>
