<!-- eslint-disable max-len -->
<svg viewBox="0 0 16 16">
    <path d="M2.6097 10.4026C3.59891 8.16245 5.66136 6.66667 8 6.66667C9.9432 6.66667 11.6952 7.69902 12.8 9.33334H10C9.63181 9.33334 9.33333 9.63181 9.33333 10C9.33333 10.3682 9.63181 10.6667 10 10.6667H13.9256C13.9353 10.6669 13.945 10.6669 13.9547 10.6667H14.6667V6C14.6667 5.63181 14.3682 5.33334 14 5.33334C13.6318 5.33334 13.3333 5.63181 13.3333 6V7.84217C12.0046 6.30681 10.1162 5.33334 8 5.33334C5.06078 5.33334 2.56161 7.21078 1.38999 9.86404C1.24126 10.2009 1.39373 10.5945 1.73054 10.7432C2.06736 10.8919 2.46097 10.7394 2.6097 10.4026Z" />
</svg>
