<!-- eslint-disable max-len -->
<svg viewBox="0 0 16 16">
    <path d="M9.33337 1.33337C8.96518 1.33337 8.66671 1.63185 8.66671 2.00004C8.66671 2.36823 8.96518 2.66671 9.33337 2.66671C9.89728 2.66671 10.1978 2.80723 10.362 2.97145C10.5262 3.13566 10.6667 3.43614 10.6667 4.00004V11.9991C10.6667 12.563 10.5262 12.8644 10.362 13.0286C10.1978 13.1929 9.89728 13.3334 9.33337 13.3334C8.96518 13.3334 8.66671 13.6319 8.66671 14C8.66671 14.3682 8.96518 14.6667 9.33337 14.6667C10.1028 14.6667 10.8023 14.4739 11.3048 13.9714L11.3334 13.9423L11.362 13.9714C11.8644 14.4739 12.5639 14.6667 13.3334 14.6667C13.7016 14.6667 14 14.3682 14 14C14 13.6319 13.7016 13.3334 13.3334 13.3334C12.7695 13.3334 12.469 13.1929 12.3048 13.0286C12.1406 12.8644 12 12.5639 12 12V4.00004C12 3.43614 12.1406 3.13566 12.3048 2.97145C12.469 2.80723 12.7695 2.66671 13.3334 2.66671C13.7016 2.66671 14 2.36823 14 2.00004C14 1.63185 13.7016 1.33337 13.3334 1.33337C12.5639 1.33337 11.8644 1.52618 11.362 2.02864L11.3334 2.05779L11.3048 2.02864C10.8023 1.52618 10.1028 1.33337 9.33337 1.33337Z M7.1621 10.1486H3.47303L2.74576 12H1.33337L4.65353 4.00004H6.00268L9.33337 12H7.89991L7.1621 10.1486ZM6.70887 8.9829L5.31756 5.48575L3.9368 8.9829H6.70887Z" />
</svg>
