<!-- eslint-disable max-len -->
<svg viewBox="0 0 12 12">
    <path d="M3.12751 2.87372C2.87198 2.87372 2.62697 2.9188 2.40001 3.00144V1.96138C2.63344 1.9057 2.87703 1.87622 3.12751 1.87622H4.79593L4.14735 1.22764C3.95257 1.03287 3.95257 0.717075 4.14735 0.522301C4.34212 0.327527 4.65791 0.327527 4.85268 0.522301L6.70535 2.37497L4.85268 4.22764C4.65791 4.42241 4.34212 4.42241 4.14735 4.22764C3.95257 4.03287 3.95257 3.71708 4.14735 3.5223L4.79593 2.87372H3.12751Z M8.37377 2.37497C8.37377 2.09952 8.59706 1.87622 8.87252 1.87622C10.5977 1.87622 11.9963 3.27477 11.9963 4.99997C11.9963 6.72517 10.5977 8.12372 8.87252 8.12372L7.2041 8.12372L7.85268 8.7723C8.04746 8.96707 8.04746 9.28287 7.85268 9.47764C7.65791 9.67241 7.34212 9.67241 7.14735 9.47764L5.29467 7.62497L7.14735 5.7723C7.34212 5.57753 7.65791 5.57753 7.85268 5.7723C8.04746 5.96707 8.04746 6.28287 7.85268 6.47764L7.2041 7.12622H8.87252C10.0468 7.12622 10.9988 6.17427 10.9988 4.99997C10.9988 3.82568 10.0468 2.87372 8.87252 2.87372C8.59706 2.87372 8.37377 2.65042 8.37377 2.37497Z M0.200024 1.99996L0.200024 5.49996C0.200024 5.83133 0.468653 6.09996 0.800024 6.09996C1.1314 6.09996 1.40002 5.83133 1.40002 5.49996L1.40002 1.99996C1.40002 1.66859 1.13139 1.39996 0.800024 1.39996C0.468653 1.39996 0.200024 1.66859 0.200024 1.99996Z M0.8 8.49996C1.24183 8.49996 1.6 8.14179 1.6 7.69996C1.6 7.25813 1.24183 6.89996 0.8 6.89996C0.358173 6.89996 0 7.25813 0 7.69996C0 8.14179 0.358173 8.49996 0.8 8.49996Z" />
</svg>
