<!-- eslint-disable max-len -->
<svg viewBox="0 0 16 16">
    <path d="M5.52978 2.02973C5.78948 1.77004 6.21053 1.77004 6.47023 2.02973L8.94046 4.49996L6.47023 6.97019C6.21053 7.22989 5.78948 7.22989 5.52978 6.97019C5.27008 6.71049 5.27008 6.28943 5.52978 6.02974L6.39455 5.16496H4.17C2.60428 5.16496 1.335 6.43423 1.335 7.99996C1.335 9.56569 2.60428 10.835 4.17 10.835C4.53727 10.835 4.835 11.1327 4.835 11.5C4.835 11.8672 4.53727 12.165 4.17 12.165C1.86974 12.165 0.00500488 10.3002 0.00500488 7.99996C0.00500488 5.6997 1.86974 3.83496 4.17 3.83496H6.39455L5.52978 2.97019C5.27008 2.71049 5.27008 2.28943 5.52978 2.02973ZM11.165 4.49996C11.165 4.13269 11.4627 3.83496 11.83 3.83496C14.1303 3.83496 15.995 5.69969 15.995 7.99996C15.995 10.3002 14.1303 12.165 11.83 12.165L9.60546 12.165L10.4702 13.0297C10.7299 13.2894 10.7299 13.7105 10.4702 13.9702C10.2105 14.2299 9.78948 14.2299 9.52978 13.9702L7.05955 11.5L9.52978 9.02973C9.78948 8.77004 10.2105 8.77004 10.4702 9.02973C10.7299 9.28943 10.7299 9.71049 10.4702 9.97019L9.60546 10.835L11.83 10.835C13.3957 10.835 14.665 9.56569 14.665 7.99996C14.665 6.43423 13.3957 5.16496 11.83 5.16496C11.4627 5.16496 11.165 4.86723 11.165 4.49996Z" />
</svg>
