<!-- eslint-disable max-len -->
<svg viewBox="0 0 12 12">
    <path d="M4.14733 1.52233C4.3421 1.32756 4.6579 1.32756 4.85267 1.52233L6.70534 3.375L4.85267 5.22767C4.6579 5.42244 4.3421 5.42244 4.14733 5.22767C3.95256 5.0329 3.95256 4.71711 4.14733 4.52233L4.79591 3.87375H3.1275C1.9532 3.87375 1.00125 4.82571 1.00125 6C1.00125 7.1743 1.9532 8.12625 3.1275 8.12625C3.40295 8.12625 3.62625 8.34955 3.62625 8.625C3.62625 8.90045 3.40295 9.12375 3.1275 9.12375C1.4023 9.12375 0.00374889 7.7252 0.00374889 6C0.00374889 4.2748 1.4023 2.87625 3.1275 2.87625H4.79591L4.14733 2.22767C3.95256 2.0329 3.95256 1.71711 4.14733 1.52233ZM8.37375 3.375C8.37375 3.09955 8.59705 2.87625 8.8725 2.87625C10.5977 2.87625 11.9963 4.2748 11.9963 6C11.9963 7.7252 10.5977 9.12375 8.8725 9.12375L7.20409 9.12375L7.85267 9.77233C8.04744 9.9671 8.04744 10.2829 7.85267 10.4777C7.6579 10.6724 7.3421 10.6724 7.14733 10.4777L5.29466 8.625L7.14733 6.77233C7.3421 6.57756 7.6579 6.57756 7.85267 6.77233C8.04744 6.9671 8.04744 7.2829 7.85267 7.47767L7.20409 8.12625L8.8725 8.12625C10.0468 8.12625 10.9988 7.1743 10.9988 6C10.9988 4.82571 10.0468 3.87375 8.8725 3.87375C8.59705 3.87375 8.37375 3.65045 8.37375 3.375Z" />
</svg>
