<!-- eslint-disable max-len -->
<svg viewBox="0 0 16 16">
    <path d="M4.16599 5.16496C3.82527 5.16496 3.4986 5.22506 3.19598 5.33525V3.94851C3.50722 3.87427 3.83201 3.83496 4.16599 3.83496H6.39054L5.52576 2.97019C5.26607 2.71049 5.26607 2.28943 5.52576 2.02973C5.78546 1.77004 6.20652 1.77004 6.46622 2.02973L8.93644 4.49996L6.46622 6.97019C6.20652 7.22989 5.78546 7.22989 5.52576 6.97019C5.26607 6.71049 5.26607 6.28943 5.52576 6.02974L6.39054 5.16496H4.16599Z M11.161 4.49996C11.161 4.13269 11.4587 3.83496 11.826 3.83496C14.1263 3.83496 15.991 5.6997 15.991 7.99996C15.991 10.3002 14.1263 12.165 11.826 12.165L9.60144 12.165L10.4662 13.0297C10.7259 13.2894 10.7259 13.7105 10.4662 13.9702C10.2065 14.2299 9.78546 14.2299 9.52577 13.9702L7.05554 11.5L9.52577 9.02973C9.78546 8.77004 10.2065 8.77004 10.4662 9.02974C10.7259 9.28943 10.7259 9.71049 10.4662 9.97019L9.60144 10.835H11.826C13.3917 10.835 14.661 9.56569 14.661 7.99996C14.661 6.43423 13.3917 5.16496 11.826 5.16496C11.4587 5.16496 11.161 4.86723 11.161 4.49996Z M0.26267 3.99995L0.262671 8.66662C0.262671 9.10844 0.620842 9.46662 1.06267 9.46662C1.5045 9.46662 1.86267 9.10844 1.86267 8.66662L1.86267 3.99995C1.86267 3.55812 1.5045 3.19995 1.06267 3.19995C0.620842 3.19995 0.26267 3.55812 0.26267 3.99995Z M1.06264 12.6666C1.65174 12.6666 2.1293 12.1891 2.1293 11.5999C2.1293 11.0108 1.65174 10.5333 1.06264 10.5333C0.473535 10.5333 -0.00402832 11.0108 -0.00402832 11.5999C-0.00402832 12.1891 0.473535 12.6666 1.06264 12.6666Z" />
</svg>
