<!-- eslint-disable max-len -->
<svg viewBox="0 0 16 16">
    <path d="M1.33337 2.66668C1.33337 1.9303 1.93033 1.33334 2.66671 1.33334H10.6667C11.0203 1.33334 11.3595 1.47382 11.6095 1.72387L14.2762 4.39053C14.5262 4.64058 14.6667 4.97972 14.6667 5.33334V13.3333C14.6667 14.0697 14.0698 14.6667 13.3334 14.6667H2.66671C1.93033 14.6667 1.33337 14.0697 1.33337 13.3333V2.66668ZM5.33337 13.3333H10.6667V9.33334H5.33337V13.3333ZM12 13.3333H13.3334V5.33334L10.6667 2.66668V5.33334H4.00004V2.66668H2.66671V13.3333H4.00004V8.00001H12V13.3333ZM5.33337 2.66668V4.00001H9.33337V2.66668H5.33337Z" />
</svg>
