<!-- eslint-disable max-len -->
<svg viewBox="0 0 16 16">
    <path d="M0.886336 1.50543C1.08273 1.32796 1.36551 1.28348 1.60689 1.39211L14.9402 7.39211C15.1795 7.49976 15.3333 7.73771 15.3333 8.00005C15.3333 8.26239 15.1795 8.50035 14.9402 8.608L1.60689 14.608C1.36551 14.7166 1.08273 14.6721 0.886336 14.4947C0.689946 14.3172 0.617157 14.0404 0.700862 13.7892L2.63059 8.00005L0.700862 2.21087C0.617157 1.95976 0.689946 1.6829 0.886336 1.50543ZM3.81382 8.66672L2.44675 12.768L13.0421 8.00005L2.44675 3.23215L3.81382 7.33339H7.33332C7.70151 7.33339 7.99998 7.63186 7.99998 8.00005C7.99998 8.36824 7.70151 8.66672 7.33332 8.66672H3.81382Z"/>
</svg>
