<!-- eslint-disable max-len -->
<svg viewBox="0 0 16 16">
    <path d="M9.18498 11.2757L8.66667 10.8973V13.6667H16V15H0V13.6667H7.33333V9.92391L6.85871 9.5774L3.93308 11.8886C3.78708 12.0233 3.55931 12.0237 3.38365 11.9443C3.20403 11.844 3.0878 11.6546 3.0878 11.4429V8.75759C3.0878 8.55703 3.18289 8.37875 3.35195 8.27847C5.88024 6.7077 8.33872 5.02219 10.8243 3.38361L3.73291 5.81603L4.03933 6.03887C4.28234 6.20601 4.34574 6.55141 4.18725 6.80769C4.02876 7.06396 3.70121 7.13081 3.45819 6.96368L2.23253 6.10572C2.06348 5.98316 1.97895 5.7826 2.00008 5.5709C2.03178 5.35919 2.16914 5.18092 2.36989 5.11406L13.3057 1.35913C13.5065 1.29227 13.7284 1.35913 13.8657 1.51512C14.0031 1.68225 14.0348 1.91624 13.9503 2.1168L9.96687 11.064C9.89291 11.2089 9.77668 11.3203 9.61819 11.3649C9.4914 11.3983 9.31178 11.376 9.18498 11.2757ZM12.3499 3.09018L6.1741 7.73224L9.26951 9.99437L12.3499 3.09018Z" />
</svg>
