<!-- eslint-disable max-len -->
<svg viewBox="0 0 16 16">
    <path d="M9.44816 13.7613C9.60313 13.8867 9.82267 13.9145 9.97764 13.8728C10.1714 13.817 10.3134 13.6778 10.4038 13.4967L15.2724 2.31267C15.3757 2.06197 15.337 1.76949 15.1691 1.56057C15.0012 1.36558 14.73 1.28201 14.4846 1.36558L1.11861 6.05925C0.873245 6.14282 0.705362 6.36566 0.66662 6.63029C0.640792 6.89492 0.744104 7.14562 0.950729 7.29883L2.44876 8.37127C2.74578 8.58019 3.14612 8.49662 3.33983 8.17628C3.53354 7.85594 3.45605 7.42418 3.15903 7.21526L2.78452 6.9367L11.4517 3.89619C8.41404 5.94428 5.41055 8.05034 2.3189 10.0148C2.11228 10.1401 1.99605 10.363 1.99605 10.6137V13.9703C1.99605 14.2349 2.13811 14.4717 2.35765 14.597C2.57234 14.6962 2.85073 14.6958 3.02918 14.5274L6.60494 11.6384L9.44816 13.7613ZM5.7682 9.33197L13.3164 3.5294L9.55148 12.1596L5.7682 9.33197Z" />
</svg>
