<!-- eslint-disable max-len -->
<svg viewBox="0 0 16 16">
    <path d="M14 3.33334C14 4.8061 12.8061 6 11.3334 6C10.5598 6 9.86317 5.67062 9.37607 5.14445L5.23375 7.37493C5.2984 7.57159 5.33337 7.78171 5.33337 8C5.33337 8.2183 5.2984 8.42843 5.23375 8.62509L9.37606 10.8556C9.86316 10.3294 10.5598 10 11.3334 10C12.8061 10 14 11.1939 14 12.6667C14 14.1394 12.8061 15.3333 11.3334 15.3333C9.86061 15.3333 8.66671 14.1394 8.66671 12.6667C8.66671 12.447 8.69328 12.2335 8.74337 12.0292L4.40141 9.69125C4.0924 9.88681 3.72611 10 3.33337 10C2.2288 10 1.33337 9.10457 1.33337 8C1.33337 6.89543 2.2288 6 3.33337 6C3.72611 6 4.09241 6.11321 4.40142 6.30876L8.74338 3.97079C8.69328 3.76654 8.66671 3.55304 8.66671 3.33334C8.66671 1.86058 9.86061 0.666672 11.3334 0.666672C12.8061 0.666672 14 1.86058 14 3.33334Z" />
</svg>
