<!-- eslint-disable max-len -->
<svg viewBox="0 0 16 16">
    <path d="M6.39595 1.59993C6.39595 1.1581 6.03777 0.799927 5.59595 0.799927C5.15412 0.799927 4.79595 1.1581 4.79595 1.59993V2.39993H2.39595C1.95412 2.39993 1.59595 2.7581 1.59595 3.19993C1.59595 3.64175 1.95412 3.99993 2.39595 3.99993H4.79595V4.79993C4.79595 5.24175 5.15412 5.59993 5.59595 5.59993C6.03777 5.59993 6.39595 5.24175 6.39595 4.79993V1.59993Z M6.39595 11.1999C6.39595 10.7581 6.03777 10.3999 5.59595 10.3999C5.15412 10.3999 4.79595 10.7581 4.79595 11.1999V11.9999H2.39595C1.95412 11.9999 1.59595 12.3581 1.59595 12.7999C1.59595 13.2418 1.95412 13.5999 2.39595 13.5999H4.79595V14.3999C4.79595 14.8418 5.15412 15.1999 5.59595 15.1999C6.03777 15.1999 6.39595 14.8418 6.39595 14.3999V11.1999Z M9.59595 5.59993C10.0378 5.59993 10.3959 5.9581 10.3959 6.39993V9.59993C10.3959 10.0418 10.0378 10.3999 9.59595 10.3999C9.15412 10.3999 8.79595 10.0418 8.79595 9.59993V8.79993H2.39595C1.95412 8.79993 1.59595 8.44175 1.59595 7.99993C1.59595 7.5581 1.95412 7.19993 2.39595 7.19993H8.79595V6.39993C8.79595 5.9581 9.15412 5.59993 9.59595 5.59993Z M13.5959 3.99993L7.99595 3.99993V2.39993H13.5959C14.0378 2.39993 14.3959 2.7581 14.3959 3.19993C14.3959 3.64176 14.0378 3.99993 13.5959 3.99993Z M7.99595 13.5999H13.5959C14.0378 13.5999 14.3959 13.2418 14.3959 12.7999C14.3959 12.3581 14.0378 11.9999 13.5959 11.9999H7.99595V13.5999Z M13.5959 8.79993H11.9959V7.19993H13.5959C14.0378 7.19993 14.3959 7.5581 14.3959 7.99993C14.3959 8.44175 14.0378 8.79993 13.5959 8.79993Z" />
</svg>
