<!-- eslint-disable max-len -->
<svg viewBox="0 0 16 16">
    <path d="M13.2671 5.81717L14.1138 6.66361C14.2893 6.83908 14.4284 7.04744 14.5233 7.27677C14.6181 7.50609 14.6669 7.75187 14.6667 8.00006C14.6665 8.24824 14.6174 8.49396 14.5222 8.72314C14.4271 8.95233 14.2876 9.16049 14.1119 9.33572L13.2652 10.1828V11.3785C13.2652 11.8792 13.0664 12.3594 12.7124 12.7135C12.3585 13.0676 11.8785 13.2665 11.3779 13.2665H10.1827L9.33654 14.1136C9.16128 14.2889 8.95322 14.428 8.72422 14.5229C8.49523 14.6178 8.24979 14.6666 8.00193 14.6666C7.75406 14.6666 7.50862 14.6178 7.27963 14.5229C7.05064 14.428 6.84257 14.2889 6.66732 14.1136L5.81805 13.2665H4.62278C4.12225 13.2665 3.64222 13.0676 3.28829 12.7135C2.93436 12.3594 2.73552 11.8792 2.73552 11.3785V10.1828L1.88625 9.33383C1.71097 9.15852 1.57193 8.95037 1.47706 8.72129C1.3822 8.49221 1.33337 8.24668 1.33337 7.99872C1.33337 7.75076 1.3822 7.50523 1.47706 7.27615C1.57193 7.04707 1.71097 6.83893 1.88625 6.66361L2.73992 5.81717V4.62145C2.73992 4.12073 2.93876 3.64051 3.29269 3.28645C3.64662 2.93238 4.12665 2.73347 4.62719 2.73347H5.82245L6.66858 1.8864C6.84383 1.71105 7.05189 1.57196 7.28089 1.47706C7.50988 1.38216 7.75532 1.33331 8.00318 1.33331C8.25105 1.33331 8.49649 1.38216 8.72548 1.47706C8.95448 1.57196 9.16254 1.71105 9.33779 1.8864L10.1845 2.73347H11.3798C11.8803 2.73347 12.3604 2.93238 12.7143 3.28645C13.0682 3.64051 13.2671 4.12073 13.2671 4.62145V5.81717ZM11.2456 5.66406C11.4282 5.34439 11.3172 4.93715 10.9975 4.75448C10.6778 4.5718 10.2706 4.68287 10.0879 5.00255L7.79593 9.01353L5.73341 7.46664C5.43886 7.24572 5.02099 7.30542 4.80008 7.59997C4.57917 7.89452 4.63886 8.31239 4.93341 8.53331L8.20423 10.9864L11.2456 5.66406Z" />
</svg>
