<!-- eslint-disable max-len -->
<svg viewBox="0 0 16 16">
    <path d="M15.996 2.66667H13.3293V0H11.996V2.66667H9.32935V4H11.996V6.66667H13.3293V4H15.996V2.66667Z M8.04275 3.66826C7.93212 3.41766 7.82452 3.1739 7.69854 2.97445C7.60061 2.9104 7.4967 2.85544 7.38808 2.81043C7.15909 2.71553 6.91365 2.66669 6.66578 2.66669C6.41792 2.66669 6.17248 2.71553 5.94348 2.81043C5.71449 2.90533 5.50643 3.04443 5.33117 3.21978L4.48505 4.06685H3.28978C2.78925 4.06685 2.30922 4.26576 1.95529 4.61982C1.60136 4.97389 1.40252 5.4541 1.40252 5.95482V7.15054L0.54885 7.99698C0.373568 8.1723 0.234523 8.38045 0.139659 8.60953C0.044795 8.83861 -0.00402832 9.08414 -0.00402832 9.3321C-0.00402832 9.58006 0.044795 9.82559 0.139659 10.0547C0.234523 10.2837 0.373568 10.4919 0.54885 10.6672L1.39812 11.5162V12.7119C1.39812 13.2126 1.59695 13.6928 1.95088 14.0469C2.30482 14.401 2.78485 14.5999 3.28538 14.5999H4.48065L5.32992 15.4469C5.50517 15.6223 5.71323 15.7614 5.94223 15.8563C6.17122 15.9512 6.41666 16 6.66453 16C6.91239 16 7.15783 15.9512 7.38682 15.8563C7.61582 15.7614 7.82388 15.6223 7.99913 15.4469L8.84526 14.5999H10.0405C10.5411 14.5999 11.0211 14.401 11.375 14.0469C11.7289 13.6928 11.9278 13.2126 11.9278 12.7119V11.5162L12.7745 10.6691C12.9502 10.4939 13.0897 10.2857 13.1848 10.0565C13.28 9.82733 13.3291 9.58162 13.3293 9.33343C13.3295 9.08525 13.2807 8.83946 13.1859 8.61014C13.1404 8.50032 13.0848 8.3953 13.02 8.2964C12.8208 8.17087 12.5777 8.06356 12.3278 7.95325C12.0544 7.83258 11.7729 7.7083 11.5318 7.55264C11.4313 7.49987 11.3409 7.43051 11.2642 7.34819C11.154 7.24648 11.062 7.13194 10.996 7C10.996 6 9.99599 5 8.99599 5C8.86405 4.93403 8.74952 4.84195 8.6478 4.7318C8.56555 4.65516 8.49624 4.56483 8.44349 4.46442C8.28777 4.22333 8.16346 3.94172 8.04275 3.66826ZM9.74404 7.40961L6.86683 12.3198L3.59601 9.86668C3.30146 9.64577 3.24176 9.2279 3.46268 8.93335C3.68359 8.63879 4.10146 8.5791 4.39601 8.80001L6.45853 10.3469L8.58639 6.74809C8.76906 6.42841 9.1763 6.31735 9.49597 6.50002C9.81565 6.68269 9.92672 7.08993 9.74404 7.40961Z" />
</svg>
