<!-- eslint-disable max-len -->
<svg viewBox="0 0 16 16">
    <path d="M14.1138 6.66361L13.2671 5.81717V4.62145C13.2671 4.12073 13.0682 3.64051 12.7143 3.28645C12.3604 2.93238 11.8803 2.73347 11.3798 2.73347H10.1845L9.33779 1.8864C9.16254 1.71105 8.95448 1.57196 8.72548 1.47706C8.49649 1.38216 8.25105 1.33331 8.00318 1.33331C7.75532 1.33331 7.50988 1.38216 7.28088 1.47706C7.05189 1.57196 6.84383 1.71105 6.66858 1.8864L5.82245 2.73347H4.62719C4.12665 2.73347 3.64662 2.93238 3.29269 3.28645C2.93876 3.64051 2.73992 4.12073 2.73992 4.62145V5.81717L1.88625 6.66361C1.71097 6.83893 1.57192 7.04707 1.47706 7.27615C1.3822 7.50523 1.33337 7.75076 1.33337 7.99872C1.33337 8.24668 1.3822 8.49221 1.47706 8.72129C1.57192 8.95037 1.71097 9.15852 1.88625 9.33383L2.73552 10.1828V11.3785C2.73552 11.8792 2.93436 12.3594 3.28829 12.7135C3.64222 13.0676 4.12225 13.2665 4.62278 13.2665H5.81805L6.66732 14.1136C6.84257 14.2889 7.05063 14.428 7.27963 14.5229C7.50862 14.6178 7.75406 14.6666 8.00193 14.6666C8.24979 14.6666 8.49523 14.6178 8.72422 14.5229C8.95322 14.428 9.16128 14.2889 9.33654 14.1136L10.1827 13.2665H11.3779C11.8785 13.2665 12.3585 13.0676 12.7124 12.7135C13.0663 12.3594 13.2652 11.8792 13.2652 11.3785V10.1828L14.1119 9.33572C14.2876 9.16049 14.4271 8.95233 14.5222 8.72314C14.6174 8.49396 14.6665 8.24824 14.6667 8.00006C14.6669 7.75187 14.6181 7.50609 14.5233 7.27677C14.4284 7.04744 14.2893 6.83908 14.1138 6.66361ZM7.00004 4.49989C7.00004 4.05806 7.50004 3.49989 8.00001 3.49989C8.49998 3.49989 9.00004 4.05806 9.00004 4.49989V8.49989C9.00004 8.94172 8.50004 9.49989 8.00001 9.49989C7.50004 9.49989 7.00004 8.94172 7.00004 8.49989L7.00004 4.49989ZM7.99998 12.5666C7.41087 12.5666 6.93331 12.089 6.93331 11.4999C6.93331 10.9108 7.41087 10.4332 7.99998 10.4332C8.58908 10.4332 9.06664 10.9108 9.06664 11.4999C9.06664 12.089 8.58908 12.5666 7.99998 12.5666Z" />
</svg>
