<!-- eslint-disable max-len -->
<svg viewBox="0 0 16 16">
    <path d="M6.6707 2.99565C6.84878 2.41384 7.38435 2 8.0008 2C8.61722 2 9.15278 2.41381 9.33088 2.99559L10.1106 5.48952H12.6045C13.2221 5.48952 13.7584 5.90481 13.9356 6.48822L13.9368 6.49245C14.1031 7.05321 13.9346 7.69629 13.4261 8.06981L11.3886 9.61898L12.1745 12.1328C12.3604 12.7079 12.1653 13.3564 11.6767 13.7219C11.4271 13.9096 11.14 14 10.8462 14C10.5518 14 10.2642 13.9093 10.0143 13.7208L10.0123 13.7193L8.0008 12.1899L5.98446 13.723C5.49264 14.0898 4.81814 14.0898 4.32632 13.7229L4.31622 13.7154C3.83225 13.34 3.65304 12.7058 3.82436 12.1416L3.82551 12.1377L4.60656 9.61966L2.55795 8.06201C2.07398 7.68657 1.89472 7.05244 2.06603 6.48822C2.24317 5.90481 2.77954 5.48952 3.39706 5.48952H5.89103L6.6707 2.99565ZM7.97418 3.34419C7.96187 3.3535 7.95119 3.36763 7.94559 3.38607L7.944 3.39131L6.87116 6.82286H3.39706C3.39263 6.82286 3.38287 6.82432 3.37044 6.83372C3.35813 6.84303 3.34745 6.85716 3.34186 6.87559C3.32375 6.93524 3.34775 6.98621 3.37405 7.00755L6.15655 9.1232L5.09983 12.5301C5.08326 12.5862 5.10394 12.6346 5.12843 12.6575C5.14636 12.668 5.169 12.6671 5.18619 12.655L8.0008 10.5149L10.8172 12.6563C10.817 12.6562 10.8174 12.6565 10.8172 12.6563C10.8262 12.663 10.8313 12.6649 10.832 12.6651C10.8328 12.6654 10.8367 12.6667 10.8462 12.6667C10.8557 12.6667 10.8596 12.6654 10.8605 12.6651C10.8612 12.6649 10.8659 12.6634 10.8752 12.6563L10.8781 12.6542C10.885 12.649 10.8974 12.6357 10.9051 12.6107C10.9128 12.586 10.912 12.5616 10.9057 12.5424L10.903 12.5342L9.83686 9.12387L12.6362 6.99541C12.6445 6.98941 12.6539 6.97927 12.6602 6.95913C12.6666 6.9383 12.6689 6.90838 12.6592 6.87379C12.6534 6.85624 12.6431 6.84272 12.6312 6.83372C12.6187 6.82432 12.609 6.82286 12.6045 6.82286H9.13043L8.05598 3.38607C8.05038 3.36764 8.03973 3.3535 8.02742 3.34419C8.01499 3.3348 8.00523 3.33333 8.0008 3.33333C7.99637 3.33333 7.98661 3.3348 7.97418 3.34419Z" />
</svg>
