<!-- eslint-disable max-len -->
<svg viewBox="0 0 16 16">
    <path d="M13.2936 6.68186C13.1988 6.36948 12.9142 6.15615 12.6005 6.15615H9.61648L8.68989 3.19234C8.59505 2.87996 8.3105 2.66663 7.99678 2.66663C7.68305 2.66663 7.39851 2.87996 7.30366 3.19234L6.37708 6.15615H3.39304C3.07932 6.15615 2.79477 6.36948 2.69993 6.68186C2.60508 6.99425 2.70722 7.3371 2.96258 7.5352L5.37754 9.37139L4.45825 12.3352C4.3634 12.6476 4.46554 12.9904 4.7209 13.1885C4.97626 13.379 5.32646 13.379 5.58182 13.1885L7.99678 11.3523L10.4117 13.1885C10.5431 13.2876 10.689 13.3333 10.8422 13.3333C10.9954 13.3333 11.1413 13.2876 11.2727 13.1885C11.528 12.9981 11.6375 12.6476 11.5353 12.3352L10.6087 9.37139L13.0237 7.5352C13.2863 7.34472 13.3885 7.00186 13.2936 6.68186Z" />
</svg>
