<!-- eslint-disable max-len -->
<svg viewBox="0 0 16 16">
    <path d="M7.97624 13.4561C7.16868 13.4561 6.38668 13.3334 5.63024 13.0881C4.88401 12.8325 4.29624 12.5054 3.8669 12.1067L4.43424 10.9107C4.84313 11.2787 5.36446 11.5803 5.99824 11.8154C6.64224 12.0403 7.30157 12.1527 7.97624 12.1527C8.86557 12.1527 9.53001 12.0045 9.96957 11.7081C10.4091 11.4014 10.6289 10.9976 10.6289 10.4967C10.6289 10.1287 10.5062 9.83227 10.2609 9.60739C10.159 9.50549 10.0456 9.41416 9.92066 9.33338H11.9358C12.0663 9.64016 12.1316 9.99728 12.1316 10.4047C12.1316 10.9669 11.9782 11.4832 11.6716 11.9534C11.3649 12.4134 10.8998 12.7814 10.2762 13.0574C9.65268 13.3232 8.88601 13.4561 7.97624 13.4561Z M4.6489 7.18472C4.69489 7.23596 4.74198 7.28552 4.79016 7.33338H1.33337V8.66672H14.6667V7.33338H8.43442C8.41975 7.32983 8.40502 7.32627 8.39024 7.32272C7.76668 7.17961 7.2709 7.04672 6.9029 6.92405C6.54513 6.79116 6.24357 6.61227 5.99824 6.38739C5.7529 6.15227 5.63024 5.85072 5.63024 5.48272C5.63024 4.98183 5.8449 4.57294 6.27424 4.25605C6.71379 3.93916 7.36801 3.78072 8.2369 3.78072C8.72757 3.78072 9.22846 3.85739 9.73957 4.01072C10.2507 4.15383 10.7311 4.3685 11.1809 4.65472L11.6869 3.42805C11.2473 3.12139 10.7209 2.88627 10.1076 2.72272C9.49424 2.55916 8.87068 2.47739 8.2369 2.47739C7.32713 2.47739 6.56557 2.61539 5.95224 2.89139C5.3389 3.16739 4.8789 3.53539 4.57224 3.99539C4.27579 4.45539 4.12757 4.97161 4.12757 5.54405C4.12757 6.22894 4.30135 6.77583 4.6489 7.18472Z" />
</svg>
