<!-- eslint-disable max-len -->
<svg viewBox="0 0 16 16">
    <path d="M0 9.33567C0 8.98196 0.140511 8.64274 0.390622 8.39263L6.89226 1.89099C7.14237 1.64088 7.48159 1.50037 7.8353 1.50037L13.0605 1.50037C13.4142 1.50037 13.7534 1.64088 14.0035 1.89099C14.2536 2.1411 14.3941 2.48032 14.3941 2.83403V8.27821C14.3941 8.63192 14.2536 8.97115 14.0035 9.22126L7.61138 15.6134C7.09055 16.1342 6.24612 16.1342 5.72529 15.6134L0.390622 10.2787C0.140511 10.0286 0 9.68938 0 9.33567ZM11.3361 6.55393C11.857 6.0331 11.857 5.18867 11.3361 4.66784C10.8153 4.14701 9.97087 4.14701 9.45004 4.66784C8.92921 5.18867 8.92921 6.0331 9.45004 6.55393C9.97087 7.07476 10.8153 7.07476 11.3361 6.55393Z" />
</svg>
