<!-- eslint-disable max-len -->
<svg viewBox="0 0 16 16">
    <path d="M10.5 8H5.49996V7H10.5V8Z M10.5 10H5.49996V9H10.5V10Z M5.49996 12H10.5V11H5.49996V12Z M5.3333 1.33333C5.3333 0.596954 5.93025 0 6.66663 0H9.33329C10.0697 0 10.6666 0.596954 10.6666 1.33333H12C12.7363 1.33333 13.3333 1.93029 13.3333 2.66667V13.6667C13.3333 14.403 12.7363 15 12 15H3.99996C3.26358 15 2.66663 14.403 2.66663 13.6667V2.66667C2.66663 1.93029 3.26358 1.33333 3.99996 1.33333H5.3333ZM10.6666 2.66667C10.6666 3.40305 10.0697 4 9.33329 4H6.66663C5.93025 4 5.3333 3.40305 5.3333 2.66667H3.99996V13.6667H12V2.66667H10.6666ZM6.49996 1V2.75H9.49996V1H6.49996Z M10.5 6H5.49996V5H10.5V6Z" />
</svg>
