<!-- eslint-disable max-len -->
<svg viewBox="0 0 16 16">
    <path d="M10 6.00004H6V5.00004H10V6.00004Z M10 8.00004H6V7.00004H10V8.00004Z M10 10H6V9.00004H10V10Z M6 1.90915C6 1.30665 6.44772 0.818237 7 0.818237H9C9.55229 0.818237 10 1.30665 10 1.90915H11C11.5523 1.90915 12 2.39756 12 3.00006V10.9091C12 11.5116 11.5523 12 11 12H8.66667V13.6667H16V15.0001H0V13.6667H7.33333V12H5C4.44772 12 4 11.5116 4 10.9091V3.00006C4 2.39756 4.44772 1.90915 5 1.90915H6ZM10 3.00006C10 3.60255 9.55229 4.09096 9 4.09096H7C6.44772 4.09096 6 3.60255 6 3.00006H5V10.9091H11V3.00006H10ZM7 1.90915V3.00006H9V1.90915H7Z" />
</svg>
