<!-- eslint-disable max-len -->
<svg viewBox="0 0 16 16">
    <path d="M8.00611 1.5582C8.96219 1.81588 9.88664 2.36223 10.6027 3.07831L10.7799 3.25551V3.27411C11.7889 4.38376 12.2446 5.81626 12.147 7.21751L12.1498 7.21747C12.1617 8.04771 12.6184 8.83958 13.3292 9.64264C13.6795 10.0384 14.0739 10.4177 14.4753 10.7907C14.5751 10.8834 14.6761 10.9765 14.7771 11.0696C15.0742 11.3433 15.3712 11.6168 15.6327 11.8783L14.7771 12.7339C14.5347 12.4915 14.2649 12.243 13.9737 11.9747C13.8691 11.8783 13.7615 11.7792 13.6516 11.6771C13.244 11.2983 12.8141 10.8863 12.4231 10.4446C12.1112 10.0922 11.8122 9.70783 11.5653 9.29104C11.3202 9.76366 10.9994 10.2073 10.6027 10.6039C10.2101 10.9966 9.77138 11.315 9.30408 11.5591C9.71921 11.8055 10.1022 12.1035 10.4533 12.4143C10.895 12.8053 11.307 13.2353 11.6858 13.6429C11.7878 13.7526 11.8867 13.8599 11.983 13.9644C12.2512 14.2556 12.5002 14.5259 12.7426 14.7683L11.887 15.6239C11.6255 15.3624 11.3522 15.0657 11.0785 14.7686C10.9854 14.6675 10.8922 14.5664 10.7995 14.4666C10.4264 14.0651 10.0471 13.6707 9.65136 13.3204C8.86812 12.6272 8.09551 12.1756 7.28757 12.1427C5.78425 12.2677 4.238 11.7548 3.08712 10.6039C2.37328 9.89007 1.82098 8.97179 1.56001 8.01537C1.29908 7.05912 1.31938 6.01821 1.8283 5.11829L2.22002 4.42561L5.19556 7.40115L6.94111 6.9323L7.40996 5.18675L4.43347 2.21026L5.12796 1.819C6.01384 1.31992 7.05191 1.30103 8.00611 1.5582ZM7.24907 10.9313C8.16078 10.8415 9.04825 10.4472 9.74712 9.74831C11.3509 8.14457 11.3509 5.54764 9.74712 3.94391L9.56992 3.76671C9.02492 3.27635 8.35843 2.90633 7.69123 2.72651C7.29139 2.61875 6.90641 2.5823 6.55287 2.61846L8.75988 4.82547L7.92873 7.91992L4.83428 8.75107L2.62123 6.53801C2.5803 6.89993 2.61677 7.29167 2.72733 7.69685C2.92886 8.43543 3.36655 9.17214 3.94272 9.74831C4.84615 10.6517 6.06478 11.0456 7.24348 10.9312L7.24907 10.9313Z" />
</svg>
