<!-- eslint-disable max-len -->
<svg viewBox="0 0 12 12">
  <path d="M 5 0.5 C 4.7200003 0.5 4.5 0.72000028 4.5 1 L 4.5 2 L 2 2 C 1.7200003 2 1.5 2.2200003 1.5 2.5 C 1.5 2.7799997 1.7200003 3 2 3 L 10 3 C 10.28 3 10.5 2.7799997 10.5 2.5 C 10.5 2.2200003 10.28 2 10 2 L 7.5 2 L 7.5 1 C 7.5 0.72000028 7.2799997 0.5 7 0.5 L 5 0.5 z M 2.5 4 C 2.2238603 4 2 4.2238603 2 4.5 L 2 10.5 C 2 10.7761 2.2238603 11 2.5 11 L 9.5 11 C 9.7761397 11 10 10.7761 10 10.5 L 10 4.5 C 10 4.2238603 9.7761397 4 9.5 4 L 2.5 4 z M 4.5 5.5 C 4.6279599 5.5 4.7558857 5.5488495 4.8535156 5.6464844 L 6 6.7929688 L 7.1464844 5.6464844 C 7.3417442 5.4512146 7.6582558 5.4512146 7.8535156 5.6464844 C 8.0487854 5.8417442 8.0487854 6.1582558 7.8535156 6.3535156 L 6.7070312 7.5 L 7.8535156 8.6464844 C 8.0487854 8.8417442 8.0487854 9.1582558 7.8535156 9.3535156 C 7.6582558 9.5487854 7.3417442 9.5487854 7.1464844 9.3535156 L 6 8.2070312 L 4.8535156 9.3535156 C 4.6582558 9.5487854 4.3417442 9.5487854 4.1464844 9.3535156 C 3.9512146 9.1582558 3.9512146 8.8417442 4.1464844 8.6464844 L 5.2929688 7.5 L 4.1464844 6.3535156 C 3.9512146 6.1582558 3.9512146 5.8417442 4.1464844 5.6464844 C 4.2441143 5.5488495 4.3720401 5.5 4.5 5.5 z " />
</svg>