<!-- eslint-disable max-len -->
<svg viewBox="0 0 16 16">
    <path d="M2 3.33333C2 3.70666 2.29333 4 2.66667 4H13.3333C13.7067 4 14 3.70666 14 3.33333C14 2.96 13.7067 2.66666 13.3333 2.66666H10V1.66667C10 1.29333 9.70667 1 9.33333 1H6.66667C6.29333 1 6 1.29333 6 1.66667V2.66666H2.66667C2.29333 2.66666 2 2.96 2 3.33333Z M3.33333 14.3333C2.96514 14.3333 2.66667 14.0349 2.66667 13.6667L2.66667 6C2.66667 5.63181 2.96514 5.33333 3.33333 5.33333C3.70152 5.33333 4 5.63181 4 6L4 13H5.8667L5.8667 6C5.8667 5.63181 6.16518 5.33333 6.53337 5.33333C6.90156 5.33333 7.20003 5.63181 7.20003 6L7.20003 13L9.06673 13L9.06673 6C9.06673 5.63181 9.36521 5.33333 9.7334 5.33333C10.1016 5.33333 10.4001 5.63181 10.4001 6L10.4001 13H12L12 6C12 5.63181 12.2985 5.33333 12.6667 5.33333C13.0349 5.33333 13.3333 5.63181 13.3333 6V13.6667C13.3333 14.0349 13.0349 14.3333 12.6667 14.3333H3.33333Z" />
</svg>
