<!-- eslint-disable max-len -->
<svg viewBox="0 0 16 16">
  <path d="M2.66667 3.99996C2.29333 3.99996 2 3.70663 2 3.33329C2 2.95996 2.29333 2.66663 2.66667 2.66663H6V1.33329C6 0.959959 6.29333 0.666626 6.66667 0.666626H9.33333C9.70667 0.666626 10 0.959959 10 1.33329V2.66663H13.3333C13.7067 2.66663 14 2.95996 14 3.33329C14 3.70663 13.7067 3.99996 13.3333 3.99996H2.66667Z
 M2.66667 14C2.66667 14.3681 2.96514 14.6666 3.33333 14.6666H12.6667C13.0349 14.6666 13.3333 14.3681 13.3333 14V5.99996C13.3333 5.63177 13.0349 5.33329 12.6667 5.33329H3.33333C2.96514 5.33329 2.66667 5.63177 2.66667 5.99996L2.66667 14ZM10.4714 7.52855C10.7318 7.7889 10.7318 8.21101 10.4714 8.47136L8.94281 9.99996L10.4714 11.5286C10.7318 11.7889 10.7318 12.211 10.4714 12.4714C10.2111 12.7317 9.78894 12.7317 9.52859 12.4714L8 10.9428L6.47141 12.4714C6.21106 12.7317 5.78895 12.7317 5.5286 12.4714C5.26825 12.211 5.26825 11.7889 5.5286 11.5286L7.05719 9.99996L5.5286 8.47136C5.26825 8.21101 5.26825 7.78891 5.5286 7.52856C5.78895 7.26821 6.21106 7.26821 6.4714 7.52855L8 9.05715L9.52859 7.52855C9.78894 7.26821 10.2111 7.26821 10.4714 7.52855Z" />
</svg>