<!-- eslint-disable max-len -->
<svg viewBox="0 0 16 16">
    <path d="M3.25926 3C2.92741 3 2.66667 2.74857 2.66667 2.42857C2.66667 2.10857 2.92741 1.85714 3.25926 1.85714H6.22222V0.571429C6.22222 0.251429 6.48296 0 6.81482 0H9.18519C9.51704 0 9.77778 0.251429 9.77778 0.571429V1.85714H12.7407C13.0726 1.85714 13.3333 2.10857 13.3333 2.42857C13.3333 2.74857 13.0726 3 12.7407 3H3.25926Z M3 11.4286C3 11.7442 3.26531 12 3.59259 12H7.33333V13.6667H0V15H16V13.6667H8.66667V12H12.4074C12.7347 12 13 11.7442 13 11.4286V4.57143C13 4.25584 12.7347 4 12.4074 4C12.0801 4 11.8148 4.25584 11.8148 4.57143L11.8148 10.8571H10.1334L10.1334 4.57143C10.1334 4.25584 9.86808 4 9.5408 4C9.21352 4 8.94821 4.25584 8.94821 4.57143L8.94821 10.8571L7.28892 10.8571L7.28892 4.57143C7.28892 4.25584 7.02361 4 6.69633 4C6.36905 4 6.10373 4.25584 6.10373 4.57143V10.8571H4.18519V4.57143C4.18519 4.25584 3.91987 4 3.59259 4C3.26531 4 3 4.25584 3 4.57143L3 11.4286Z" />
</svg>
