<!-- eslint-disable max-len -->
<svg viewBox="0 0 16 16">
    <path d="M3.97986 2.60001H5.44653V7.92001C5.44653 8.91175 5.6638 9.6431 6.08668 10.1261C6.50809 10.6074 7.14372 10.8533 8.00653 10.8533C8.84668 10.8533 9.48003 10.6131 9.91743 10.1416C10.355 9.661 10.5799 8.92475 10.5799 7.92001V2.60001H12.0065V7.97334C12.0065 9.32669 11.6568 10.3725 10.9476 11.0999C10.2387 11.8179 9.25055 12.1733 7.99319 12.1733C6.73559 12.1733 5.74768 11.8136 5.03879 11.0865C4.32963 10.3592 3.97986 9.31795 3.97986 7.97334V2.60001Z M14.6667 12.9999H1.33337V14.3332H14.6667V12.9999Z" />
</svg>
