<!-- eslint-disable max-len -->
<svg viewBox="0 0 16 16">
    <path d="M13.39 10.4026C12.4008 8.16245 10.3383 6.66667 7.99968 6.66667C6.05648 6.66667 4.30446 7.69902 3.19972 9.33334H5.99967C6.36786 9.33334 6.66634 9.63181 6.66634 10C6.66634 10.3682 6.36786 10.6667 5.99967 10.6667H2.07406C2.06437 10.6669 2.05467 10.6669 2.04495 10.6667H1.33301V6C1.33301 5.63181 1.63148 5.33334 1.99967 5.33334C2.36786 5.33334 2.66634 5.63181 2.66634 6V7.84217C3.99507 6.30681 5.8835 5.33334 7.99968 5.33334C10.9389 5.33334 13.4381 7.21078 14.6097 9.86404C14.7584 10.2009 14.6059 10.5945 14.2691 10.7432C13.9323 10.8919 13.5387 10.7394 13.39 10.4026Z" />
</svg>
