<!-- eslint-disable max-len -->
<svg viewBox="0 0 16 16">
    <path d="M8.26671 0C8.6349 0 8.93337 0.298477 8.93337 0.666667V2.66667C8.93337 3.03486 8.6349 3.33333 8.26671 3.33333C7.89852 3.33333 7.60004 3.03486 7.60004 2.66667V0.666667C7.60004 0.298477 7.89852 0 8.26671 0Z M4.32864 1.5286C4.58899 1.26825 5.0111 1.26825 5.27144 1.5286L6.68566 2.94281C6.94601 3.20316 6.94601 3.62527 6.68566 3.88562C6.42531 4.14597 6.0032 4.14597 5.74285 3.88562L4.32864 2.4714C4.06829 2.21105 4.06829 1.78894 4.32864 1.5286Z
 M14.5849 6.42816C14.7142 6.65201 14.638 6.9364 14.4141 7.06564L9.44892 9.93231C9.22507 10.0615 8.94068 9.98534 8.81144 9.7615L7.71144 7.85624L6.55674 8.52291L7.65674 10.4282C8.15417 11.2897 9.25401 11.5844 10.1156 11.087L15.0808 8.22034C15.9424 7.72291 16.2371 6.62307 15.7396 5.76149L14.2063 3.10568C13.7089 2.24411 12.609 1.94941 11.7475 2.44684L9.26486 3.88017L9.93152 5.03487L12.4141 3.60154C12.638 3.4723 12.9224 3.5485 13.0516 3.77235L14.5849 6.42816Z M1.42271 11.2208L4.28937 6.25554C4.41861 6.03169 4.703 5.95549 4.92685 6.08473L6.8321 7.18473L7.49877 6.03003L5.59352 4.93003C4.73195 4.4326 3.6321 4.7273 3.13467 5.58887L0.268006 10.5541C-0.229422 11.4157 0.0652806 12.5155 0.926852 13.0129L3.58266 14.5463C4.44423 15.0437 5.54408 14.749 6.04151 13.8874L7.47484 11.4048L6.32014 10.7381L4.88681 13.2208C4.75757 13.4446 4.47318 13.5208 4.24933 13.3916L1.59352 11.8582C1.36967 11.729 1.29347 11.4446 1.42271 11.2208Z" />
</svg>
