<!-- eslint-disable max-len -->
<svg viewBox="0 0 16 16">
    <path d="M1.33334 15V13.3334C1.33334 12.0254 3.95206 10 8.00001 10C12.048 10 14.6667 12.0254 14.6667 13.3334V15H13.3333C13.3333 14.6573 13.3919 13.383 13.1662 13.1098C12.0024 11.7007 9.6931 11.3334 8.00001 11.3334C6.30692 11.3334 3.99765 11.7007 2.83378 13.1098C2.60815 13.383 2.66668 14.6573 2.66668 15H1.33334ZM8.00001 2.22022L6.00001 3.41618V5.90634L8.00001 7.11038L10 5.90634V3.41618L8.00001 2.22022ZM11.3333 2.65995V6.65995L8.00001 8.66669L4.66668 6.65995V2.65995L8.00001 0.666687L11.3333 2.65995Z" />
</svg>
