<!-- eslint-disable max-len -->
<svg viewBox="0 0 16 16">
    <path d="M6 0.5C6 0.223858 6.22386 0 6.5 0H15.5C15.7761 0 16 0.223858 16 0.5V6.5C16 6.77614 15.7761 7 15.5 7H11C10.7239 7 10.5 6.77614 10.5 6.5C10.5 6.22386 10.7239 6 11 6H14.1484L12.0696 4.21821L11.3322 4.87371C11.1427 5.0421 10.8573 5.0421 10.6678 4.87371L7 1.61343V3.60262L9 4.80785V8.43576L6 10.2558L3 8.43576V4.80785L6 3V0.5ZM15 1.61342L12.8239 3.5477L15 5.41289V1.61342ZM7.8151 1L11 3.83102L14.1849 1H7.8151Z M6 11.4651C2.35685 11.4651 0 13.3021 0 14.4884V16H12V14.4884C12 13.3021 9.64315 11.4651 6 11.4651Z" />
</svg>
