<!-- eslint-disable max-len -->
<svg viewBox="0 0 16 16">
    <path d="M15.5 0H7.5C7.26131 0 7.05 0.211305 7.05 0.45V1.95087L7 1.92027L4.5 3.44999V6.01976L7 7.55982L9.5 6.01976V3.44999L7.95 2.50157V1.37526L11.2366 4.25103C11.3874 4.38299 11.6126 4.38299 11.7634 4.25103L12.2818 3.79745L14.4843 6H11.5C11.2515 6 11.05 6.20147 11.05 6.45C11.05 6.69853 11.2515 6.9 11.5 6.9H15.5C15.7486 6.9 15.95 6.69853 15.95 6.45V0.45C15.95 0.201472 15.7486 0 15.5 0ZM15.05 5.43433L12.8852 3.26948L15.05 1.37523V5.43433ZM8.62172 0.9H14.3783L11.5 3.41849L8.62172 0.9Z M7 8.11279C3.96404 8.11279 2 9.66717 2 10.6709V11.95H7.33333V13.6667H0V15H16V13.6667H8.66667V11.95H12V10.6709C12 9.66717 10.036 8.11279 7 8.11279Z" />
</svg>
