<!-- eslint-disable max-len -->
<svg viewBox="0 0 16 16">
    <path d="M9.6 3.80935V1.93435L8 1L6.4 1.93435V3.80935L8 4.75001L9.6 3.80935Z M11 7C11 6.3869 9.61 5.5 8 5.5C6.39 5.5 5 6.3869 5 7L5 8H7.5V9H0V10H16V9H8.5V8L11 8.00001L11 7Z M3 12.7614V11.6007L2 11L1 11.6007V12.7614L2 13.4L3 12.7614Z M4 14.5C4 14.0621 3.07333 13.5 2 13.5C0.926668 13.5 0 14.0621 0 14.5V15L4 15L4 14.5Z M9 11.6007V12.7614L8 13.4L7 12.7614V11.6007L8 11L9 11.6007Z M8 13.5C9.07333 13.5 10 14.0621 10 14.5L10 15L6 15V14.5C6 14.0621 6.92667 13.5 8 13.5Z M15 12.7614V11.6007L14 11L13 11.6007V12.7614L14 13.4L15 12.7614Z M16 14.5C16 14.0621 15.0733 13.5 14 13.5C12.9267 13.5 12 14.0621 12 14.5V15L16 15L16 14.5Z" />
</svg>
