<!-- eslint-disable max-len -->
<svg viewBox="0 0 16 16">
    <path d="M7.66669 4.16164V7.16165L5.16668 8.66671L2.66667 7.16165V4.16164L5.16668 2.66669L7.66669 4.16164Z M14.6667 5.16669L14.6667 7.4111L12.6667 8.65549L10.6667 7.4111L10.6667 5.16669L12.6667 3.91108L14.6667 5.16669Z M10 11.181V12.3334H16V10.6762C16 9.93336 14.0176 9.33335 12 9.33335C10.9016 9.33335 10.1005 9.51292 9.53109 9.79674C9.90619 9.82603 10 10.7318 10 11.181Z M4.66213 9.33335C2.08617 9.33335 0 10.1429 0 11.1238V13.3334H9.33333V11.1238C9.33333 10.1429 7.2381 9.33335 4.66213 9.33335Z" />
</svg>
