<!-- eslint-disable max-len -->
<svg viewBox="0 0 16 16">
    <path d="M8.00004 7.02543V4.11634L5.33337 2.66669L2.6667 4.11634V7.02543L5.33337 8.48487L8.00004 7.02543Z M5.33337 9.45457C2.09502 9.45457 3.65575e-05 10.9276 3.65575e-05 11.8788L0 13H10.6667L10.6667 11.8788C10.6667 10.9276 8.57172 9.45457 5.33337 9.45457Z M15.3322 5.77711C15.5773 5.40949 15.478 4.91279 15.1103 4.66771C14.7427 4.42263 14.246 4.52197 14.0009 4.88959L11.8756 8.07764L10.5656 6.76766C10.2532 6.45524 9.74664 6.45524 9.43422 6.76766C9.1218 7.08008 9.1218 7.58662 9.43422 7.89903L12.1242 10.5891L15.3322 5.77711Z" />
</svg>
