<!-- eslint-disable max-len -->
<svg viewBox="0 0 12 12">
    <path d="M 4.1373701,1.8625 2.069551,2.9864653 v 2.25659 l 2.0678191,1.1326245 2.069551,-1.1326245 v -2.25659 z m 7.2390989,1.4478198 c -0.199249,0.00122 -0.395539,0.098829 -0.514357,0.2770947 L 9.2133986,6.0604846 8.1968074,5.0438934 c -0.2423977,-0.2423977 -0.6339142,-0.2423977 -0.8763119,0 -0.2423979,0.2423978 -0.2423979,0.635646 0,0.8780439 L 9.4073649,8.0088067 11.896022,4.2749557 C 12.08613,3.9897302 12.00809,3.6043747 11.722837,3.4142303 11.615868,3.3429228 11.496019,3.3095852 11.376469,3.3103198 Z M 4.1373701,7.129031 C 1.6248465,7.129031 0,8.2717736 0,9.009811 v 1.12743 h 8.2764722 v -1.12743 c 0,-0.7380374 -1.6265783,-1.88078 -4.1391021,-1.88078 z" />
</svg>
