<!-- eslint-disable max-len -->
<svg viewBox="0 0 12 12">
    <path d="M7.2 2.85702V1.45076L6 0.75L4.8 1.45076V2.85702L6 3.56251L7.2 2.85702Z M8.25 5.25C8.25 4.79018 7.2075 4.125 6 4.125C4.7925 4.125 3.75 4.79018 3.75 5.25L3.75 6H5.625V6.75H0V7.5H12V6.75H6.375V6L8.25 6L8.25 5.25Z M2.25 9.57108V8.70054L1.5 8.25L0.75 8.70054V9.57108L1.5 10.05L2.25 9.57108Z M3 11.25C3 10.9216 2.305 10.5 1.5 10.5C0.695001 10.5 0 10.9216 0 11.25V11.625L3 11.625L3 11.25Z M6.75 8.70054V9.57108L6 10.05L5.25 9.57108V8.70054L6 8.25L6.75 8.70054Z M6 10.5C6.805 10.5 7.5 10.9216 7.5 11.25L7.5 11.625L4.5 11.625V11.25C4.5 10.9216 5.195 10.5 6 10.5Z M11.25 9.57108V8.70054L10.5 8.25L9.75 8.70054V9.57108L10.5 10.05L11.25 9.57108Z M12 11.25C12 10.9216 11.305 10.5 10.5 10.5C9.695 10.5 9 10.9216 9 11.25V11.625L12 11.625L12 11.25Z" />
</svg>
