<!-- eslint-disable max-len -->
<svg viewBox="0 0 12 12">
    <path d="M 5.8867188,-0.58203125 3.1601562,1.0488281 v 3.2734375 l 2.7265626,1.640625 2.7265624,-1.640625 V 1.0488281 Z m 0.00391,1.2578125 1.6367188,0.97851565 V 3.6914062 L 5.890625,4.6757812 4.2558594,3.6914062 V 1.6542969 Z m -0.00391,6.37890625 c -3.3119609,0 -5.45507818,1.6564622 -5.45507818,2.7265625 v 1.636719 H 1.5234375 c 0,-0.280391 -0.04788,-1.5948318 0.1367187,-1.8183596 0.9522579,-1.1529003 2.8413063,-1.4550782 4.2265626,-1.4550782 1.3852562,1e-7 3.2742797,0.3021779 4.2265622,1.4550782 C 10.29786,9.8231372 10.25,11.137578 10.25,11.417969 h 1.091797 V 9.78125 c 0,-1.0701003 -2.1431092,-2.7265625 -5.4550782,-2.7265625 z" />
</svg>
