<!-- eslint-disable max-len -->
<svg viewBox="0 0 16 16">
    <path d="M1.33333 3C0.596954 3 0 3.59695 0 4.33333L0 11.6667C0 12.403 0.596954 13 1.33333 13H10.6667C11.403 13 12 12.403 12 11.6667V10.4914L13.9271 11.7761C14.3362 12.0489 14.8623 12.0743 15.2958 11.8423C15.7294 11.6102 16 11.1584 16 10.6667V5.33338C16 4.84165 15.7294 4.38984 15.2958 4.15781C14.8623 3.92578 14.3362 3.95121 13.9271 4.22398L12 5.50869V4.33333C12 3.59695 11.403 3 10.6667 3H1.33333ZM12 7.11115L14.6667 5.33338V10.6667L12 8.88893V7.11115ZM10.6667 4.33333V11.6667H1.33333V4.33333H10.6667Z" />
</svg>
