<!-- eslint-disable max-len -->
<svg viewBox="0 0 16 16">
    <path d="M13.3333 2.66675L12.6666 0.666748L12 2.66675L9.99996 3.33341L12 4.00008L12.6666 6.00008L13.3333 4.00008L15.3333 3.33341L13.3333 2.66675Z M6.16671 3.83338L5.33338 1.33338L4.50004 3.83338L2.00005 4.66671L4.50004 5.50004L5.33338 8.00004L6.16671 5.50004L8.66671 4.66671L6.16671 3.83338Z M12.2761 8.27619L12.8452 9.31667L13.8857 9.88572L12.8452 10.4548L12.2761 11.4953L11.7071 10.4548L10.6666 9.88572L11.7071 9.31667L12.2761 8.27619Z M10.2716 5.33331L11.403 6.46469L2.93118 14.9365L1.7998 13.8051L10.2716 5.33331ZM8.90102 7.26772L9.46671 7.83341L10.8 6.50007L10.2344 5.93439L8.90102 7.26772Z" />
</svg>
