<!-- eslint-disable max-len -->
<svg viewBox="0 0 16 16">
    <path d="M10.6667 4.66667C10.6667 5.15238 10.5368 5.60777 10.31 6H12.2038C12.8556 6 13.4119 6.47122 13.519 7.11413L14.5373 13.2237C14.605 13.6301 14.2917 14 13.8797 14H2.12032C1.70836 14 1.395 13.6301 1.46273 13.2237L2.48099 7.11413C2.58814 6.47122 3.14439 6 3.79618 6H5.69012C5.46323 5.60777 5.33337 5.15238 5.33337 4.66667C5.33337 3.19391 6.52728 2 8.00004 2C9.4728 2 10.6667 3.19391 10.6667 4.66667ZM8.00004 6C8.73642 6 9.33337 5.40305 9.33337 4.66667C9.33337 3.93029 8.73642 3.33333 8.00004 3.33333C7.26366 3.33333 6.6667 3.93029 6.6667 4.66667C6.6667 5.40305 7.26366 6 8.00004 6Z" />
</svg>
