<!-- eslint-disable max-len -->
<svg viewBox="0 0 16 16">
    <path d="M14.6667 7.99998C14.6667 11.6819 11.6819 14.6666 8.00004 14.6666C4.31814 14.6666 1.33337 11.6819 1.33337 7.99998C1.33337 4.31808 4.31814 1.33331 8.00004 1.33331C11.6819 1.33331 14.6667 4.31808 14.6667 7.99998ZM13.3334 7.99998C10.6667 6.66665 11.7713 8.93371 11.3334 9.99998C10.9541 10.9234 10.2616 12 9.33337 12C9.04445 12 8.69803 11.778 8.66671 11.3333C8.63739 10.9171 8.66671 10.215 8.66671 9.99998C8.44499 9.75277 8.047 9.59507 7.6641 9.44335C7.15189 9.24039 6.66671 9.04814 6.66671 8.66665C6.66671 7.17518 7.53543 6.79595 8.43528 6.69953C8.16009 6.48816 8.00004 6.24406 8.00004 5.99997C8.00004 4.67005 10.0608 4.11115 11.545 4.01524C10.6027 3.17634 9.36091 2.66665 8.00004 2.66665C6.847 2.66665 5.77942 3.03255 4.90708 3.65458C6.29346 5.65026 4.91465 6.62687 3.79034 7.42321C3.26674 7.79407 2.79834 8.12584 2.69014 8.50323C2.69526 8.55793 2.7012 8.61239 2.70796 8.66659C2.81347 8.66634 2.91916 8.66516 3.02442 8.66398C3.98243 8.65328 4.90501 8.64297 5.33337 9.33331C5.51088 9.61938 5.4108 10.0313 5.29343 10.5144C5.14339 11.1319 4.96509 11.8657 5.30225 12.6017C6.09371 13.0667 7.01573 13.3333 8.00004 13.3333C10.9456 13.3333 13.3334 10.9455 13.3334 7.99998Z" />
</svg>
