<!-- eslint-disable max-len -->
<svg viewBox="0 0 12 12">
    <path d="M9.54214 2.46789C8.63098 1.55046 7.35535 1 5.98861 1C4.62187 1 3.43736 1.55046 2.43508 2.46789C0.52164 4.3945 0.52164 7.6055 2.43508 9.53211C3.34624 10.4495 4.62187 11 5.98861 11C7.35535 11 8.53986 10.4495 9.54214 9.53211C10.5444 8.61468 11 7.33027 11 5.95413C11 4.57798 10.4533 3.38532 9.54214 2.46789ZM3.07289 8.98165C1.4328 7.33027 1.4328 4.66972 3.07289 3.01835C3.89294 2.19266 4.89522 1.82569 5.98861 1.82569C7.082 1.82569 8.1754 2.2844 8.90433 3.01835C9.63326 3.75229 10.0888 4.85321 10.0888 5.95413C10.0888 6.59633 9.99772 7.14679 9.72437 7.69725C9.26879 7.23853 8.63098 6.50459 8.63098 5.86239C8.63098 5.0367 8.35763 4.21101 7.81093 3.56881C6.99089 2.83486 5.89749 2.55963 4.8041 2.92661C4.62187 2.92661 4.53075 3.11009 4.53075 3.20183C4.53075 3.29358 4.53075 3.47706 4.62187 3.56881L6.07973 5.0367L5.89749 5.86239L4.98633 6.13761L3.52847 4.66972C3.43736 4.57798 3.34624 4.48624 3.16401 4.57798C2.98178 4.57798 2.89066 4.76147 2.89066 4.85321C2.5262 5.86239 2.79954 7.05505 3.61959 7.78899C4.16629 8.33945 4.89522 8.70642 5.71526 8.70642C5.80638 8.70642 5.80638 8.70642 5.89749 8.70642C6.53531 8.70642 7.26424 9.34862 7.71982 9.80734C7.17312 10.0826 6.62642 10.1743 5.98861 10.1743C4.89522 10.1743 3.80182 9.7156 3.07289 8.98165ZM6.80866 4.57798L5.80638 3.56881C6.35308 3.56881 6.80866 3.84404 7.17312 4.21101C7.99317 5.0367 7.99317 6.41284 7.17312 7.23853C6.35308 8.06422 4.98633 8.06422 4.16629 7.23853C3.80182 6.87156 3.61959 6.3211 3.61959 5.86239L4.62187 6.87156C4.71298 6.9633 4.89522 7.05505 4.98633 6.9633L6.26196 6.59633C6.44419 6.59633 6.53531 6.41284 6.53531 6.3211L6.89977 4.94495C6.99089 4.85321 6.89977 4.66972 6.80866 4.57798ZM8.44875 9.34862C8.1754 9.07339 7.71982 8.61468 7.17312 8.24771C7.35535 8.15596 7.53759 7.97248 7.81093 7.78899C8.08428 7.6055 8.1754 7.42202 8.26651 7.14679C8.53986 7.69725 8.99544 8.15596 9.35991 8.43119C9.17768 8.61468 9.08656 8.79816 8.90433 8.98165C8.7221 9.16514 8.63098 9.25688 8.44875 9.34862Z" />
</svg>
