<svg fill="none" xmlns="http://www.w3.org/2000/svg" viewBox="0 0 110 28">
<path d="M32.59 7.69H36.69C38.34 7.69 39.81 8.11 40.68 9.01C41.36 9.69 41.71 10.52 41.71 11.62V11.71C41.71 13.6 40.66 14.56 39.56 15.11C41.03 15.72 42.15 16.67 42.15 18.66V18.81C42.15 21.55 39.98 23.05 36.82 23.05H32.59V7.69ZM38.83 12.16C38.83 10.95 38.04 10.34 36.77 10.34H35.5V14.05H36.68C38 14.05 38.83 13.37 38.83 12.19V12.16ZM36.98 16.55H35.49V20.39H37.02C38.34 20.39 39.24 19.69 39.24 18.48V18.46C39.24 17.3 38.39 16.55 36.98 16.55Z" fill="white"/>
<path d="M44.2 7.38H47.0499V23.05H44.2V7.38Z" fill="white"/>
<path d="M49.49 19.73V11.28H52.34V18.98C52.34 20.1 52.8 20.69 53.59 20.69C54.38 20.69 54.91 20.1 54.91 18.98V11.28H57.76V23.04H54.91V21.55C54.34 22.47 53.61 23.26 52.36 23.26C50.5 23.26 49.49 21.86 49.49 19.73Z" fill="white"/>
<path d="M59.7999 17.38V17.01C59.7999 13.37 61.6899 11.09 64.1399 11.09C66.8599 11.09 68.3299 13.48 68.3299 17.17C68.3299 17.26 68.3299 17.72 68.3099 18.35H62.6299C62.8299 19.95 63.6599 20.76 64.7799 20.76C65.6099 20.76 66.2699 20.23 66.8199 19.66L68.0699 21.77C67.0199 22.74 65.8999 23.28 64.5599 23.28C61.9099 23.29 59.7999 21.11 59.7999 17.38ZM65.6199 16.31C65.5499 14.53 65.0499 13.52 64.1499 13.52C63.2899 13.52 62.6999 14.46 62.6099 16.31H65.6199Z" fill="white"/>
<path d="M85.2899 7.38H88.2299V10.1H85.2899V7.38ZM85.3399 11.28H88.1899V23.04H85.3399V11.28Z" fill="white"/>
<path d="M90.6899 11.28H93.5399V12.77C94.1099 11.85 94.8299 11.06 96.1099 11.06C97.9499 11.06 98.9799 12.46 98.9799 14.59V23.04H96.1299V15.34C96.1299 14.22 95.6499 13.63 94.8599 13.63C94.0699 13.63 93.5399 14.22 93.5399 15.34V23.04H90.6899V11.28Z" fill="white"/>
<path d="M101.03 17.52V16.82C101.03 12.72 102.63 11.07 104.52 11.07C105.88 11.07 106.61 11.97 107.15 12.76V7.38H110V23.05H107.15V21.49C106.62 22.35 105.88 23.27 104.52 23.27C102.65 23.26 101.03 21.64 101.03 17.52ZM107.17 17.36V16.97C107.17 14.93 106.49 13.68 105.5 13.68C104.51 13.68 103.88 14.93 103.88 16.97V17.36C103.88 19.42 104.52 20.65 105.5 20.65C106.49 20.65 107.17 19.42 107.17 17.36Z" fill="white"/>
<path d="M79.7 7.68L76.72 17.1L76.67 17.35L76.62 17.1L73.64 7.68H70.51V23.04H73.31V13.79L73.51 14.9L76.24 23H76.28H77.06H77.1L79.83 14.9L80 13.91V23.04H82.88V7.68H79.7Z" fill="white"/>
<path d="M21.63 10.21V4.93L13.09 0L4.56 4.93V10.21L0 12.84V22.7L8.54 27.63L13.09 25L17.65 27.63L26.19 22.7V12.84L21.63 10.21ZM23.21 14.56V20.98L17.65 24.19L13.09 21.56L8.53 24.19L2.97 20.98V14.56L7.53 11.93V6.65L13.09 3.44L18.65 6.65V11.93L23.21 14.56Z" fill="#B0DFF5"/>
<path d="M13.09 5.28L4.55005 10.21V20.07L13.09 25L21.63 20.07V10.21L13.09 5.28ZM18.65 18.35L13.09 21.56L7.53005 18.35V11.93L13.09 8.72L18.65 11.93V18.35Z" fill="#00AAEB"/>
</svg>
